G04 #@! TF.GenerationSoftware,KiCad,Pcbnew,5.1.5+dfsg1-2build2*
G04 #@! TF.CreationDate,2020-07-06T17:32:12+07:00*
G04 #@! TF.ProjectId,esp_wrover_open,6573705f-7772-46f7-9665-725f6f70656e,rev?*
G04 #@! TF.SameCoordinates,Original*
G04 #@! TF.FileFunction,Soldermask,Top*
G04 #@! TF.FilePolarity,Negative*
%FSLAX46Y46*%
G04 Gerber Fmt 4.6, Leading zero omitted, Abs format (unit mm)*
G04 Created by KiCad (PCBNEW 5.1.5+dfsg1-2build2) date 2020-07-06 17:32:12*
%MOMM*%
%LPD*%
G04 APERTURE LIST*
%ADD10C,0.100000*%
G04 APERTURE END LIST*
D10*
G36*
X71653512Y-104663927D02*
G01*
X71802812Y-104693624D01*
X71966784Y-104761544D01*
X72114354Y-104860147D01*
X72239853Y-104985646D01*
X72338456Y-105133216D01*
X72406376Y-105297188D01*
X72441000Y-105471259D01*
X72441000Y-105648741D01*
X72406376Y-105822812D01*
X72338456Y-105986784D01*
X72239853Y-106134354D01*
X72114354Y-106259853D01*
X71966784Y-106358456D01*
X71802812Y-106426376D01*
X71653512Y-106456073D01*
X71628742Y-106461000D01*
X71451258Y-106461000D01*
X71426488Y-106456073D01*
X71277188Y-106426376D01*
X71113216Y-106358456D01*
X70965646Y-106259853D01*
X70840147Y-106134354D01*
X70741544Y-105986784D01*
X70673624Y-105822812D01*
X70639000Y-105648741D01*
X70639000Y-105471259D01*
X70673624Y-105297188D01*
X70741544Y-105133216D01*
X70840147Y-104985646D01*
X70965646Y-104860147D01*
X71113216Y-104761544D01*
X71277188Y-104693624D01*
X71426488Y-104663927D01*
X71451258Y-104659000D01*
X71628742Y-104659000D01*
X71653512Y-104663927D01*
G37*
G36*
X74193512Y-104663927D02*
G01*
X74342812Y-104693624D01*
X74506784Y-104761544D01*
X74654354Y-104860147D01*
X74779853Y-104985646D01*
X74878456Y-105133216D01*
X74946376Y-105297188D01*
X74981000Y-105471259D01*
X74981000Y-105648741D01*
X74946376Y-105822812D01*
X74878456Y-105986784D01*
X74779853Y-106134354D01*
X74654354Y-106259853D01*
X74506784Y-106358456D01*
X74342812Y-106426376D01*
X74193512Y-106456073D01*
X74168742Y-106461000D01*
X73991258Y-106461000D01*
X73966488Y-106456073D01*
X73817188Y-106426376D01*
X73653216Y-106358456D01*
X73505646Y-106259853D01*
X73380147Y-106134354D01*
X73281544Y-105986784D01*
X73213624Y-105822812D01*
X73179000Y-105648741D01*
X73179000Y-105471259D01*
X73213624Y-105297188D01*
X73281544Y-105133216D01*
X73380147Y-104985646D01*
X73505646Y-104860147D01*
X73653216Y-104761544D01*
X73817188Y-104693624D01*
X73966488Y-104663927D01*
X73991258Y-104659000D01*
X74168742Y-104659000D01*
X74193512Y-104663927D01*
G37*
G36*
X76733512Y-104663927D02*
G01*
X76882812Y-104693624D01*
X77046784Y-104761544D01*
X77194354Y-104860147D01*
X77319853Y-104985646D01*
X77418456Y-105133216D01*
X77486376Y-105297188D01*
X77521000Y-105471259D01*
X77521000Y-105648741D01*
X77486376Y-105822812D01*
X77418456Y-105986784D01*
X77319853Y-106134354D01*
X77194354Y-106259853D01*
X77046784Y-106358456D01*
X76882812Y-106426376D01*
X76733512Y-106456073D01*
X76708742Y-106461000D01*
X76531258Y-106461000D01*
X76506488Y-106456073D01*
X76357188Y-106426376D01*
X76193216Y-106358456D01*
X76045646Y-106259853D01*
X75920147Y-106134354D01*
X75821544Y-105986784D01*
X75753624Y-105822812D01*
X75719000Y-105648741D01*
X75719000Y-105471259D01*
X75753624Y-105297188D01*
X75821544Y-105133216D01*
X75920147Y-104985646D01*
X76045646Y-104860147D01*
X76193216Y-104761544D01*
X76357188Y-104693624D01*
X76506488Y-104663927D01*
X76531258Y-104659000D01*
X76708742Y-104659000D01*
X76733512Y-104663927D01*
G37*
G36*
X66923512Y-104643927D02*
G01*
X67072812Y-104673624D01*
X67236784Y-104741544D01*
X67384354Y-104840147D01*
X67509853Y-104965646D01*
X67608456Y-105113216D01*
X67676376Y-105277188D01*
X67711000Y-105451259D01*
X67711000Y-105628741D01*
X67676376Y-105802812D01*
X67608456Y-105966784D01*
X67509853Y-106114354D01*
X67384354Y-106239853D01*
X67236784Y-106338456D01*
X67072812Y-106406376D01*
X66923512Y-106436073D01*
X66898742Y-106441000D01*
X66721258Y-106441000D01*
X66696488Y-106436073D01*
X66547188Y-106406376D01*
X66383216Y-106338456D01*
X66235646Y-106239853D01*
X66110147Y-106114354D01*
X66011544Y-105966784D01*
X65943624Y-105802812D01*
X65909000Y-105628741D01*
X65909000Y-105451259D01*
X65943624Y-105277188D01*
X66011544Y-105113216D01*
X66110147Y-104965646D01*
X66235646Y-104840147D01*
X66383216Y-104741544D01*
X66547188Y-104673624D01*
X66696488Y-104643927D01*
X66721258Y-104639000D01*
X66898742Y-104639000D01*
X66923512Y-104643927D01*
G37*
G36*
X64383512Y-104643927D02*
G01*
X64532812Y-104673624D01*
X64696784Y-104741544D01*
X64844354Y-104840147D01*
X64969853Y-104965646D01*
X65068456Y-105113216D01*
X65136376Y-105277188D01*
X65171000Y-105451259D01*
X65171000Y-105628741D01*
X65136376Y-105802812D01*
X65068456Y-105966784D01*
X64969853Y-106114354D01*
X64844354Y-106239853D01*
X64696784Y-106338456D01*
X64532812Y-106406376D01*
X64383512Y-106436073D01*
X64358742Y-106441000D01*
X64181258Y-106441000D01*
X64156488Y-106436073D01*
X64007188Y-106406376D01*
X63843216Y-106338456D01*
X63695646Y-106239853D01*
X63570147Y-106114354D01*
X63471544Y-105966784D01*
X63403624Y-105802812D01*
X63369000Y-105628741D01*
X63369000Y-105451259D01*
X63403624Y-105277188D01*
X63471544Y-105113216D01*
X63570147Y-104965646D01*
X63695646Y-104840147D01*
X63843216Y-104741544D01*
X64007188Y-104673624D01*
X64156488Y-104643927D01*
X64181258Y-104639000D01*
X64358742Y-104639000D01*
X64383512Y-104643927D01*
G37*
G36*
X61843512Y-104643927D02*
G01*
X61992812Y-104673624D01*
X62156784Y-104741544D01*
X62304354Y-104840147D01*
X62429853Y-104965646D01*
X62528456Y-105113216D01*
X62596376Y-105277188D01*
X62631000Y-105451259D01*
X62631000Y-105628741D01*
X62596376Y-105802812D01*
X62528456Y-105966784D01*
X62429853Y-106114354D01*
X62304354Y-106239853D01*
X62156784Y-106338456D01*
X61992812Y-106406376D01*
X61843512Y-106436073D01*
X61818742Y-106441000D01*
X61641258Y-106441000D01*
X61616488Y-106436073D01*
X61467188Y-106406376D01*
X61303216Y-106338456D01*
X61155646Y-106239853D01*
X61030147Y-106114354D01*
X60931544Y-105966784D01*
X60863624Y-105802812D01*
X60829000Y-105628741D01*
X60829000Y-105451259D01*
X60863624Y-105277188D01*
X60931544Y-105113216D01*
X61030147Y-104965646D01*
X61155646Y-104840147D01*
X61303216Y-104741544D01*
X61467188Y-104673624D01*
X61616488Y-104643927D01*
X61641258Y-104639000D01*
X61818742Y-104639000D01*
X61843512Y-104643927D01*
G37*
G36*
X77521000Y-103921000D02*
G01*
X75719000Y-103921000D01*
X75719000Y-102119000D01*
X77521000Y-102119000D01*
X77521000Y-103921000D01*
G37*
G36*
X74193512Y-102123927D02*
G01*
X74342812Y-102153624D01*
X74506784Y-102221544D01*
X74654354Y-102320147D01*
X74779853Y-102445646D01*
X74878456Y-102593216D01*
X74946376Y-102757188D01*
X74981000Y-102931259D01*
X74981000Y-103108741D01*
X74946376Y-103282812D01*
X74878456Y-103446784D01*
X74779853Y-103594354D01*
X74654354Y-103719853D01*
X74506784Y-103818456D01*
X74342812Y-103886376D01*
X74193512Y-103916073D01*
X74168742Y-103921000D01*
X73991258Y-103921000D01*
X73966488Y-103916073D01*
X73817188Y-103886376D01*
X73653216Y-103818456D01*
X73505646Y-103719853D01*
X73380147Y-103594354D01*
X73281544Y-103446784D01*
X73213624Y-103282812D01*
X73179000Y-103108741D01*
X73179000Y-102931259D01*
X73213624Y-102757188D01*
X73281544Y-102593216D01*
X73380147Y-102445646D01*
X73505646Y-102320147D01*
X73653216Y-102221544D01*
X73817188Y-102153624D01*
X73966488Y-102123927D01*
X73991258Y-102119000D01*
X74168742Y-102119000D01*
X74193512Y-102123927D01*
G37*
G36*
X71653512Y-102123927D02*
G01*
X71802812Y-102153624D01*
X71966784Y-102221544D01*
X72114354Y-102320147D01*
X72239853Y-102445646D01*
X72338456Y-102593216D01*
X72406376Y-102757188D01*
X72441000Y-102931259D01*
X72441000Y-103108741D01*
X72406376Y-103282812D01*
X72338456Y-103446784D01*
X72239853Y-103594354D01*
X72114354Y-103719853D01*
X71966784Y-103818456D01*
X71802812Y-103886376D01*
X71653512Y-103916073D01*
X71628742Y-103921000D01*
X71451258Y-103921000D01*
X71426488Y-103916073D01*
X71277188Y-103886376D01*
X71113216Y-103818456D01*
X70965646Y-103719853D01*
X70840147Y-103594354D01*
X70741544Y-103446784D01*
X70673624Y-103282812D01*
X70639000Y-103108741D01*
X70639000Y-102931259D01*
X70673624Y-102757188D01*
X70741544Y-102593216D01*
X70840147Y-102445646D01*
X70965646Y-102320147D01*
X71113216Y-102221544D01*
X71277188Y-102153624D01*
X71426488Y-102123927D01*
X71451258Y-102119000D01*
X71628742Y-102119000D01*
X71653512Y-102123927D01*
G37*
G36*
X64383512Y-102103927D02*
G01*
X64532812Y-102133624D01*
X64696784Y-102201544D01*
X64844354Y-102300147D01*
X64969853Y-102425646D01*
X65068456Y-102573216D01*
X65136376Y-102737188D01*
X65171000Y-102911259D01*
X65171000Y-103088741D01*
X65136376Y-103262812D01*
X65068456Y-103426784D01*
X64969853Y-103574354D01*
X64844354Y-103699853D01*
X64696784Y-103798456D01*
X64532812Y-103866376D01*
X64383512Y-103896073D01*
X64358742Y-103901000D01*
X64181258Y-103901000D01*
X64156488Y-103896073D01*
X64007188Y-103866376D01*
X63843216Y-103798456D01*
X63695646Y-103699853D01*
X63570147Y-103574354D01*
X63471544Y-103426784D01*
X63403624Y-103262812D01*
X63369000Y-103088741D01*
X63369000Y-102911259D01*
X63403624Y-102737188D01*
X63471544Y-102573216D01*
X63570147Y-102425646D01*
X63695646Y-102300147D01*
X63843216Y-102201544D01*
X64007188Y-102133624D01*
X64156488Y-102103927D01*
X64181258Y-102099000D01*
X64358742Y-102099000D01*
X64383512Y-102103927D01*
G37*
G36*
X61843512Y-102103927D02*
G01*
X61992812Y-102133624D01*
X62156784Y-102201544D01*
X62304354Y-102300147D01*
X62429853Y-102425646D01*
X62528456Y-102573216D01*
X62596376Y-102737188D01*
X62631000Y-102911259D01*
X62631000Y-103088741D01*
X62596376Y-103262812D01*
X62528456Y-103426784D01*
X62429853Y-103574354D01*
X62304354Y-103699853D01*
X62156784Y-103798456D01*
X61992812Y-103866376D01*
X61843512Y-103896073D01*
X61818742Y-103901000D01*
X61641258Y-103901000D01*
X61616488Y-103896073D01*
X61467188Y-103866376D01*
X61303216Y-103798456D01*
X61155646Y-103699853D01*
X61030147Y-103574354D01*
X60931544Y-103426784D01*
X60863624Y-103262812D01*
X60829000Y-103088741D01*
X60829000Y-102911259D01*
X60863624Y-102737188D01*
X60931544Y-102573216D01*
X61030147Y-102425646D01*
X61155646Y-102300147D01*
X61303216Y-102201544D01*
X61467188Y-102133624D01*
X61616488Y-102103927D01*
X61641258Y-102099000D01*
X61818742Y-102099000D01*
X61843512Y-102103927D01*
G37*
G36*
X67711000Y-103901000D02*
G01*
X65909000Y-103901000D01*
X65909000Y-102099000D01*
X67711000Y-102099000D01*
X67711000Y-103901000D01*
G37*
G36*
X81458604Y-100918347D02*
G01*
X81495144Y-100929432D01*
X81528821Y-100947433D01*
X81558341Y-100971659D01*
X81582567Y-101001179D01*
X81600568Y-101034856D01*
X81611653Y-101071396D01*
X81616000Y-101115538D01*
X81616000Y-102064462D01*
X81611653Y-102108604D01*
X81600568Y-102145144D01*
X81582567Y-102178821D01*
X81558341Y-102208341D01*
X81528821Y-102232567D01*
X81495144Y-102250568D01*
X81458604Y-102261653D01*
X81414462Y-102266000D01*
X79065538Y-102266000D01*
X79021396Y-102261653D01*
X78984856Y-102250568D01*
X78951179Y-102232567D01*
X78921659Y-102208341D01*
X78897433Y-102178821D01*
X78879432Y-102145144D01*
X78868347Y-102108604D01*
X78864000Y-102064462D01*
X78864000Y-101115538D01*
X78868347Y-101071396D01*
X78879432Y-101034856D01*
X78897433Y-101001179D01*
X78921659Y-100971659D01*
X78951179Y-100947433D01*
X78984856Y-100929432D01*
X79021396Y-100918347D01*
X79065538Y-100914000D01*
X81414462Y-100914000D01*
X81458604Y-100918347D01*
G37*
G36*
X54611000Y-100851000D02*
G01*
X53209000Y-100851000D01*
X53209000Y-99199000D01*
X54611000Y-99199000D01*
X54611000Y-100851000D01*
G37*
G36*
X59111000Y-100851000D02*
G01*
X57709000Y-100851000D01*
X57709000Y-99199000D01*
X59111000Y-99199000D01*
X59111000Y-100851000D01*
G37*
G36*
X65841000Y-100841000D02*
G01*
X64439000Y-100841000D01*
X64439000Y-99189000D01*
X65841000Y-99189000D01*
X65841000Y-100841000D01*
G37*
G36*
X61341000Y-100841000D02*
G01*
X59939000Y-100841000D01*
X59939000Y-99189000D01*
X61341000Y-99189000D01*
X61341000Y-100841000D01*
G37*
G36*
X78199591Y-99690585D02*
G01*
X78233569Y-99700893D01*
X78264890Y-99717634D01*
X78292339Y-99740161D01*
X78314866Y-99767610D01*
X78331607Y-99798931D01*
X78341915Y-99832909D01*
X78346000Y-99874390D01*
X78346000Y-100475610D01*
X78341915Y-100517091D01*
X78331607Y-100551069D01*
X78314866Y-100582390D01*
X78292339Y-100609839D01*
X78264890Y-100632366D01*
X78233569Y-100649107D01*
X78199591Y-100659415D01*
X78158110Y-100663500D01*
X77481890Y-100663500D01*
X77440409Y-100659415D01*
X77406431Y-100649107D01*
X77375110Y-100632366D01*
X77347661Y-100609839D01*
X77325134Y-100582390D01*
X77308393Y-100551069D01*
X77298085Y-100517091D01*
X77294000Y-100475610D01*
X77294000Y-99874390D01*
X77298085Y-99832909D01*
X77308393Y-99798931D01*
X77325134Y-99767610D01*
X77347661Y-99740161D01*
X77375110Y-99717634D01*
X77406431Y-99700893D01*
X77440409Y-99690585D01*
X77481890Y-99686500D01*
X78158110Y-99686500D01*
X78199591Y-99690585D01*
G37*
G36*
X81458604Y-98118347D02*
G01*
X81495144Y-98129432D01*
X81528821Y-98147433D01*
X81558341Y-98171659D01*
X81582567Y-98201179D01*
X81600568Y-98234856D01*
X81611653Y-98271396D01*
X81616000Y-98315538D01*
X81616000Y-99264462D01*
X81611653Y-99308604D01*
X81600568Y-99345144D01*
X81582567Y-99378821D01*
X81558341Y-99408341D01*
X81528821Y-99432567D01*
X81495144Y-99450568D01*
X81458604Y-99461653D01*
X81414462Y-99466000D01*
X79065538Y-99466000D01*
X79021396Y-99461653D01*
X78984856Y-99450568D01*
X78951179Y-99432567D01*
X78921659Y-99408341D01*
X78897433Y-99378821D01*
X78879432Y-99345144D01*
X78868347Y-99308604D01*
X78864000Y-99264462D01*
X78864000Y-98315538D01*
X78868347Y-98271396D01*
X78879432Y-98234856D01*
X78897433Y-98201179D01*
X78921659Y-98171659D01*
X78951179Y-98147433D01*
X78984856Y-98129432D01*
X79021396Y-98118347D01*
X79065538Y-98114000D01*
X81414462Y-98114000D01*
X81458604Y-98118347D01*
G37*
G36*
X78199591Y-98115585D02*
G01*
X78233569Y-98125893D01*
X78264890Y-98142634D01*
X78292339Y-98165161D01*
X78314866Y-98192610D01*
X78331607Y-98223931D01*
X78341915Y-98257909D01*
X78346000Y-98299390D01*
X78346000Y-98900610D01*
X78341915Y-98942091D01*
X78331607Y-98976069D01*
X78314866Y-99007390D01*
X78292339Y-99034839D01*
X78264890Y-99057366D01*
X78233569Y-99074107D01*
X78199591Y-99084415D01*
X78158110Y-99088500D01*
X77481890Y-99088500D01*
X77440409Y-99084415D01*
X77406431Y-99074107D01*
X77375110Y-99057366D01*
X77347661Y-99034839D01*
X77325134Y-99007390D01*
X77308393Y-98976069D01*
X77298085Y-98942091D01*
X77294000Y-98900610D01*
X77294000Y-98299390D01*
X77298085Y-98257909D01*
X77308393Y-98223931D01*
X77325134Y-98192610D01*
X77347661Y-98165161D01*
X77375110Y-98142634D01*
X77406431Y-98125893D01*
X77440409Y-98115585D01*
X77481890Y-98111500D01*
X78158110Y-98111500D01*
X78199591Y-98115585D01*
G37*
G36*
X84581000Y-98811000D02*
G01*
X82679000Y-98811000D01*
X82679000Y-94309000D01*
X84581000Y-94309000D01*
X84581000Y-98811000D01*
G37*
G36*
X76671000Y-98701000D02*
G01*
X74569000Y-98701000D01*
X74569000Y-97099000D01*
X76671000Y-97099000D01*
X76671000Y-98701000D01*
G37*
G36*
X89616424Y-94522760D02*
G01*
X89616427Y-94522761D01*
X89616428Y-94522761D01*
X89795692Y-94577140D01*
X89795695Y-94577142D01*
X89795696Y-94577142D01*
X89960903Y-94665446D01*
X90105712Y-94784288D01*
X90224554Y-94929097D01*
X90312858Y-95094303D01*
X90312860Y-95094307D01*
X90358556Y-95244948D01*
X90367240Y-95273575D01*
X90381000Y-95413282D01*
X90381000Y-97706718D01*
X90367240Y-97846425D01*
X90367239Y-97846428D01*
X90367239Y-97846429D01*
X90312860Y-98025693D01*
X90312858Y-98025696D01*
X90312858Y-98025697D01*
X90224554Y-98190903D01*
X90105712Y-98335712D01*
X89960903Y-98454554D01*
X89795697Y-98542858D01*
X89795693Y-98542860D01*
X89616429Y-98597239D01*
X89616428Y-98597239D01*
X89616425Y-98597240D01*
X89430000Y-98615601D01*
X89243576Y-98597240D01*
X89243573Y-98597239D01*
X89243572Y-98597239D01*
X89064308Y-98542860D01*
X89064304Y-98542858D01*
X88899098Y-98454554D01*
X88754289Y-98335712D01*
X88635447Y-98190903D01*
X88547143Y-98025697D01*
X88547143Y-98025696D01*
X88547141Y-98025693D01*
X88492762Y-97846429D01*
X88492762Y-97846428D01*
X88492761Y-97846425D01*
X88479001Y-97706718D01*
X88479000Y-95413283D01*
X88492760Y-95273576D01*
X88492761Y-95273572D01*
X88547140Y-95094308D01*
X88547143Y-95094303D01*
X88635446Y-94929097D01*
X88754288Y-94784288D01*
X88899097Y-94665446D01*
X89064303Y-94577142D01*
X89064304Y-94577142D01*
X89064307Y-94577140D01*
X89243571Y-94522761D01*
X89243572Y-94522761D01*
X89243575Y-94522760D01*
X89430000Y-94504399D01*
X89616424Y-94522760D01*
G37*
G36*
X70371000Y-97551000D02*
G01*
X68269000Y-97551000D01*
X68269000Y-93649000D01*
X70371000Y-93649000D01*
X70371000Y-97551000D01*
G37*
G36*
X81368604Y-95598347D02*
G01*
X81405144Y-95609432D01*
X81438821Y-95627433D01*
X81468341Y-95651659D01*
X81492567Y-95681179D01*
X81510568Y-95714856D01*
X81521653Y-95751396D01*
X81526000Y-95795538D01*
X81526000Y-96744462D01*
X81521653Y-96788604D01*
X81510568Y-96825144D01*
X81492567Y-96858821D01*
X81468341Y-96888341D01*
X81438821Y-96912567D01*
X81405144Y-96930568D01*
X81368604Y-96941653D01*
X81324462Y-96946000D01*
X78975538Y-96946000D01*
X78931396Y-96941653D01*
X78894856Y-96930568D01*
X78861179Y-96912567D01*
X78831659Y-96888341D01*
X78807433Y-96858821D01*
X78789432Y-96825144D01*
X78778347Y-96788604D01*
X78774000Y-96744462D01*
X78774000Y-95795538D01*
X78778347Y-95751396D01*
X78789432Y-95714856D01*
X78807433Y-95681179D01*
X78831659Y-95651659D01*
X78861179Y-95627433D01*
X78894856Y-95609432D01*
X78931396Y-95598347D01*
X78975538Y-95594000D01*
X81324462Y-95594000D01*
X81368604Y-95598347D01*
G37*
G36*
X76671000Y-96401000D02*
G01*
X74569000Y-96401000D01*
X74569000Y-94799000D01*
X76671000Y-94799000D01*
X76671000Y-96401000D01*
G37*
G36*
X67649591Y-95163085D02*
G01*
X67683569Y-95173393D01*
X67714890Y-95190134D01*
X67742339Y-95212661D01*
X67764866Y-95240110D01*
X67781607Y-95271431D01*
X67791915Y-95305409D01*
X67796000Y-95346890D01*
X67796000Y-95948110D01*
X67791915Y-95989591D01*
X67781607Y-96023569D01*
X67764866Y-96054890D01*
X67742339Y-96082339D01*
X67714890Y-96104866D01*
X67683569Y-96121607D01*
X67649591Y-96131915D01*
X67608110Y-96136000D01*
X66931890Y-96136000D01*
X66890409Y-96131915D01*
X66856431Y-96121607D01*
X66825110Y-96104866D01*
X66797661Y-96082339D01*
X66775134Y-96054890D01*
X66758393Y-96023569D01*
X66748085Y-95989591D01*
X66744000Y-95948110D01*
X66744000Y-95346890D01*
X66748085Y-95305409D01*
X66758393Y-95271431D01*
X66775134Y-95240110D01*
X66797661Y-95212661D01*
X66825110Y-95190134D01*
X66856431Y-95173393D01*
X66890409Y-95163085D01*
X66931890Y-95159000D01*
X67608110Y-95159000D01*
X67649591Y-95163085D01*
G37*
G36*
X78159591Y-94380585D02*
G01*
X78193569Y-94390893D01*
X78224890Y-94407634D01*
X78252339Y-94430161D01*
X78274866Y-94457610D01*
X78291607Y-94488931D01*
X78301915Y-94522909D01*
X78306000Y-94564390D01*
X78306000Y-95165610D01*
X78301915Y-95207091D01*
X78291607Y-95241069D01*
X78274866Y-95272390D01*
X78252339Y-95299839D01*
X78224890Y-95322366D01*
X78193569Y-95339107D01*
X78159591Y-95349415D01*
X78118110Y-95353500D01*
X77441890Y-95353500D01*
X77400409Y-95349415D01*
X77366431Y-95339107D01*
X77335110Y-95322366D01*
X77307661Y-95299839D01*
X77285134Y-95272390D01*
X77268393Y-95241069D01*
X77258085Y-95207091D01*
X77254000Y-95165610D01*
X77254000Y-94564390D01*
X77258085Y-94522909D01*
X77268393Y-94488931D01*
X77285134Y-94457610D01*
X77307661Y-94430161D01*
X77335110Y-94407634D01*
X77366431Y-94390893D01*
X77400409Y-94380585D01*
X77441890Y-94376500D01*
X78118110Y-94376500D01*
X78159591Y-94380585D01*
G37*
G36*
X67649591Y-93588085D02*
G01*
X67683569Y-93598393D01*
X67714890Y-93615134D01*
X67742339Y-93637661D01*
X67764866Y-93665110D01*
X67781607Y-93696431D01*
X67791915Y-93730409D01*
X67796000Y-93771890D01*
X67796000Y-94373110D01*
X67791915Y-94414591D01*
X67781607Y-94448569D01*
X67764866Y-94479890D01*
X67742339Y-94507339D01*
X67714890Y-94529866D01*
X67683569Y-94546607D01*
X67649591Y-94556915D01*
X67608110Y-94561000D01*
X66931890Y-94561000D01*
X66890409Y-94556915D01*
X66856431Y-94546607D01*
X66825110Y-94529866D01*
X66797661Y-94507339D01*
X66775134Y-94479890D01*
X66758393Y-94448569D01*
X66748085Y-94414591D01*
X66744000Y-94373110D01*
X66744000Y-93771890D01*
X66748085Y-93730409D01*
X66758393Y-93696431D01*
X66775134Y-93665110D01*
X66797661Y-93637661D01*
X66825110Y-93615134D01*
X66856431Y-93598393D01*
X66890409Y-93588085D01*
X66931890Y-93584000D01*
X67608110Y-93584000D01*
X67649591Y-93588085D01*
G37*
G36*
X81368604Y-92798347D02*
G01*
X81405144Y-92809432D01*
X81438821Y-92827433D01*
X81468341Y-92851659D01*
X81492567Y-92881179D01*
X81510568Y-92914856D01*
X81521653Y-92951396D01*
X81526000Y-92995538D01*
X81526000Y-93944462D01*
X81521653Y-93988604D01*
X81510568Y-94025144D01*
X81492567Y-94058821D01*
X81468341Y-94088341D01*
X81438821Y-94112567D01*
X81405144Y-94130568D01*
X81368604Y-94141653D01*
X81324462Y-94146000D01*
X78975538Y-94146000D01*
X78931396Y-94141653D01*
X78894856Y-94130568D01*
X78861179Y-94112567D01*
X78831659Y-94088341D01*
X78807433Y-94058821D01*
X78789432Y-94025144D01*
X78778347Y-93988604D01*
X78774000Y-93944462D01*
X78774000Y-92995538D01*
X78778347Y-92951396D01*
X78789432Y-92914856D01*
X78807433Y-92881179D01*
X78831659Y-92851659D01*
X78861179Y-92827433D01*
X78894856Y-92809432D01*
X78931396Y-92798347D01*
X78975538Y-92794000D01*
X81324462Y-92794000D01*
X81368604Y-92798347D01*
G37*
G36*
X76671000Y-94101000D02*
G01*
X74569000Y-94101000D01*
X74569000Y-92499000D01*
X76671000Y-92499000D01*
X76671000Y-94101000D01*
G37*
G36*
X78159591Y-92805585D02*
G01*
X78193569Y-92815893D01*
X78224890Y-92832634D01*
X78252339Y-92855161D01*
X78274866Y-92882610D01*
X78291607Y-92913931D01*
X78301915Y-92947909D01*
X78306000Y-92989390D01*
X78306000Y-93590610D01*
X78301915Y-93632091D01*
X78291607Y-93666069D01*
X78274866Y-93697390D01*
X78252339Y-93724839D01*
X78224890Y-93747366D01*
X78193569Y-93764107D01*
X78159591Y-93774415D01*
X78118110Y-93778500D01*
X77441890Y-93778500D01*
X77400409Y-93774415D01*
X77366431Y-93764107D01*
X77335110Y-93747366D01*
X77307661Y-93724839D01*
X77285134Y-93697390D01*
X77268393Y-93666069D01*
X77258085Y-93632091D01*
X77254000Y-93590610D01*
X77254000Y-92989390D01*
X77258085Y-92947909D01*
X77268393Y-92913931D01*
X77285134Y-92882610D01*
X77307661Y-92855161D01*
X77335110Y-92832634D01*
X77366431Y-92815893D01*
X77400409Y-92805585D01*
X77441890Y-92801500D01*
X78118110Y-92801500D01*
X78159591Y-92805585D01*
G37*
G36*
X54611000Y-92901000D02*
G01*
X53209000Y-92901000D01*
X53209000Y-91249000D01*
X54611000Y-91249000D01*
X54611000Y-92901000D01*
G37*
G36*
X59111000Y-92901000D02*
G01*
X57709000Y-92901000D01*
X57709000Y-91249000D01*
X59111000Y-91249000D01*
X59111000Y-92901000D01*
G37*
G36*
X65841000Y-92891000D02*
G01*
X64439000Y-92891000D01*
X64439000Y-91239000D01*
X65841000Y-91239000D01*
X65841000Y-92891000D01*
G37*
G36*
X61341000Y-92891000D02*
G01*
X59939000Y-92891000D01*
X59939000Y-91239000D01*
X61341000Y-91239000D01*
X61341000Y-92891000D01*
G37*
G36*
X87916425Y-90822760D02*
G01*
X87916428Y-90822761D01*
X87916429Y-90822761D01*
X88095693Y-90877140D01*
X88095696Y-90877142D01*
X88095697Y-90877142D01*
X88260903Y-90965446D01*
X88405712Y-91084288D01*
X88524554Y-91229097D01*
X88612858Y-91394303D01*
X88612860Y-91394307D01*
X88667239Y-91573571D01*
X88667240Y-91573575D01*
X88685601Y-91760000D01*
X88667240Y-91946425D01*
X88667239Y-91946428D01*
X88667239Y-91946429D01*
X88612860Y-92125693D01*
X88612858Y-92125696D01*
X88612858Y-92125697D01*
X88524554Y-92290903D01*
X88405712Y-92435712D01*
X88260903Y-92554554D01*
X88095697Y-92642858D01*
X88095693Y-92642860D01*
X87916429Y-92697239D01*
X87916428Y-92697239D01*
X87916425Y-92697240D01*
X87776718Y-92711000D01*
X85483282Y-92711000D01*
X85343575Y-92697240D01*
X85343572Y-92697239D01*
X85343571Y-92697239D01*
X85164307Y-92642860D01*
X85164303Y-92642858D01*
X84999097Y-92554554D01*
X84854288Y-92435712D01*
X84735446Y-92290903D01*
X84647142Y-92125697D01*
X84647142Y-92125696D01*
X84647140Y-92125693D01*
X84592761Y-91946429D01*
X84592761Y-91946428D01*
X84592760Y-91946425D01*
X84574399Y-91760000D01*
X84592760Y-91573575D01*
X84592761Y-91573571D01*
X84647140Y-91394307D01*
X84647142Y-91394303D01*
X84735446Y-91229097D01*
X84854288Y-91084288D01*
X84999097Y-90965446D01*
X85164303Y-90877142D01*
X85164304Y-90877142D01*
X85164307Y-90877140D01*
X85343571Y-90822761D01*
X85343572Y-90822761D01*
X85343575Y-90822760D01*
X85483282Y-90809000D01*
X87776718Y-90809000D01*
X87916425Y-90822760D01*
G37*
G36*
X65677091Y-89718085D02*
G01*
X65711069Y-89728393D01*
X65742390Y-89745134D01*
X65769839Y-89767661D01*
X65792366Y-89795110D01*
X65809107Y-89826431D01*
X65819415Y-89860409D01*
X65823500Y-89901890D01*
X65823500Y-90578110D01*
X65819415Y-90619591D01*
X65809107Y-90653569D01*
X65792366Y-90684890D01*
X65769839Y-90712339D01*
X65742390Y-90734866D01*
X65711069Y-90751607D01*
X65677091Y-90761915D01*
X65635610Y-90766000D01*
X65034390Y-90766000D01*
X64992909Y-90761915D01*
X64958931Y-90751607D01*
X64927610Y-90734866D01*
X64900161Y-90712339D01*
X64877634Y-90684890D01*
X64860893Y-90653569D01*
X64850585Y-90619591D01*
X64846500Y-90578110D01*
X64846500Y-89901890D01*
X64850585Y-89860409D01*
X64860893Y-89826431D01*
X64877634Y-89795110D01*
X64900161Y-89767661D01*
X64927610Y-89745134D01*
X64958931Y-89728393D01*
X64992909Y-89718085D01*
X65034390Y-89714000D01*
X65635610Y-89714000D01*
X65677091Y-89718085D01*
G37*
G36*
X64102091Y-89718085D02*
G01*
X64136069Y-89728393D01*
X64167390Y-89745134D01*
X64194839Y-89767661D01*
X64217366Y-89795110D01*
X64234107Y-89826431D01*
X64244415Y-89860409D01*
X64248500Y-89901890D01*
X64248500Y-90578110D01*
X64244415Y-90619591D01*
X64234107Y-90653569D01*
X64217366Y-90684890D01*
X64194839Y-90712339D01*
X64167390Y-90734866D01*
X64136069Y-90751607D01*
X64102091Y-90761915D01*
X64060610Y-90766000D01*
X63459390Y-90766000D01*
X63417909Y-90761915D01*
X63383931Y-90751607D01*
X63352610Y-90734866D01*
X63325161Y-90712339D01*
X63302634Y-90684890D01*
X63285893Y-90653569D01*
X63275585Y-90619591D01*
X63271500Y-90578110D01*
X63271500Y-89901890D01*
X63275585Y-89860409D01*
X63285893Y-89826431D01*
X63302634Y-89795110D01*
X63325161Y-89767661D01*
X63352610Y-89745134D01*
X63383931Y-89728393D01*
X63417909Y-89718085D01*
X63459390Y-89714000D01*
X64060610Y-89714000D01*
X64102091Y-89718085D01*
G37*
G36*
X60889499Y-89708445D02*
G01*
X60926995Y-89719820D01*
X60961554Y-89738292D01*
X60991847Y-89763153D01*
X61016708Y-89793446D01*
X61035180Y-89828005D01*
X61046555Y-89865501D01*
X61051000Y-89910638D01*
X61051000Y-90549362D01*
X61046555Y-90594499D01*
X61035180Y-90631995D01*
X61016708Y-90666554D01*
X60991847Y-90696847D01*
X60961554Y-90721708D01*
X60926995Y-90740180D01*
X60889499Y-90751555D01*
X60844362Y-90756000D01*
X60105638Y-90756000D01*
X60060501Y-90751555D01*
X60023005Y-90740180D01*
X59988446Y-90721708D01*
X59958153Y-90696847D01*
X59933292Y-90666554D01*
X59914820Y-90631995D01*
X59903445Y-90594499D01*
X59899000Y-90549362D01*
X59899000Y-89910638D01*
X59903445Y-89865501D01*
X59914820Y-89828005D01*
X59933292Y-89793446D01*
X59958153Y-89763153D01*
X59988446Y-89738292D01*
X60023005Y-89719820D01*
X60060501Y-89708445D01*
X60105638Y-89704000D01*
X60844362Y-89704000D01*
X60889499Y-89708445D01*
G37*
G36*
X62639499Y-89708445D02*
G01*
X62676995Y-89719820D01*
X62711554Y-89738292D01*
X62741847Y-89763153D01*
X62766708Y-89793446D01*
X62785180Y-89828005D01*
X62796555Y-89865501D01*
X62801000Y-89910638D01*
X62801000Y-90549362D01*
X62796555Y-90594499D01*
X62785180Y-90631995D01*
X62766708Y-90666554D01*
X62741847Y-90696847D01*
X62711554Y-90721708D01*
X62676995Y-90740180D01*
X62639499Y-90751555D01*
X62594362Y-90756000D01*
X61855638Y-90756000D01*
X61810501Y-90751555D01*
X61773005Y-90740180D01*
X61738446Y-90721708D01*
X61708153Y-90696847D01*
X61683292Y-90666554D01*
X61664820Y-90631995D01*
X61653445Y-90594499D01*
X61649000Y-90549362D01*
X61649000Y-89910638D01*
X61653445Y-89865501D01*
X61664820Y-89828005D01*
X61683292Y-89793446D01*
X61708153Y-89763153D01*
X61738446Y-89738292D01*
X61773005Y-89719820D01*
X61810501Y-89708445D01*
X61855638Y-89704000D01*
X62594362Y-89704000D01*
X62639499Y-89708445D01*
G37*
G36*
X59029499Y-89688445D02*
G01*
X59066995Y-89699820D01*
X59101554Y-89718292D01*
X59131847Y-89743153D01*
X59156708Y-89773446D01*
X59175180Y-89808005D01*
X59186555Y-89845501D01*
X59191000Y-89890638D01*
X59191000Y-90529362D01*
X59186555Y-90574499D01*
X59175180Y-90611995D01*
X59156708Y-90646554D01*
X59131847Y-90676847D01*
X59101554Y-90701708D01*
X59066995Y-90720180D01*
X59029499Y-90731555D01*
X58984362Y-90736000D01*
X58245638Y-90736000D01*
X58200501Y-90731555D01*
X58163005Y-90720180D01*
X58128446Y-90701708D01*
X58098153Y-90676847D01*
X58073292Y-90646554D01*
X58054820Y-90611995D01*
X58043445Y-90574499D01*
X58039000Y-90529362D01*
X58039000Y-89890638D01*
X58043445Y-89845501D01*
X58054820Y-89808005D01*
X58073292Y-89773446D01*
X58098153Y-89743153D01*
X58128446Y-89718292D01*
X58163005Y-89699820D01*
X58200501Y-89688445D01*
X58245638Y-89684000D01*
X58984362Y-89684000D01*
X59029499Y-89688445D01*
G37*
G36*
X57279499Y-89688445D02*
G01*
X57316995Y-89699820D01*
X57351554Y-89718292D01*
X57381847Y-89743153D01*
X57406708Y-89773446D01*
X57425180Y-89808005D01*
X57436555Y-89845501D01*
X57441000Y-89890638D01*
X57441000Y-90529362D01*
X57436555Y-90574499D01*
X57425180Y-90611995D01*
X57406708Y-90646554D01*
X57381847Y-90676847D01*
X57351554Y-90701708D01*
X57316995Y-90720180D01*
X57279499Y-90731555D01*
X57234362Y-90736000D01*
X56495638Y-90736000D01*
X56450501Y-90731555D01*
X56413005Y-90720180D01*
X56378446Y-90701708D01*
X56348153Y-90676847D01*
X56323292Y-90646554D01*
X56304820Y-90611995D01*
X56293445Y-90574499D01*
X56289000Y-90529362D01*
X56289000Y-89890638D01*
X56293445Y-89845501D01*
X56304820Y-89808005D01*
X56323292Y-89773446D01*
X56348153Y-89743153D01*
X56378446Y-89718292D01*
X56413005Y-89699820D01*
X56450501Y-89688445D01*
X56495638Y-89684000D01*
X57234362Y-89684000D01*
X57279499Y-89688445D01*
G37*
G36*
X55662091Y-89688085D02*
G01*
X55696069Y-89698393D01*
X55727390Y-89715134D01*
X55754839Y-89737661D01*
X55777366Y-89765110D01*
X55794107Y-89796431D01*
X55804415Y-89830409D01*
X55808500Y-89871890D01*
X55808500Y-90548110D01*
X55804415Y-90589591D01*
X55794107Y-90623569D01*
X55777366Y-90654890D01*
X55754839Y-90682339D01*
X55727390Y-90704866D01*
X55696069Y-90721607D01*
X55662091Y-90731915D01*
X55620610Y-90736000D01*
X55019390Y-90736000D01*
X54977909Y-90731915D01*
X54943931Y-90721607D01*
X54912610Y-90704866D01*
X54885161Y-90682339D01*
X54862634Y-90654890D01*
X54845893Y-90623569D01*
X54835585Y-90589591D01*
X54831500Y-90548110D01*
X54831500Y-89871890D01*
X54835585Y-89830409D01*
X54845893Y-89796431D01*
X54862634Y-89765110D01*
X54885161Y-89737661D01*
X54912610Y-89715134D01*
X54943931Y-89698393D01*
X54977909Y-89688085D01*
X55019390Y-89684000D01*
X55620610Y-89684000D01*
X55662091Y-89688085D01*
G37*
G36*
X54087091Y-89688085D02*
G01*
X54121069Y-89698393D01*
X54152390Y-89715134D01*
X54179839Y-89737661D01*
X54202366Y-89765110D01*
X54219107Y-89796431D01*
X54229415Y-89830409D01*
X54233500Y-89871890D01*
X54233500Y-90548110D01*
X54229415Y-90589591D01*
X54219107Y-90623569D01*
X54202366Y-90654890D01*
X54179839Y-90682339D01*
X54152390Y-90704866D01*
X54121069Y-90721607D01*
X54087091Y-90731915D01*
X54045610Y-90736000D01*
X53444390Y-90736000D01*
X53402909Y-90731915D01*
X53368931Y-90721607D01*
X53337610Y-90704866D01*
X53310161Y-90682339D01*
X53287634Y-90654890D01*
X53270893Y-90623569D01*
X53260585Y-90589591D01*
X53256500Y-90548110D01*
X53256500Y-89871890D01*
X53260585Y-89830409D01*
X53270893Y-89796431D01*
X53287634Y-89765110D01*
X53310161Y-89737661D01*
X53337610Y-89715134D01*
X53368931Y-89698393D01*
X53402909Y-89688085D01*
X53444390Y-89684000D01*
X54045610Y-89684000D01*
X54087091Y-89688085D01*
G37*
G36*
X86771552Y-87311331D02*
G01*
X86853627Y-87345328D01*
X86853629Y-87345329D01*
X86927496Y-87394686D01*
X86990314Y-87457504D01*
X87036535Y-87526677D01*
X87039672Y-87531373D01*
X87073669Y-87613448D01*
X87091000Y-87700579D01*
X87091000Y-87789421D01*
X87073669Y-87876552D01*
X87039672Y-87958627D01*
X87039671Y-87958629D01*
X86990314Y-88032496D01*
X86927496Y-88095314D01*
X86853629Y-88144671D01*
X86853628Y-88144672D01*
X86853627Y-88144672D01*
X86771552Y-88178669D01*
X86684421Y-88196000D01*
X86595579Y-88196000D01*
X86506054Y-88178193D01*
X86487257Y-88172490D01*
X86462871Y-88170088D01*
X86438485Y-88172489D01*
X86415036Y-88179602D01*
X86393425Y-88191153D01*
X86374483Y-88206698D01*
X86358937Y-88225639D01*
X86347386Y-88247250D01*
X86340272Y-88270699D01*
X86337870Y-88295085D01*
X86340271Y-88319471D01*
X86347384Y-88342920D01*
X86358935Y-88364531D01*
X86374480Y-88383473D01*
X86383570Y-88391712D01*
X86416367Y-88418628D01*
X86476530Y-88491937D01*
X86508589Y-88531000D01*
X86513345Y-88536796D01*
X86585398Y-88671598D01*
X86629772Y-88817879D01*
X86644754Y-88970000D01*
X86629772Y-89122121D01*
X86585398Y-89268402D01*
X86513345Y-89403204D01*
X86513343Y-89403207D01*
X86513342Y-89403208D01*
X86416369Y-89521369D01*
X86298204Y-89618345D01*
X86163402Y-89690398D01*
X86017121Y-89734772D01*
X85903118Y-89746000D01*
X85276882Y-89746000D01*
X85162879Y-89734772D01*
X85016598Y-89690398D01*
X84881796Y-89618345D01*
X84763631Y-89521369D01*
X84666658Y-89403208D01*
X84666657Y-89403207D01*
X84666655Y-89403204D01*
X84594602Y-89268402D01*
X84550228Y-89122121D01*
X84535246Y-88970000D01*
X84550228Y-88817879D01*
X84594602Y-88671598D01*
X84666655Y-88536796D01*
X84671412Y-88531000D01*
X84763631Y-88418631D01*
X84881792Y-88321658D01*
X84881793Y-88321657D01*
X84881796Y-88321655D01*
X85016598Y-88249602D01*
X85162879Y-88205228D01*
X85276882Y-88194000D01*
X85903118Y-88194000D01*
X86017121Y-88205228D01*
X86169336Y-88251402D01*
X86180561Y-88256052D01*
X86204595Y-88260833D01*
X86229099Y-88260833D01*
X86253132Y-88256054D01*
X86275771Y-88246677D01*
X86296146Y-88233064D01*
X86313473Y-88215737D01*
X86327088Y-88195363D01*
X86336466Y-88172725D01*
X86341247Y-88148691D01*
X86341247Y-88124187D01*
X86336468Y-88100154D01*
X86327091Y-88077515D01*
X86313478Y-88057140D01*
X86305238Y-88048048D01*
X86289685Y-88032495D01*
X86240328Y-87958627D01*
X86206331Y-87876552D01*
X86189000Y-87789421D01*
X86189000Y-87700579D01*
X86206331Y-87613448D01*
X86240328Y-87531373D01*
X86243466Y-87526677D01*
X86289686Y-87457504D01*
X86352504Y-87394686D01*
X86426371Y-87345329D01*
X86426373Y-87345328D01*
X86508448Y-87311331D01*
X86595579Y-87294000D01*
X86684421Y-87294000D01*
X86771552Y-87311331D01*
G37*
G36*
X89837715Y-88503058D02*
G01*
X89933753Y-88532191D01*
X89948935Y-88536796D01*
X89955722Y-88538855D01*
X90064468Y-88596981D01*
X90159790Y-88675210D01*
X90238019Y-88770532D01*
X90296145Y-88879278D01*
X90331942Y-88997285D01*
X90344028Y-89120000D01*
X90331942Y-89242715D01*
X90296145Y-89360722D01*
X90238019Y-89469468D01*
X90159790Y-89564790D01*
X90064468Y-89643019D01*
X89955722Y-89701145D01*
X89955719Y-89701146D01*
X89933753Y-89707809D01*
X89837715Y-89736942D01*
X89745746Y-89746000D01*
X89034254Y-89746000D01*
X88942285Y-89736942D01*
X88846247Y-89707809D01*
X88824281Y-89701146D01*
X88824278Y-89701145D01*
X88715532Y-89643019D01*
X88620210Y-89564790D01*
X88541981Y-89469468D01*
X88483855Y-89360722D01*
X88448058Y-89242715D01*
X88435972Y-89120000D01*
X88448058Y-88997285D01*
X88483855Y-88879278D01*
X88541981Y-88770532D01*
X88620210Y-88675210D01*
X88715532Y-88596981D01*
X88824278Y-88538855D01*
X88831066Y-88536796D01*
X88846247Y-88532191D01*
X88942285Y-88503058D01*
X89034254Y-88494000D01*
X89745746Y-88494000D01*
X89837715Y-88503058D01*
G37*
G36*
X56289651Y-85452251D02*
G01*
X56472410Y-85488604D01*
X56754674Y-85605521D01*
X57008705Y-85775259D01*
X57224741Y-85991295D01*
X57394479Y-86245326D01*
X57500382Y-86501000D01*
X57511396Y-86527591D01*
X57550071Y-86722020D01*
X57571000Y-86827240D01*
X57571000Y-87132760D01*
X57511396Y-87432410D01*
X57394479Y-87714674D01*
X57224741Y-87968705D01*
X57008705Y-88184741D01*
X56754674Y-88354479D01*
X56472410Y-88471396D01*
X56358772Y-88494000D01*
X56172761Y-88531000D01*
X55867239Y-88531000D01*
X55681228Y-88494000D01*
X55567590Y-88471396D01*
X55285326Y-88354479D01*
X55031295Y-88184741D01*
X54815259Y-87968705D01*
X54645521Y-87714674D01*
X54528604Y-87432410D01*
X54469000Y-87132760D01*
X54469000Y-86827240D01*
X54489930Y-86722020D01*
X54528604Y-86527591D01*
X54539618Y-86501000D01*
X54645521Y-86245326D01*
X54815259Y-85991295D01*
X55031295Y-85775259D01*
X55285326Y-85605521D01*
X55567590Y-85488604D01*
X55750349Y-85452251D01*
X55867239Y-85429000D01*
X56172761Y-85429000D01*
X56289651Y-85452251D01*
G37*
G36*
X71305355Y-86690083D02*
G01*
X71310029Y-86691501D01*
X71314330Y-86693800D01*
X71320702Y-86699029D01*
X71341076Y-86712643D01*
X71363715Y-86722020D01*
X71387749Y-86726800D01*
X71412253Y-86726800D01*
X71436286Y-86722019D01*
X71458925Y-86712642D01*
X71479298Y-86699029D01*
X71485670Y-86693800D01*
X71489971Y-86691501D01*
X71494645Y-86690083D01*
X71505641Y-86689000D01*
X71794359Y-86689000D01*
X71805355Y-86690083D01*
X71810029Y-86691501D01*
X71814330Y-86693800D01*
X71820702Y-86699029D01*
X71841076Y-86712643D01*
X71863715Y-86722020D01*
X71887749Y-86726800D01*
X71912253Y-86726800D01*
X71936286Y-86722019D01*
X71958925Y-86712642D01*
X71979298Y-86699029D01*
X71985670Y-86693800D01*
X71989971Y-86691501D01*
X71994645Y-86690083D01*
X72005641Y-86689000D01*
X72294359Y-86689000D01*
X72305355Y-86690083D01*
X72310029Y-86691501D01*
X72314330Y-86693800D01*
X72320702Y-86699029D01*
X72341076Y-86712643D01*
X72363715Y-86722020D01*
X72387749Y-86726800D01*
X72412253Y-86726800D01*
X72436286Y-86722019D01*
X72458925Y-86712642D01*
X72479298Y-86699029D01*
X72485670Y-86693800D01*
X72489971Y-86691501D01*
X72494645Y-86690083D01*
X72505641Y-86689000D01*
X72794359Y-86689000D01*
X72805355Y-86690083D01*
X72810029Y-86691501D01*
X72814330Y-86693800D01*
X72820702Y-86699029D01*
X72841076Y-86712643D01*
X72863715Y-86722020D01*
X72887749Y-86726800D01*
X72912253Y-86726800D01*
X72936286Y-86722019D01*
X72958925Y-86712642D01*
X72979298Y-86699029D01*
X72985670Y-86693800D01*
X72989971Y-86691501D01*
X72994645Y-86690083D01*
X73005641Y-86689000D01*
X73294359Y-86689000D01*
X73305355Y-86690083D01*
X73310029Y-86691501D01*
X73314330Y-86693800D01*
X73320702Y-86699029D01*
X73341076Y-86712643D01*
X73363715Y-86722020D01*
X73387749Y-86726800D01*
X73412253Y-86726800D01*
X73436286Y-86722019D01*
X73458925Y-86712642D01*
X73479298Y-86699029D01*
X73485670Y-86693800D01*
X73489971Y-86691501D01*
X73494645Y-86690083D01*
X73505641Y-86689000D01*
X73794359Y-86689000D01*
X73805355Y-86690083D01*
X73810029Y-86691501D01*
X73814330Y-86693800D01*
X73820702Y-86699029D01*
X73841076Y-86712643D01*
X73863715Y-86722020D01*
X73887749Y-86726800D01*
X73912253Y-86726800D01*
X73936286Y-86722019D01*
X73958925Y-86712642D01*
X73979298Y-86699029D01*
X73985670Y-86693800D01*
X73989971Y-86691501D01*
X73994645Y-86690083D01*
X74005641Y-86689000D01*
X74294359Y-86689000D01*
X74305355Y-86690083D01*
X74310029Y-86691501D01*
X74314331Y-86693800D01*
X74318104Y-86696896D01*
X74321200Y-86700669D01*
X74323499Y-86704971D01*
X74324917Y-86709645D01*
X74326000Y-86720641D01*
X74326000Y-87559359D01*
X74324917Y-87570355D01*
X74323499Y-87575029D01*
X74321200Y-87579331D01*
X74318104Y-87583104D01*
X74314331Y-87586200D01*
X74310029Y-87588499D01*
X74305355Y-87589917D01*
X74294359Y-87591000D01*
X74005641Y-87591000D01*
X73994645Y-87589917D01*
X73989971Y-87588499D01*
X73985670Y-87586200D01*
X73979298Y-87580971D01*
X73958924Y-87567357D01*
X73936285Y-87557980D01*
X73912251Y-87553200D01*
X73887747Y-87553200D01*
X73863714Y-87557981D01*
X73841075Y-87567358D01*
X73820702Y-87580971D01*
X73814330Y-87586200D01*
X73810029Y-87588499D01*
X73805355Y-87589917D01*
X73794359Y-87591000D01*
X73505641Y-87591000D01*
X73494645Y-87589917D01*
X73489971Y-87588499D01*
X73485670Y-87586200D01*
X73479298Y-87580971D01*
X73458924Y-87567357D01*
X73436285Y-87557980D01*
X73412251Y-87553200D01*
X73387747Y-87553200D01*
X73363714Y-87557981D01*
X73341075Y-87567358D01*
X73320702Y-87580971D01*
X73314330Y-87586200D01*
X73310029Y-87588499D01*
X73305355Y-87589917D01*
X73294359Y-87591000D01*
X73005641Y-87591000D01*
X72994645Y-87589917D01*
X72989971Y-87588499D01*
X72985670Y-87586200D01*
X72979298Y-87580971D01*
X72958924Y-87567357D01*
X72936285Y-87557980D01*
X72912251Y-87553200D01*
X72887747Y-87553200D01*
X72863714Y-87557981D01*
X72841075Y-87567358D01*
X72820702Y-87580971D01*
X72814330Y-87586200D01*
X72810029Y-87588499D01*
X72805355Y-87589917D01*
X72794359Y-87591000D01*
X72505641Y-87591000D01*
X72494645Y-87589917D01*
X72489971Y-87588499D01*
X72485670Y-87586200D01*
X72479298Y-87580971D01*
X72458924Y-87567357D01*
X72436285Y-87557980D01*
X72412251Y-87553200D01*
X72387747Y-87553200D01*
X72363714Y-87557981D01*
X72341075Y-87567358D01*
X72320702Y-87580971D01*
X72314330Y-87586200D01*
X72310029Y-87588499D01*
X72305355Y-87589917D01*
X72294359Y-87591000D01*
X72005641Y-87591000D01*
X71994645Y-87589917D01*
X71989971Y-87588499D01*
X71985670Y-87586200D01*
X71979298Y-87580971D01*
X71958924Y-87567357D01*
X71936285Y-87557980D01*
X71912251Y-87553200D01*
X71887747Y-87553200D01*
X71863714Y-87557981D01*
X71841075Y-87567358D01*
X71820702Y-87580971D01*
X71814330Y-87586200D01*
X71810029Y-87588499D01*
X71805355Y-87589917D01*
X71794359Y-87591000D01*
X71505641Y-87591000D01*
X71494645Y-87589917D01*
X71489971Y-87588499D01*
X71485670Y-87586200D01*
X71479298Y-87580971D01*
X71458924Y-87567357D01*
X71436285Y-87557980D01*
X71412251Y-87553200D01*
X71387747Y-87553200D01*
X71363714Y-87557981D01*
X71341075Y-87567358D01*
X71320702Y-87580971D01*
X71314330Y-87586200D01*
X71310029Y-87588499D01*
X71305355Y-87589917D01*
X71294359Y-87591000D01*
X71005641Y-87591000D01*
X70994645Y-87589917D01*
X70989971Y-87588499D01*
X70985669Y-87586200D01*
X70981896Y-87583104D01*
X70978800Y-87579331D01*
X70976501Y-87575029D01*
X70975083Y-87570355D01*
X70974000Y-87559359D01*
X70974000Y-86720641D01*
X70975083Y-86709645D01*
X70976501Y-86704971D01*
X70978800Y-86700669D01*
X70981896Y-86696896D01*
X70985669Y-86693800D01*
X70989971Y-86691501D01*
X70994645Y-86690083D01*
X71005641Y-86689000D01*
X71294359Y-86689000D01*
X71305355Y-86690083D01*
G37*
G36*
X67164499Y-86423445D02*
G01*
X67201995Y-86434820D01*
X67236554Y-86453292D01*
X67266847Y-86478153D01*
X67291708Y-86508446D01*
X67310180Y-86543005D01*
X67321555Y-86580501D01*
X67326000Y-86625638D01*
X67326000Y-87364362D01*
X67321555Y-87409499D01*
X67310180Y-87446995D01*
X67291708Y-87481554D01*
X67266847Y-87511847D01*
X67236554Y-87536708D01*
X67201995Y-87555180D01*
X67164499Y-87566555D01*
X67119362Y-87571000D01*
X66480638Y-87571000D01*
X66435501Y-87566555D01*
X66398005Y-87555180D01*
X66363446Y-87536708D01*
X66333153Y-87511847D01*
X66308292Y-87481554D01*
X66289820Y-87446995D01*
X66278445Y-87409499D01*
X66274000Y-87364362D01*
X66274000Y-86625638D01*
X66278445Y-86580501D01*
X66289820Y-86543005D01*
X66308292Y-86508446D01*
X66333153Y-86478153D01*
X66363446Y-86453292D01*
X66398005Y-86434820D01*
X66435501Y-86423445D01*
X66480638Y-86419000D01*
X67119362Y-86419000D01*
X67164499Y-86423445D01*
G37*
G36*
X65221000Y-87451000D02*
G01*
X63919000Y-87451000D01*
X63919000Y-86549000D01*
X65221000Y-86549000D01*
X65221000Y-87451000D01*
G37*
G36*
X78899499Y-86008445D02*
G01*
X78936995Y-86019820D01*
X78971554Y-86038292D01*
X79001847Y-86063153D01*
X79026708Y-86093446D01*
X79045180Y-86128005D01*
X79056555Y-86165501D01*
X79061000Y-86210638D01*
X79061000Y-86849362D01*
X79056555Y-86894499D01*
X79045180Y-86931995D01*
X79026708Y-86966554D01*
X79001847Y-86996847D01*
X78971554Y-87021708D01*
X78936995Y-87040180D01*
X78899499Y-87051555D01*
X78854362Y-87056000D01*
X78115638Y-87056000D01*
X78070501Y-87051555D01*
X78033005Y-87040180D01*
X77998446Y-87021708D01*
X77968153Y-86996847D01*
X77943292Y-86966554D01*
X77924820Y-86931995D01*
X77913445Y-86894499D01*
X77909000Y-86849362D01*
X77909000Y-86210638D01*
X77913445Y-86165501D01*
X77924820Y-86128005D01*
X77943292Y-86093446D01*
X77968153Y-86063153D01*
X77998446Y-86038292D01*
X78033005Y-86019820D01*
X78070501Y-86008445D01*
X78115638Y-86004000D01*
X78854362Y-86004000D01*
X78899499Y-86008445D01*
G37*
G36*
X77149499Y-86008445D02*
G01*
X77186995Y-86019820D01*
X77221554Y-86038292D01*
X77251847Y-86063153D01*
X77276708Y-86093446D01*
X77295180Y-86128005D01*
X77306555Y-86165501D01*
X77311000Y-86210638D01*
X77311000Y-86849362D01*
X77306555Y-86894499D01*
X77295180Y-86931995D01*
X77276708Y-86966554D01*
X77251847Y-86996847D01*
X77221554Y-87021708D01*
X77186995Y-87040180D01*
X77149499Y-87051555D01*
X77104362Y-87056000D01*
X76365638Y-87056000D01*
X76320501Y-87051555D01*
X76283005Y-87040180D01*
X76248446Y-87021708D01*
X76218153Y-86996847D01*
X76193292Y-86966554D01*
X76174820Y-86931995D01*
X76163445Y-86894499D01*
X76159000Y-86849362D01*
X76159000Y-86210638D01*
X76163445Y-86165501D01*
X76174820Y-86128005D01*
X76193292Y-86093446D01*
X76218153Y-86063153D01*
X76248446Y-86038292D01*
X76283005Y-86019820D01*
X76320501Y-86008445D01*
X76365638Y-86004000D01*
X77104362Y-86004000D01*
X77149499Y-86008445D01*
G37*
G36*
X86241000Y-86821000D02*
G01*
X84839000Y-86821000D01*
X84839000Y-83669000D01*
X86241000Y-83669000D01*
X86241000Y-86821000D01*
G37*
G36*
X62621000Y-86501000D02*
G01*
X61319000Y-86501000D01*
X61319000Y-85599000D01*
X62621000Y-85599000D01*
X62621000Y-86501000D01*
G37*
G36*
X74254124Y-82967499D02*
G01*
X74282387Y-82976073D01*
X74308434Y-82989996D01*
X74331267Y-83008733D01*
X74350004Y-83031566D01*
X74363927Y-83057613D01*
X74372501Y-83085876D01*
X74376000Y-83121408D01*
X74376000Y-86258592D01*
X74372501Y-86294124D01*
X74363927Y-86322387D01*
X74350004Y-86348434D01*
X74331267Y-86371267D01*
X74308434Y-86390004D01*
X74282387Y-86403927D01*
X74254124Y-86412501D01*
X74218592Y-86416000D01*
X71081408Y-86416000D01*
X71045876Y-86412501D01*
X71017613Y-86403927D01*
X70991566Y-86390004D01*
X70968733Y-86371267D01*
X70949996Y-86348434D01*
X70936073Y-86322387D01*
X70927499Y-86294124D01*
X70924000Y-86258592D01*
X70924000Y-83121408D01*
X70927499Y-83085876D01*
X70936073Y-83057613D01*
X70949996Y-83031566D01*
X70968733Y-83008733D01*
X70991566Y-82989996D01*
X71017613Y-82976073D01*
X71045876Y-82967499D01*
X71081408Y-82964000D01*
X74218592Y-82964000D01*
X74254124Y-82967499D01*
G37*
G36*
X70630355Y-83015083D02*
G01*
X70635029Y-83016501D01*
X70639331Y-83018800D01*
X70643104Y-83021896D01*
X70646200Y-83025669D01*
X70648499Y-83029971D01*
X70649917Y-83034645D01*
X70651000Y-83045641D01*
X70651000Y-83334359D01*
X70649917Y-83345355D01*
X70648499Y-83350029D01*
X70646200Y-83354330D01*
X70640971Y-83360702D01*
X70627357Y-83381076D01*
X70617980Y-83403715D01*
X70613200Y-83427749D01*
X70613200Y-83452253D01*
X70617981Y-83476286D01*
X70627358Y-83498925D01*
X70640971Y-83519298D01*
X70646200Y-83525670D01*
X70648499Y-83529971D01*
X70649917Y-83534645D01*
X70651000Y-83545641D01*
X70651000Y-83834359D01*
X70649917Y-83845355D01*
X70648499Y-83850029D01*
X70646200Y-83854330D01*
X70640971Y-83860702D01*
X70627357Y-83881076D01*
X70617980Y-83903715D01*
X70613200Y-83927749D01*
X70613200Y-83952253D01*
X70617981Y-83976286D01*
X70627358Y-83998925D01*
X70640971Y-84019298D01*
X70646200Y-84025670D01*
X70648499Y-84029971D01*
X70649917Y-84034645D01*
X70651000Y-84045641D01*
X70651000Y-84334359D01*
X70649917Y-84345355D01*
X70648499Y-84350029D01*
X70646200Y-84354330D01*
X70640971Y-84360702D01*
X70627357Y-84381076D01*
X70617980Y-84403715D01*
X70613200Y-84427749D01*
X70613200Y-84452253D01*
X70617981Y-84476286D01*
X70627358Y-84498925D01*
X70640971Y-84519298D01*
X70646200Y-84525670D01*
X70648499Y-84529971D01*
X70649917Y-84534645D01*
X70651000Y-84545641D01*
X70651000Y-84834359D01*
X70649917Y-84845355D01*
X70648499Y-84850029D01*
X70646200Y-84854330D01*
X70640971Y-84860702D01*
X70627357Y-84881076D01*
X70617980Y-84903715D01*
X70613200Y-84927749D01*
X70613200Y-84952253D01*
X70617981Y-84976286D01*
X70627358Y-84998925D01*
X70640971Y-85019298D01*
X70646200Y-85025670D01*
X70648499Y-85029971D01*
X70649917Y-85034645D01*
X70651000Y-85045641D01*
X70651000Y-85334359D01*
X70649917Y-85345355D01*
X70648499Y-85350029D01*
X70646200Y-85354330D01*
X70640971Y-85360702D01*
X70627357Y-85381076D01*
X70617980Y-85403715D01*
X70613200Y-85427749D01*
X70613200Y-85452253D01*
X70617981Y-85476286D01*
X70627358Y-85498925D01*
X70640971Y-85519298D01*
X70646200Y-85525670D01*
X70648499Y-85529971D01*
X70649917Y-85534645D01*
X70651000Y-85545641D01*
X70651000Y-85834359D01*
X70649917Y-85845355D01*
X70648499Y-85850029D01*
X70646200Y-85854330D01*
X70640971Y-85860702D01*
X70627357Y-85881076D01*
X70617980Y-85903715D01*
X70613200Y-85927749D01*
X70613200Y-85952253D01*
X70617981Y-85976286D01*
X70627358Y-85998925D01*
X70640971Y-86019298D01*
X70646200Y-86025670D01*
X70648499Y-86029971D01*
X70649917Y-86034645D01*
X70651000Y-86045641D01*
X70651000Y-86334359D01*
X70649917Y-86345355D01*
X70648499Y-86350029D01*
X70646200Y-86354331D01*
X70643104Y-86358104D01*
X70639331Y-86361200D01*
X70635029Y-86363499D01*
X70630355Y-86364917D01*
X70619359Y-86366000D01*
X69780641Y-86366000D01*
X69769645Y-86364917D01*
X69764971Y-86363499D01*
X69760669Y-86361200D01*
X69756896Y-86358104D01*
X69753800Y-86354331D01*
X69751501Y-86350029D01*
X69750083Y-86345355D01*
X69749000Y-86334359D01*
X69749000Y-86045641D01*
X69750083Y-86034645D01*
X69751501Y-86029971D01*
X69753800Y-86025670D01*
X69759029Y-86019298D01*
X69772643Y-85998924D01*
X69782020Y-85976285D01*
X69786800Y-85952251D01*
X69786800Y-85927747D01*
X69782019Y-85903714D01*
X69772642Y-85881075D01*
X69759029Y-85860702D01*
X69753800Y-85854330D01*
X69751501Y-85850029D01*
X69750083Y-85845355D01*
X69749000Y-85834359D01*
X69749000Y-85545641D01*
X69750083Y-85534645D01*
X69751501Y-85529971D01*
X69753800Y-85525670D01*
X69759029Y-85519298D01*
X69772643Y-85498924D01*
X69782020Y-85476285D01*
X69786800Y-85452251D01*
X69786800Y-85427747D01*
X69782019Y-85403714D01*
X69772642Y-85381075D01*
X69759029Y-85360702D01*
X69753800Y-85354330D01*
X69751501Y-85350029D01*
X69750083Y-85345355D01*
X69749000Y-85334359D01*
X69749000Y-85045641D01*
X69750083Y-85034645D01*
X69751501Y-85029971D01*
X69753800Y-85025670D01*
X69759029Y-85019298D01*
X69772643Y-84998924D01*
X69782020Y-84976285D01*
X69786800Y-84952251D01*
X69786800Y-84927747D01*
X69782019Y-84903714D01*
X69772642Y-84881075D01*
X69759029Y-84860702D01*
X69753800Y-84854330D01*
X69751501Y-84850029D01*
X69750083Y-84845355D01*
X69749000Y-84834359D01*
X69749000Y-84545641D01*
X69750083Y-84534645D01*
X69751501Y-84529971D01*
X69753800Y-84525670D01*
X69759029Y-84519298D01*
X69772643Y-84498924D01*
X69782020Y-84476285D01*
X69786800Y-84452251D01*
X69786800Y-84427747D01*
X69782019Y-84403714D01*
X69772642Y-84381075D01*
X69759029Y-84360702D01*
X69753800Y-84354330D01*
X69751501Y-84350029D01*
X69750083Y-84345355D01*
X69749000Y-84334359D01*
X69749000Y-84045641D01*
X69750083Y-84034645D01*
X69751501Y-84029971D01*
X69753800Y-84025670D01*
X69759029Y-84019298D01*
X69772643Y-83998924D01*
X69782020Y-83976285D01*
X69786800Y-83952251D01*
X69786800Y-83927747D01*
X69782019Y-83903714D01*
X69772642Y-83881075D01*
X69759029Y-83860702D01*
X69753800Y-83854330D01*
X69751501Y-83850029D01*
X69750083Y-83845355D01*
X69749000Y-83834359D01*
X69749000Y-83545641D01*
X69750083Y-83534645D01*
X69751501Y-83529971D01*
X69753800Y-83525670D01*
X69759029Y-83519298D01*
X69772643Y-83498924D01*
X69782020Y-83476285D01*
X69786800Y-83452251D01*
X69786800Y-83427747D01*
X69782019Y-83403714D01*
X69772642Y-83381075D01*
X69759029Y-83360702D01*
X69753800Y-83354330D01*
X69751501Y-83350029D01*
X69750083Y-83345355D01*
X69749000Y-83334359D01*
X69749000Y-83045641D01*
X69750083Y-83034645D01*
X69751501Y-83029971D01*
X69753800Y-83025669D01*
X69756896Y-83021896D01*
X69760669Y-83018800D01*
X69764971Y-83016501D01*
X69769645Y-83015083D01*
X69780641Y-83014000D01*
X70619359Y-83014000D01*
X70630355Y-83015083D01*
G37*
G36*
X75530355Y-83015083D02*
G01*
X75535029Y-83016501D01*
X75539331Y-83018800D01*
X75543104Y-83021896D01*
X75546200Y-83025669D01*
X75548499Y-83029971D01*
X75549917Y-83034645D01*
X75551000Y-83045641D01*
X75551000Y-83334359D01*
X75549917Y-83345355D01*
X75548499Y-83350029D01*
X75546200Y-83354330D01*
X75540971Y-83360702D01*
X75527357Y-83381076D01*
X75517980Y-83403715D01*
X75513200Y-83427749D01*
X75513200Y-83452253D01*
X75517981Y-83476286D01*
X75527358Y-83498925D01*
X75540971Y-83519298D01*
X75546200Y-83525670D01*
X75548499Y-83529971D01*
X75549917Y-83534645D01*
X75551000Y-83545641D01*
X75551000Y-83834359D01*
X75549917Y-83845355D01*
X75548499Y-83850029D01*
X75546200Y-83854330D01*
X75540971Y-83860702D01*
X75527357Y-83881076D01*
X75517980Y-83903715D01*
X75513200Y-83927749D01*
X75513200Y-83952253D01*
X75517981Y-83976286D01*
X75527358Y-83998925D01*
X75540971Y-84019298D01*
X75546200Y-84025670D01*
X75548499Y-84029971D01*
X75549917Y-84034645D01*
X75551000Y-84045641D01*
X75551000Y-84334359D01*
X75549917Y-84345355D01*
X75548499Y-84350029D01*
X75546200Y-84354330D01*
X75540971Y-84360702D01*
X75527357Y-84381076D01*
X75517980Y-84403715D01*
X75513200Y-84427749D01*
X75513200Y-84452253D01*
X75517981Y-84476286D01*
X75527358Y-84498925D01*
X75540971Y-84519298D01*
X75546200Y-84525670D01*
X75548499Y-84529971D01*
X75549917Y-84534645D01*
X75551000Y-84545641D01*
X75551000Y-84834359D01*
X75549917Y-84845355D01*
X75548499Y-84850029D01*
X75546200Y-84854330D01*
X75540971Y-84860702D01*
X75527357Y-84881076D01*
X75517980Y-84903715D01*
X75513200Y-84927749D01*
X75513200Y-84952253D01*
X75517981Y-84976286D01*
X75527358Y-84998925D01*
X75540971Y-85019298D01*
X75546200Y-85025670D01*
X75548499Y-85029971D01*
X75549917Y-85034645D01*
X75551000Y-85045641D01*
X75551000Y-85334359D01*
X75549917Y-85345355D01*
X75548499Y-85350029D01*
X75546200Y-85354330D01*
X75540971Y-85360702D01*
X75527357Y-85381076D01*
X75517980Y-85403715D01*
X75513200Y-85427749D01*
X75513200Y-85452253D01*
X75517981Y-85476286D01*
X75527358Y-85498925D01*
X75540971Y-85519298D01*
X75546200Y-85525670D01*
X75548499Y-85529971D01*
X75549917Y-85534645D01*
X75551000Y-85545641D01*
X75551000Y-85834359D01*
X75549917Y-85845355D01*
X75548499Y-85850029D01*
X75546200Y-85854330D01*
X75540971Y-85860702D01*
X75527357Y-85881076D01*
X75517980Y-85903715D01*
X75513200Y-85927749D01*
X75513200Y-85952253D01*
X75517981Y-85976286D01*
X75527358Y-85998925D01*
X75540971Y-86019298D01*
X75546200Y-86025670D01*
X75548499Y-86029971D01*
X75549917Y-86034645D01*
X75551000Y-86045641D01*
X75551000Y-86334359D01*
X75549917Y-86345355D01*
X75548499Y-86350029D01*
X75546200Y-86354331D01*
X75543104Y-86358104D01*
X75539331Y-86361200D01*
X75535029Y-86363499D01*
X75530355Y-86364917D01*
X75519359Y-86366000D01*
X74680641Y-86366000D01*
X74669645Y-86364917D01*
X74664971Y-86363499D01*
X74660669Y-86361200D01*
X74656896Y-86358104D01*
X74653800Y-86354331D01*
X74651501Y-86350029D01*
X74650083Y-86345355D01*
X74649000Y-86334359D01*
X74649000Y-86045641D01*
X74650083Y-86034645D01*
X74651501Y-86029971D01*
X74653800Y-86025670D01*
X74659029Y-86019298D01*
X74672643Y-85998924D01*
X74682020Y-85976285D01*
X74686800Y-85952251D01*
X74686800Y-85927747D01*
X74682019Y-85903714D01*
X74672642Y-85881075D01*
X74659029Y-85860702D01*
X74653800Y-85854330D01*
X74651501Y-85850029D01*
X74650083Y-85845355D01*
X74649000Y-85834359D01*
X74649000Y-85545641D01*
X74650083Y-85534645D01*
X74651501Y-85529971D01*
X74653800Y-85525670D01*
X74659029Y-85519298D01*
X74672643Y-85498924D01*
X74682020Y-85476285D01*
X74686800Y-85452251D01*
X74686800Y-85427747D01*
X74682019Y-85403714D01*
X74672642Y-85381075D01*
X74659029Y-85360702D01*
X74653800Y-85354330D01*
X74651501Y-85350029D01*
X74650083Y-85345355D01*
X74649000Y-85334359D01*
X74649000Y-85045641D01*
X74650083Y-85034645D01*
X74651501Y-85029971D01*
X74653800Y-85025670D01*
X74659029Y-85019298D01*
X74672643Y-84998924D01*
X74682020Y-84976285D01*
X74686800Y-84952251D01*
X74686800Y-84927747D01*
X74682019Y-84903714D01*
X74672642Y-84881075D01*
X74659029Y-84860702D01*
X74653800Y-84854330D01*
X74651501Y-84850029D01*
X74650083Y-84845355D01*
X74649000Y-84834359D01*
X74649000Y-84545641D01*
X74650083Y-84534645D01*
X74651501Y-84529971D01*
X74653800Y-84525670D01*
X74659029Y-84519298D01*
X74672643Y-84498924D01*
X74682020Y-84476285D01*
X74686800Y-84452251D01*
X74686800Y-84427747D01*
X74682019Y-84403714D01*
X74672642Y-84381075D01*
X74659029Y-84360702D01*
X74653800Y-84354330D01*
X74651501Y-84350029D01*
X74650083Y-84345355D01*
X74649000Y-84334359D01*
X74649000Y-84045641D01*
X74650083Y-84034645D01*
X74651501Y-84029971D01*
X74653800Y-84025670D01*
X74659029Y-84019298D01*
X74672643Y-83998924D01*
X74682020Y-83976285D01*
X74686800Y-83952251D01*
X74686800Y-83927747D01*
X74682019Y-83903714D01*
X74672642Y-83881075D01*
X74659029Y-83860702D01*
X74653800Y-83854330D01*
X74651501Y-83850029D01*
X74650083Y-83845355D01*
X74649000Y-83834359D01*
X74649000Y-83545641D01*
X74650083Y-83534645D01*
X74651501Y-83529971D01*
X74653800Y-83525670D01*
X74659029Y-83519298D01*
X74672643Y-83498924D01*
X74682020Y-83476285D01*
X74686800Y-83452251D01*
X74686800Y-83427747D01*
X74682019Y-83403714D01*
X74672642Y-83381075D01*
X74659029Y-83360702D01*
X74653800Y-83354330D01*
X74651501Y-83350029D01*
X74650083Y-83345355D01*
X74649000Y-83334359D01*
X74649000Y-83045641D01*
X74650083Y-83034645D01*
X74651501Y-83029971D01*
X74653800Y-83025669D01*
X74656896Y-83021896D01*
X74660669Y-83018800D01*
X74664971Y-83016501D01*
X74669645Y-83015083D01*
X74680641Y-83014000D01*
X75519359Y-83014000D01*
X75530355Y-83015083D01*
G37*
G36*
X67164499Y-84673445D02*
G01*
X67201995Y-84684820D01*
X67236554Y-84703292D01*
X67266847Y-84728153D01*
X67291708Y-84758446D01*
X67310180Y-84793005D01*
X67321555Y-84830501D01*
X67326000Y-84875638D01*
X67326000Y-85614362D01*
X67321555Y-85659499D01*
X67310180Y-85696995D01*
X67291708Y-85731554D01*
X67266847Y-85761847D01*
X67236554Y-85786708D01*
X67201995Y-85805180D01*
X67164499Y-85816555D01*
X67119362Y-85821000D01*
X66480638Y-85821000D01*
X66435501Y-85816555D01*
X66398005Y-85805180D01*
X66363446Y-85786708D01*
X66333153Y-85761847D01*
X66308292Y-85731554D01*
X66289820Y-85696995D01*
X66278445Y-85659499D01*
X66274000Y-85614362D01*
X66274000Y-84875638D01*
X66278445Y-84830501D01*
X66289820Y-84793005D01*
X66308292Y-84758446D01*
X66333153Y-84728153D01*
X66363446Y-84703292D01*
X66398005Y-84684820D01*
X66435501Y-84673445D01*
X66480638Y-84669000D01*
X67119362Y-84669000D01*
X67164499Y-84673445D01*
G37*
G36*
X65221000Y-85551000D02*
G01*
X63919000Y-85551000D01*
X63919000Y-84649000D01*
X65221000Y-84649000D01*
X65221000Y-85551000D01*
G37*
G36*
X77134499Y-84198445D02*
G01*
X77171995Y-84209820D01*
X77206554Y-84228292D01*
X77236847Y-84253153D01*
X77261708Y-84283446D01*
X77280180Y-84318005D01*
X77291555Y-84355501D01*
X77296000Y-84400638D01*
X77296000Y-85039362D01*
X77291555Y-85084499D01*
X77280180Y-85121995D01*
X77261708Y-85156554D01*
X77236847Y-85186847D01*
X77206554Y-85211708D01*
X77171995Y-85230180D01*
X77134499Y-85241555D01*
X77089362Y-85246000D01*
X76350638Y-85246000D01*
X76305501Y-85241555D01*
X76268005Y-85230180D01*
X76233446Y-85211708D01*
X76203153Y-85186847D01*
X76178292Y-85156554D01*
X76159820Y-85121995D01*
X76148445Y-85084499D01*
X76144000Y-85039362D01*
X76144000Y-84400638D01*
X76148445Y-84355501D01*
X76159820Y-84318005D01*
X76178292Y-84283446D01*
X76203153Y-84253153D01*
X76233446Y-84228292D01*
X76268005Y-84209820D01*
X76305501Y-84198445D01*
X76350638Y-84194000D01*
X77089362Y-84194000D01*
X77134499Y-84198445D01*
G37*
G36*
X78884499Y-84198445D02*
G01*
X78921995Y-84209820D01*
X78956554Y-84228292D01*
X78986847Y-84253153D01*
X79011708Y-84283446D01*
X79030180Y-84318005D01*
X79041555Y-84355501D01*
X79046000Y-84400638D01*
X79046000Y-85039362D01*
X79041555Y-85084499D01*
X79030180Y-85121995D01*
X79011708Y-85156554D01*
X78986847Y-85186847D01*
X78956554Y-85211708D01*
X78921995Y-85230180D01*
X78884499Y-85241555D01*
X78839362Y-85246000D01*
X78100638Y-85246000D01*
X78055501Y-85241555D01*
X78018005Y-85230180D01*
X77983446Y-85211708D01*
X77953153Y-85186847D01*
X77928292Y-85156554D01*
X77909820Y-85121995D01*
X77898445Y-85084499D01*
X77894000Y-85039362D01*
X77894000Y-84400638D01*
X77898445Y-84355501D01*
X77909820Y-84318005D01*
X77928292Y-84283446D01*
X77953153Y-84253153D01*
X77983446Y-84228292D01*
X78018005Y-84209820D01*
X78055501Y-84198445D01*
X78100638Y-84194000D01*
X78839362Y-84194000D01*
X78884499Y-84198445D01*
G37*
G36*
X57571000Y-84651000D02*
G01*
X54469000Y-84651000D01*
X54469000Y-81549000D01*
X57571000Y-81549000D01*
X57571000Y-84651000D01*
G37*
G36*
X67154499Y-82548445D02*
G01*
X67191995Y-82559820D01*
X67226554Y-82578292D01*
X67256847Y-82603153D01*
X67281708Y-82633446D01*
X67300180Y-82668005D01*
X67311555Y-82705501D01*
X67316000Y-82750638D01*
X67316000Y-83489362D01*
X67311555Y-83534499D01*
X67300180Y-83571995D01*
X67281708Y-83606554D01*
X67256847Y-83636847D01*
X67226554Y-83661708D01*
X67191995Y-83680180D01*
X67154499Y-83691555D01*
X67109362Y-83696000D01*
X66470638Y-83696000D01*
X66425501Y-83691555D01*
X66388005Y-83680180D01*
X66353446Y-83661708D01*
X66323153Y-83636847D01*
X66298292Y-83606554D01*
X66279820Y-83571995D01*
X66268445Y-83534499D01*
X66264000Y-83489362D01*
X66264000Y-82750638D01*
X66268445Y-82705501D01*
X66279820Y-82668005D01*
X66298292Y-82633446D01*
X66323153Y-82603153D01*
X66353446Y-82578292D01*
X66388005Y-82559820D01*
X66425501Y-82548445D01*
X66470638Y-82544000D01*
X67109362Y-82544000D01*
X67154499Y-82548445D01*
G37*
G36*
X65251000Y-83551000D02*
G01*
X63949000Y-83551000D01*
X63949000Y-82649000D01*
X65251000Y-82649000D01*
X65251000Y-83551000D01*
G37*
G36*
X86017121Y-80755228D02*
G01*
X86163402Y-80799602D01*
X86298204Y-80871655D01*
X86298207Y-80871657D01*
X86298208Y-80871658D01*
X86416369Y-80968631D01*
X86458963Y-81020531D01*
X86513345Y-81086796D01*
X86585398Y-81221598D01*
X86629772Y-81367879D01*
X86644754Y-81520000D01*
X86629772Y-81672121D01*
X86585398Y-81818402D01*
X86513345Y-81953204D01*
X86513343Y-81953207D01*
X86513342Y-81953208D01*
X86485658Y-81986941D01*
X86416367Y-82071372D01*
X86383570Y-82098288D01*
X86366243Y-82115615D01*
X86352630Y-82135989D01*
X86343252Y-82158628D01*
X86338472Y-82182661D01*
X86338472Y-82207165D01*
X86343252Y-82231199D01*
X86352630Y-82253837D01*
X86366244Y-82274212D01*
X86383571Y-82291539D01*
X86403945Y-82305152D01*
X86426584Y-82314530D01*
X86450617Y-82319310D01*
X86475121Y-82319310D01*
X86499155Y-82314530D01*
X86507649Y-82311490D01*
X86595579Y-82294000D01*
X86684421Y-82294000D01*
X86771552Y-82311331D01*
X86853627Y-82345328D01*
X86853629Y-82345329D01*
X86865953Y-82353564D01*
X86927495Y-82394685D01*
X86990315Y-82457505D01*
X87039672Y-82531373D01*
X87073669Y-82613448D01*
X87091000Y-82700579D01*
X87091000Y-82789421D01*
X87073669Y-82876552D01*
X87040768Y-82955980D01*
X87039671Y-82958629D01*
X87014825Y-82995813D01*
X86990936Y-83031566D01*
X86990314Y-83032496D01*
X86927496Y-83095314D01*
X86853629Y-83144671D01*
X86853628Y-83144672D01*
X86853627Y-83144672D01*
X86771552Y-83178669D01*
X86684421Y-83196000D01*
X86595579Y-83196000D01*
X86508448Y-83178669D01*
X86426373Y-83144672D01*
X86426372Y-83144672D01*
X86426371Y-83144671D01*
X86352504Y-83095314D01*
X86289686Y-83032496D01*
X86289065Y-83031566D01*
X86265175Y-82995813D01*
X86240329Y-82958629D01*
X86239232Y-82955980D01*
X86206331Y-82876552D01*
X86189000Y-82789421D01*
X86189000Y-82700579D01*
X86206331Y-82613448D01*
X86240328Y-82531373D01*
X86289685Y-82457505D01*
X86305238Y-82441952D01*
X86320783Y-82423010D01*
X86332334Y-82401399D01*
X86339447Y-82377950D01*
X86341849Y-82353564D01*
X86339447Y-82329178D01*
X86332334Y-82305729D01*
X86320783Y-82284118D01*
X86305238Y-82265176D01*
X86286296Y-82249631D01*
X86264685Y-82238080D01*
X86241236Y-82230967D01*
X86216850Y-82228565D01*
X86192464Y-82230967D01*
X86169015Y-82238080D01*
X86165386Y-82239796D01*
X86163400Y-82240398D01*
X86163399Y-82240399D01*
X86132965Y-82249631D01*
X86017121Y-82284772D01*
X85903118Y-82296000D01*
X85276882Y-82296000D01*
X85162879Y-82284772D01*
X85016598Y-82240398D01*
X84881796Y-82168345D01*
X84860173Y-82150599D01*
X84763631Y-82071369D01*
X84666658Y-81953208D01*
X84666657Y-81953207D01*
X84666655Y-81953204D01*
X84594602Y-81818402D01*
X84550228Y-81672121D01*
X84535246Y-81520000D01*
X84550228Y-81367879D01*
X84594602Y-81221598D01*
X84666655Y-81086796D01*
X84721038Y-81020531D01*
X84763631Y-80968631D01*
X84881792Y-80871658D01*
X84881793Y-80871657D01*
X84881796Y-80871655D01*
X85016598Y-80799602D01*
X85162879Y-80755228D01*
X85276882Y-80744000D01*
X85903118Y-80744000D01*
X86017121Y-80755228D01*
G37*
G36*
X79419591Y-81958085D02*
G01*
X79453569Y-81968393D01*
X79484890Y-81985134D01*
X79512339Y-82007661D01*
X79534866Y-82035110D01*
X79551607Y-82066431D01*
X79561915Y-82100409D01*
X79566000Y-82141890D01*
X79566000Y-82818110D01*
X79561915Y-82859591D01*
X79551607Y-82893569D01*
X79534866Y-82924890D01*
X79512339Y-82952339D01*
X79484890Y-82974866D01*
X79453569Y-82991607D01*
X79419591Y-83001915D01*
X79378110Y-83006000D01*
X78776890Y-83006000D01*
X78735409Y-83001915D01*
X78701431Y-82991607D01*
X78670110Y-82974866D01*
X78642661Y-82952339D01*
X78620134Y-82924890D01*
X78603393Y-82893569D01*
X78593085Y-82859591D01*
X78589000Y-82818110D01*
X78589000Y-82141890D01*
X78593085Y-82100409D01*
X78603393Y-82066431D01*
X78620134Y-82035110D01*
X78642661Y-82007661D01*
X78670110Y-81985134D01*
X78701431Y-81968393D01*
X78735409Y-81958085D01*
X78776890Y-81954000D01*
X79378110Y-81954000D01*
X79419591Y-81958085D01*
G37*
G36*
X77844591Y-81958085D02*
G01*
X77878569Y-81968393D01*
X77909890Y-81985134D01*
X77937339Y-82007661D01*
X77959866Y-82035110D01*
X77976607Y-82066431D01*
X77986915Y-82100409D01*
X77991000Y-82141890D01*
X77991000Y-82818110D01*
X77986915Y-82859591D01*
X77976607Y-82893569D01*
X77959866Y-82924890D01*
X77937339Y-82952339D01*
X77909890Y-82974866D01*
X77878569Y-82991607D01*
X77844591Y-83001915D01*
X77803110Y-83006000D01*
X77201890Y-83006000D01*
X77160409Y-83001915D01*
X77126431Y-82991607D01*
X77095110Y-82974866D01*
X77067661Y-82952339D01*
X77045134Y-82924890D01*
X77028393Y-82893569D01*
X77018085Y-82859591D01*
X77014000Y-82818110D01*
X77014000Y-82141890D01*
X77018085Y-82100409D01*
X77028393Y-82066431D01*
X77045134Y-82035110D01*
X77067661Y-82007661D01*
X77095110Y-81985134D01*
X77126431Y-81968393D01*
X77160409Y-81958085D01*
X77201890Y-81954000D01*
X77803110Y-81954000D01*
X77844591Y-81958085D01*
G37*
G36*
X80894499Y-81828445D02*
G01*
X80931995Y-81839820D01*
X80966554Y-81858292D01*
X80996847Y-81883153D01*
X81021708Y-81913446D01*
X81040180Y-81948005D01*
X81051555Y-81985501D01*
X81056000Y-82030638D01*
X81056000Y-82769362D01*
X81051555Y-82814499D01*
X81040180Y-82851995D01*
X81021708Y-82886554D01*
X80996847Y-82916847D01*
X80966554Y-82941708D01*
X80931995Y-82960180D01*
X80894499Y-82971555D01*
X80849362Y-82976000D01*
X80210638Y-82976000D01*
X80165501Y-82971555D01*
X80128005Y-82960180D01*
X80093446Y-82941708D01*
X80063153Y-82916847D01*
X80038292Y-82886554D01*
X80019820Y-82851995D01*
X80008445Y-82814499D01*
X80004000Y-82769362D01*
X80004000Y-82030638D01*
X80008445Y-81985501D01*
X80019820Y-81948005D01*
X80038292Y-81913446D01*
X80063153Y-81883153D01*
X80093446Y-81858292D01*
X80128005Y-81839820D01*
X80165501Y-81828445D01*
X80210638Y-81824000D01*
X80849362Y-81824000D01*
X80894499Y-81828445D01*
G37*
G36*
X71305355Y-81790083D02*
G01*
X71310029Y-81791501D01*
X71314330Y-81793800D01*
X71320702Y-81799029D01*
X71341076Y-81812643D01*
X71363715Y-81822020D01*
X71387749Y-81826800D01*
X71412253Y-81826800D01*
X71436286Y-81822019D01*
X71458925Y-81812642D01*
X71479298Y-81799029D01*
X71485670Y-81793800D01*
X71489971Y-81791501D01*
X71494645Y-81790083D01*
X71505641Y-81789000D01*
X71794359Y-81789000D01*
X71805355Y-81790083D01*
X71810029Y-81791501D01*
X71814330Y-81793800D01*
X71820702Y-81799029D01*
X71841076Y-81812643D01*
X71863715Y-81822020D01*
X71887749Y-81826800D01*
X71912253Y-81826800D01*
X71936286Y-81822019D01*
X71958925Y-81812642D01*
X71979298Y-81799029D01*
X71985670Y-81793800D01*
X71989971Y-81791501D01*
X71994645Y-81790083D01*
X72005641Y-81789000D01*
X72294359Y-81789000D01*
X72305355Y-81790083D01*
X72310029Y-81791501D01*
X72314330Y-81793800D01*
X72320702Y-81799029D01*
X72341076Y-81812643D01*
X72363715Y-81822020D01*
X72387749Y-81826800D01*
X72412253Y-81826800D01*
X72436286Y-81822019D01*
X72458925Y-81812642D01*
X72479298Y-81799029D01*
X72485670Y-81793800D01*
X72489971Y-81791501D01*
X72494645Y-81790083D01*
X72505641Y-81789000D01*
X72794359Y-81789000D01*
X72805355Y-81790083D01*
X72810029Y-81791501D01*
X72814330Y-81793800D01*
X72820702Y-81799029D01*
X72841076Y-81812643D01*
X72863715Y-81822020D01*
X72887749Y-81826800D01*
X72912253Y-81826800D01*
X72936286Y-81822019D01*
X72958925Y-81812642D01*
X72979298Y-81799029D01*
X72985670Y-81793800D01*
X72989971Y-81791501D01*
X72994645Y-81790083D01*
X73005641Y-81789000D01*
X73294359Y-81789000D01*
X73305355Y-81790083D01*
X73310029Y-81791501D01*
X73314330Y-81793800D01*
X73320702Y-81799029D01*
X73341076Y-81812643D01*
X73363715Y-81822020D01*
X73387749Y-81826800D01*
X73412253Y-81826800D01*
X73436286Y-81822019D01*
X73458925Y-81812642D01*
X73479298Y-81799029D01*
X73485670Y-81793800D01*
X73489971Y-81791501D01*
X73494645Y-81790083D01*
X73505641Y-81789000D01*
X73794359Y-81789000D01*
X73805355Y-81790083D01*
X73810029Y-81791501D01*
X73814330Y-81793800D01*
X73820702Y-81799029D01*
X73841076Y-81812643D01*
X73863715Y-81822020D01*
X73887749Y-81826800D01*
X73912253Y-81826800D01*
X73936286Y-81822019D01*
X73958925Y-81812642D01*
X73979298Y-81799029D01*
X73985670Y-81793800D01*
X73989971Y-81791501D01*
X73994645Y-81790083D01*
X74005641Y-81789000D01*
X74294359Y-81789000D01*
X74305355Y-81790083D01*
X74310029Y-81791501D01*
X74314331Y-81793800D01*
X74318104Y-81796896D01*
X74321200Y-81800669D01*
X74323499Y-81804971D01*
X74324917Y-81809645D01*
X74326000Y-81820641D01*
X74326000Y-82659359D01*
X74324917Y-82670355D01*
X74323499Y-82675029D01*
X74321200Y-82679331D01*
X74318104Y-82683104D01*
X74314331Y-82686200D01*
X74310029Y-82688499D01*
X74305355Y-82689917D01*
X74294359Y-82691000D01*
X74005641Y-82691000D01*
X73994645Y-82689917D01*
X73989971Y-82688499D01*
X73985670Y-82686200D01*
X73979298Y-82680971D01*
X73958924Y-82667357D01*
X73936285Y-82657980D01*
X73912251Y-82653200D01*
X73887747Y-82653200D01*
X73863714Y-82657981D01*
X73841075Y-82667358D01*
X73820702Y-82680971D01*
X73814330Y-82686200D01*
X73810029Y-82688499D01*
X73805355Y-82689917D01*
X73794359Y-82691000D01*
X73505641Y-82691000D01*
X73494645Y-82689917D01*
X73489971Y-82688499D01*
X73485670Y-82686200D01*
X73479298Y-82680971D01*
X73458924Y-82667357D01*
X73436285Y-82657980D01*
X73412251Y-82653200D01*
X73387747Y-82653200D01*
X73363714Y-82657981D01*
X73341075Y-82667358D01*
X73320702Y-82680971D01*
X73314330Y-82686200D01*
X73310029Y-82688499D01*
X73305355Y-82689917D01*
X73294359Y-82691000D01*
X73005641Y-82691000D01*
X72994645Y-82689917D01*
X72989971Y-82688499D01*
X72985670Y-82686200D01*
X72979298Y-82680971D01*
X72958924Y-82667357D01*
X72936285Y-82657980D01*
X72912251Y-82653200D01*
X72887747Y-82653200D01*
X72863714Y-82657981D01*
X72841075Y-82667358D01*
X72820702Y-82680971D01*
X72814330Y-82686200D01*
X72810029Y-82688499D01*
X72805355Y-82689917D01*
X72794359Y-82691000D01*
X72505641Y-82691000D01*
X72494645Y-82689917D01*
X72489971Y-82688499D01*
X72485670Y-82686200D01*
X72479298Y-82680971D01*
X72458924Y-82667357D01*
X72436285Y-82657980D01*
X72412251Y-82653200D01*
X72387747Y-82653200D01*
X72363714Y-82657981D01*
X72341075Y-82667358D01*
X72320702Y-82680971D01*
X72314330Y-82686200D01*
X72310029Y-82688499D01*
X72305355Y-82689917D01*
X72294359Y-82691000D01*
X72005641Y-82691000D01*
X71994645Y-82689917D01*
X71989971Y-82688499D01*
X71985670Y-82686200D01*
X71979298Y-82680971D01*
X71958924Y-82667357D01*
X71936285Y-82657980D01*
X71912251Y-82653200D01*
X71887747Y-82653200D01*
X71863714Y-82657981D01*
X71841075Y-82667358D01*
X71820702Y-82680971D01*
X71814330Y-82686200D01*
X71810029Y-82688499D01*
X71805355Y-82689917D01*
X71794359Y-82691000D01*
X71505641Y-82691000D01*
X71494645Y-82689917D01*
X71489971Y-82688499D01*
X71485670Y-82686200D01*
X71479298Y-82680971D01*
X71458924Y-82667357D01*
X71436285Y-82657980D01*
X71412251Y-82653200D01*
X71387747Y-82653200D01*
X71363714Y-82657981D01*
X71341075Y-82667358D01*
X71320702Y-82680971D01*
X71314330Y-82686200D01*
X71310029Y-82688499D01*
X71305355Y-82689917D01*
X71294359Y-82691000D01*
X71005641Y-82691000D01*
X70994645Y-82689917D01*
X70989971Y-82688499D01*
X70985669Y-82686200D01*
X70981896Y-82683104D01*
X70978800Y-82679331D01*
X70976501Y-82675029D01*
X70975083Y-82670355D01*
X70974000Y-82659359D01*
X70974000Y-81820641D01*
X70975083Y-81809645D01*
X70976501Y-81804971D01*
X70978800Y-81800669D01*
X70981896Y-81796896D01*
X70985669Y-81793800D01*
X70989971Y-81791501D01*
X70994645Y-81790083D01*
X71005641Y-81789000D01*
X71294359Y-81789000D01*
X71305355Y-81790083D01*
G37*
G36*
X62651000Y-82601000D02*
G01*
X61349000Y-82601000D01*
X61349000Y-81699000D01*
X62651000Y-81699000D01*
X62651000Y-82601000D01*
G37*
G36*
X89837715Y-80753058D02*
G01*
X89955722Y-80788855D01*
X90064468Y-80846981D01*
X90159790Y-80925210D01*
X90238019Y-81020532D01*
X90296145Y-81129278D01*
X90296146Y-81129281D01*
X90296836Y-81131555D01*
X90331942Y-81247285D01*
X90344028Y-81370000D01*
X90331942Y-81492715D01*
X90296145Y-81610722D01*
X90238019Y-81719468D01*
X90159790Y-81814790D01*
X90064468Y-81893019D01*
X89955722Y-81951145D01*
X89955719Y-81951146D01*
X89948921Y-81953208D01*
X89837715Y-81986942D01*
X89745746Y-81996000D01*
X89034254Y-81996000D01*
X88942285Y-81986942D01*
X88831079Y-81953208D01*
X88824281Y-81951146D01*
X88824278Y-81951145D01*
X88715532Y-81893019D01*
X88620210Y-81814790D01*
X88541981Y-81719468D01*
X88483855Y-81610722D01*
X88448058Y-81492715D01*
X88435972Y-81370000D01*
X88448058Y-81247285D01*
X88483164Y-81131555D01*
X88483854Y-81129281D01*
X88483855Y-81129278D01*
X88541981Y-81020532D01*
X88620210Y-80925210D01*
X88715532Y-80846981D01*
X88824278Y-80788855D01*
X88942285Y-80753058D01*
X89034254Y-80744000D01*
X89745746Y-80744000D01*
X89837715Y-80753058D01*
G37*
G36*
X67154499Y-80798445D02*
G01*
X67191995Y-80809820D01*
X67226554Y-80828292D01*
X67256847Y-80853153D01*
X67281708Y-80883446D01*
X67300180Y-80918005D01*
X67311555Y-80955501D01*
X67316000Y-81000638D01*
X67316000Y-81739362D01*
X67311555Y-81784499D01*
X67300180Y-81821995D01*
X67281708Y-81856554D01*
X67256847Y-81886847D01*
X67226554Y-81911708D01*
X67191995Y-81930180D01*
X67154499Y-81941555D01*
X67109362Y-81946000D01*
X66470638Y-81946000D01*
X66425501Y-81941555D01*
X66388005Y-81930180D01*
X66353446Y-81911708D01*
X66323153Y-81886847D01*
X66298292Y-81856554D01*
X66279820Y-81821995D01*
X66268445Y-81784499D01*
X66264000Y-81739362D01*
X66264000Y-81000638D01*
X66268445Y-80955501D01*
X66279820Y-80918005D01*
X66298292Y-80883446D01*
X66323153Y-80853153D01*
X66353446Y-80828292D01*
X66388005Y-80809820D01*
X66425501Y-80798445D01*
X66470638Y-80794000D01*
X67109362Y-80794000D01*
X67154499Y-80798445D01*
G37*
G36*
X65251000Y-81651000D02*
G01*
X63949000Y-81651000D01*
X63949000Y-80749000D01*
X65251000Y-80749000D01*
X65251000Y-81651000D01*
G37*
G36*
X80894499Y-80078445D02*
G01*
X80931995Y-80089820D01*
X80966554Y-80108292D01*
X80996847Y-80133153D01*
X81021708Y-80163446D01*
X81040180Y-80198005D01*
X81051555Y-80235501D01*
X81056000Y-80280638D01*
X81056000Y-81019362D01*
X81051555Y-81064499D01*
X81040180Y-81101995D01*
X81021708Y-81136554D01*
X80996847Y-81166847D01*
X80966554Y-81191708D01*
X80931995Y-81210180D01*
X80894499Y-81221555D01*
X80849362Y-81226000D01*
X80210638Y-81226000D01*
X80165501Y-81221555D01*
X80128005Y-81210180D01*
X80093446Y-81191708D01*
X80063153Y-81166847D01*
X80038292Y-81136554D01*
X80019820Y-81101995D01*
X80008445Y-81064499D01*
X80004000Y-81019362D01*
X80004000Y-80280638D01*
X80008445Y-80235501D01*
X80019820Y-80198005D01*
X80038292Y-80163446D01*
X80063153Y-80133153D01*
X80093446Y-80108292D01*
X80128005Y-80089820D01*
X80165501Y-80078445D01*
X80210638Y-80074000D01*
X80849362Y-80074000D01*
X80894499Y-80078445D01*
G37*
G36*
X74412091Y-80088085D02*
G01*
X74446069Y-80098393D01*
X74477390Y-80115134D01*
X74504839Y-80137661D01*
X74527366Y-80165110D01*
X74544107Y-80196431D01*
X74554415Y-80230409D01*
X74558500Y-80271890D01*
X74558500Y-80948110D01*
X74554415Y-80989591D01*
X74544107Y-81023569D01*
X74527366Y-81054890D01*
X74504839Y-81082339D01*
X74477390Y-81104866D01*
X74446069Y-81121607D01*
X74412091Y-81131915D01*
X74370610Y-81136000D01*
X73769390Y-81136000D01*
X73727909Y-81131915D01*
X73693931Y-81121607D01*
X73662610Y-81104866D01*
X73635161Y-81082339D01*
X73612634Y-81054890D01*
X73595893Y-81023569D01*
X73585585Y-80989591D01*
X73581500Y-80948110D01*
X73581500Y-80271890D01*
X73585585Y-80230409D01*
X73595893Y-80196431D01*
X73612634Y-80165110D01*
X73635161Y-80137661D01*
X73662610Y-80115134D01*
X73693931Y-80098393D01*
X73727909Y-80088085D01*
X73769390Y-80084000D01*
X74370610Y-80084000D01*
X74412091Y-80088085D01*
G37*
G36*
X79334499Y-80088445D02*
G01*
X79371995Y-80099820D01*
X79406554Y-80118292D01*
X79436847Y-80143153D01*
X79461708Y-80173446D01*
X79480180Y-80208005D01*
X79491555Y-80245501D01*
X79496000Y-80290638D01*
X79496000Y-80929362D01*
X79491555Y-80974499D01*
X79480180Y-81011995D01*
X79461708Y-81046554D01*
X79436847Y-81076847D01*
X79406554Y-81101708D01*
X79371995Y-81120180D01*
X79334499Y-81131555D01*
X79289362Y-81136000D01*
X78550638Y-81136000D01*
X78505501Y-81131555D01*
X78468005Y-81120180D01*
X78433446Y-81101708D01*
X78403153Y-81076847D01*
X78378292Y-81046554D01*
X78359820Y-81011995D01*
X78348445Y-80974499D01*
X78344000Y-80929362D01*
X78344000Y-80290638D01*
X78348445Y-80245501D01*
X78359820Y-80208005D01*
X78378292Y-80173446D01*
X78403153Y-80143153D01*
X78433446Y-80118292D01*
X78468005Y-80099820D01*
X78505501Y-80088445D01*
X78550638Y-80084000D01*
X79289362Y-80084000D01*
X79334499Y-80088445D01*
G37*
G36*
X75987091Y-80088085D02*
G01*
X76021069Y-80098393D01*
X76052390Y-80115134D01*
X76079839Y-80137661D01*
X76102366Y-80165110D01*
X76119107Y-80196431D01*
X76129415Y-80230409D01*
X76133500Y-80271890D01*
X76133500Y-80948110D01*
X76129415Y-80989591D01*
X76119107Y-81023569D01*
X76102366Y-81054890D01*
X76079839Y-81082339D01*
X76052390Y-81104866D01*
X76021069Y-81121607D01*
X75987091Y-81131915D01*
X75945610Y-81136000D01*
X75344390Y-81136000D01*
X75302909Y-81131915D01*
X75268931Y-81121607D01*
X75237610Y-81104866D01*
X75210161Y-81082339D01*
X75187634Y-81054890D01*
X75170893Y-81023569D01*
X75160585Y-80989591D01*
X75156500Y-80948110D01*
X75156500Y-80271890D01*
X75160585Y-80230409D01*
X75170893Y-80196431D01*
X75187634Y-80165110D01*
X75210161Y-80137661D01*
X75237610Y-80115134D01*
X75268931Y-80098393D01*
X75302909Y-80088085D01*
X75344390Y-80084000D01*
X75945610Y-80084000D01*
X75987091Y-80088085D01*
G37*
G36*
X77584499Y-80088445D02*
G01*
X77621995Y-80099820D01*
X77656554Y-80118292D01*
X77686847Y-80143153D01*
X77711708Y-80173446D01*
X77730180Y-80208005D01*
X77741555Y-80245501D01*
X77746000Y-80290638D01*
X77746000Y-80929362D01*
X77741555Y-80974499D01*
X77730180Y-81011995D01*
X77711708Y-81046554D01*
X77686847Y-81076847D01*
X77656554Y-81101708D01*
X77621995Y-81120180D01*
X77584499Y-81131555D01*
X77539362Y-81136000D01*
X76800638Y-81136000D01*
X76755501Y-81131555D01*
X76718005Y-81120180D01*
X76683446Y-81101708D01*
X76653153Y-81076847D01*
X76628292Y-81046554D01*
X76609820Y-81011995D01*
X76598445Y-80974499D01*
X76594000Y-80929362D01*
X76594000Y-80290638D01*
X76598445Y-80245501D01*
X76609820Y-80208005D01*
X76628292Y-80173446D01*
X76653153Y-80143153D01*
X76683446Y-80118292D01*
X76718005Y-80099820D01*
X76755501Y-80088445D01*
X76800638Y-80084000D01*
X77539362Y-80084000D01*
X77584499Y-80088445D01*
G37*
G36*
X89618015Y-78566973D02*
G01*
X89721879Y-78598479D01*
X89748344Y-78612625D01*
X89817600Y-78649643D01*
X89901501Y-78718499D01*
X89970357Y-78802400D01*
X90006995Y-78870945D01*
X90021521Y-78898121D01*
X90053027Y-79001985D01*
X90063666Y-79110000D01*
X90053027Y-79218015D01*
X90021521Y-79321879D01*
X90021519Y-79321882D01*
X89970357Y-79417600D01*
X89901501Y-79501501D01*
X89817600Y-79570357D01*
X89749055Y-79606995D01*
X89721879Y-79621521D01*
X89618015Y-79653027D01*
X89537067Y-79661000D01*
X88882933Y-79661000D01*
X88801985Y-79653027D01*
X88698121Y-79621521D01*
X88670945Y-79606995D01*
X88602400Y-79570357D01*
X88518499Y-79501501D01*
X88449643Y-79417600D01*
X88398481Y-79321882D01*
X88398479Y-79321879D01*
X88366973Y-79218015D01*
X88356334Y-79110000D01*
X88366973Y-79001985D01*
X88398479Y-78898121D01*
X88413005Y-78870945D01*
X88449643Y-78802400D01*
X88518499Y-78718499D01*
X88602400Y-78649643D01*
X88671656Y-78612625D01*
X88698121Y-78598479D01*
X88801985Y-78566973D01*
X88882933Y-78559000D01*
X89537067Y-78559000D01*
X89618015Y-78566973D01*
G37*
G36*
X85688015Y-69926973D02*
G01*
X85791879Y-69958479D01*
X85819055Y-69973005D01*
X85887600Y-70009643D01*
X85971501Y-70078499D01*
X86040357Y-70162400D01*
X86065265Y-70209000D01*
X86091521Y-70258121D01*
X86123027Y-70361985D01*
X86133666Y-70470000D01*
X86123027Y-70578015D01*
X86091521Y-70681879D01*
X86091519Y-70681882D01*
X86040357Y-70777600D01*
X85971501Y-70861501D01*
X85887600Y-70930357D01*
X85832014Y-70960068D01*
X85791879Y-70981521D01*
X85688015Y-71013027D01*
X85607067Y-71021000D01*
X85015999Y-71021000D01*
X84991613Y-71023402D01*
X84968164Y-71030515D01*
X84946553Y-71042066D01*
X84927611Y-71057611D01*
X84912066Y-71076553D01*
X84900515Y-71098164D01*
X84893402Y-71121613D01*
X84891000Y-71145999D01*
X84891000Y-78434001D01*
X84893402Y-78458387D01*
X84900515Y-78481836D01*
X84912066Y-78503447D01*
X84927611Y-78522389D01*
X84946553Y-78537934D01*
X84968164Y-78549485D01*
X84991613Y-78556598D01*
X85015999Y-78559000D01*
X85607067Y-78559000D01*
X85688015Y-78566973D01*
X85791879Y-78598479D01*
X85818344Y-78612625D01*
X85887600Y-78649643D01*
X85971501Y-78718499D01*
X86040357Y-78802400D01*
X86076995Y-78870945D01*
X86091521Y-78898121D01*
X86123027Y-79001985D01*
X86133666Y-79110000D01*
X86123027Y-79218015D01*
X86091521Y-79321879D01*
X86091519Y-79321882D01*
X86040357Y-79417600D01*
X85971501Y-79501501D01*
X85887600Y-79570357D01*
X85819055Y-79606995D01*
X85791879Y-79621521D01*
X85688015Y-79653027D01*
X85607067Y-79661000D01*
X84452933Y-79661000D01*
X84371985Y-79653027D01*
X84268121Y-79621521D01*
X84240945Y-79606995D01*
X84172400Y-79570357D01*
X84088499Y-79501501D01*
X84019643Y-79417600D01*
X83968481Y-79321882D01*
X83968479Y-79321879D01*
X83936973Y-79218015D01*
X83926334Y-79110000D01*
X83936973Y-79001985D01*
X83968479Y-78898121D01*
X83983005Y-78870945D01*
X84019643Y-78802400D01*
X84088499Y-78718499D01*
X84140661Y-78675691D01*
X84172400Y-78649644D01*
X84216193Y-78626236D01*
X84236563Y-78612625D01*
X84253890Y-78595298D01*
X84267504Y-78574924D01*
X84276881Y-78552285D01*
X84281662Y-78528252D01*
X84281662Y-78503748D01*
X84276882Y-78479714D01*
X84267505Y-78457076D01*
X84253891Y-78436701D01*
X84236564Y-78419374D01*
X84216190Y-78405760D01*
X84193551Y-78396383D01*
X84169518Y-78391602D01*
X84157265Y-78391000D01*
X83339000Y-78391000D01*
X83339000Y-71189000D01*
X84157265Y-71189000D01*
X84181651Y-71186598D01*
X84205100Y-71179485D01*
X84226711Y-71167934D01*
X84245653Y-71152389D01*
X84261198Y-71133447D01*
X84272749Y-71111836D01*
X84279862Y-71088387D01*
X84282264Y-71064001D01*
X84279862Y-71039615D01*
X84272749Y-71016166D01*
X84261198Y-70994555D01*
X84245653Y-70975613D01*
X84226711Y-70960068D01*
X84216198Y-70953767D01*
X84172400Y-70930356D01*
X84088499Y-70861501D01*
X84019643Y-70777600D01*
X83968481Y-70681882D01*
X83968479Y-70681879D01*
X83936973Y-70578015D01*
X83926334Y-70470000D01*
X83936973Y-70361985D01*
X83968479Y-70258121D01*
X83994735Y-70209000D01*
X84019643Y-70162400D01*
X84088499Y-70078499D01*
X84172400Y-70009643D01*
X84240945Y-69973005D01*
X84268121Y-69958479D01*
X84371985Y-69926973D01*
X84452933Y-69919000D01*
X85607067Y-69919000D01*
X85688015Y-69926973D01*
G37*
G36*
X57513512Y-77833927D02*
G01*
X57662812Y-77863624D01*
X57826784Y-77931544D01*
X57974354Y-78030147D01*
X58099853Y-78155646D01*
X58198456Y-78303216D01*
X58266376Y-78467188D01*
X58289909Y-78585501D01*
X58299893Y-78635691D01*
X58301000Y-78641259D01*
X58301000Y-78818741D01*
X58266376Y-78992812D01*
X58198456Y-79156784D01*
X58099853Y-79304354D01*
X57974354Y-79429853D01*
X57826784Y-79528456D01*
X57662812Y-79596376D01*
X57513512Y-79626073D01*
X57488742Y-79631000D01*
X57311258Y-79631000D01*
X57286488Y-79626073D01*
X57137188Y-79596376D01*
X56973216Y-79528456D01*
X56825646Y-79429853D01*
X56700147Y-79304354D01*
X56601544Y-79156784D01*
X56533624Y-78992812D01*
X56499000Y-78818741D01*
X56499000Y-78641259D01*
X56500108Y-78635691D01*
X56510091Y-78585501D01*
X56533624Y-78467188D01*
X56601544Y-78303216D01*
X56700147Y-78155646D01*
X56825646Y-78030147D01*
X56973216Y-77931544D01*
X57137188Y-77863624D01*
X57286488Y-77833927D01*
X57311258Y-77829000D01*
X57488742Y-77829000D01*
X57513512Y-77833927D01*
G37*
G36*
X54973512Y-77833927D02*
G01*
X55122812Y-77863624D01*
X55286784Y-77931544D01*
X55434354Y-78030147D01*
X55559853Y-78155646D01*
X55658456Y-78303216D01*
X55726376Y-78467188D01*
X55749909Y-78585501D01*
X55759893Y-78635691D01*
X55761000Y-78641259D01*
X55761000Y-78818741D01*
X55726376Y-78992812D01*
X55658456Y-79156784D01*
X55559853Y-79304354D01*
X55434354Y-79429853D01*
X55286784Y-79528456D01*
X55122812Y-79596376D01*
X54973512Y-79626073D01*
X54948742Y-79631000D01*
X54771258Y-79631000D01*
X54746488Y-79626073D01*
X54597188Y-79596376D01*
X54433216Y-79528456D01*
X54285646Y-79429853D01*
X54160147Y-79304354D01*
X54061544Y-79156784D01*
X53993624Y-78992812D01*
X53959000Y-78818741D01*
X53959000Y-78641259D01*
X53960108Y-78635691D01*
X53970091Y-78585501D01*
X53993624Y-78467188D01*
X54061544Y-78303216D01*
X54160147Y-78155646D01*
X54285646Y-78030147D01*
X54433216Y-77931544D01*
X54597188Y-77863624D01*
X54746488Y-77833927D01*
X54771258Y-77829000D01*
X54948742Y-77829000D01*
X54973512Y-77833927D01*
G37*
G36*
X75982091Y-78478085D02*
G01*
X76016069Y-78488393D01*
X76047390Y-78505134D01*
X76074839Y-78527661D01*
X76097366Y-78555110D01*
X76114107Y-78586431D01*
X76124415Y-78620409D01*
X76128500Y-78661890D01*
X76128500Y-79338110D01*
X76124415Y-79379591D01*
X76114107Y-79413569D01*
X76097366Y-79444890D01*
X76074839Y-79472339D01*
X76047390Y-79494866D01*
X76016069Y-79511607D01*
X75982091Y-79521915D01*
X75940610Y-79526000D01*
X75339390Y-79526000D01*
X75297909Y-79521915D01*
X75263931Y-79511607D01*
X75232610Y-79494866D01*
X75205161Y-79472339D01*
X75182634Y-79444890D01*
X75165893Y-79413569D01*
X75155585Y-79379591D01*
X75151500Y-79338110D01*
X75151500Y-78661890D01*
X75155585Y-78620409D01*
X75165893Y-78586431D01*
X75182634Y-78555110D01*
X75205161Y-78527661D01*
X75232610Y-78505134D01*
X75263931Y-78488393D01*
X75297909Y-78478085D01*
X75339390Y-78474000D01*
X75940610Y-78474000D01*
X75982091Y-78478085D01*
G37*
G36*
X74407091Y-78478085D02*
G01*
X74441069Y-78488393D01*
X74472390Y-78505134D01*
X74499839Y-78527661D01*
X74522366Y-78555110D01*
X74539107Y-78586431D01*
X74549415Y-78620409D01*
X74553500Y-78661890D01*
X74553500Y-79338110D01*
X74549415Y-79379591D01*
X74539107Y-79413569D01*
X74522366Y-79444890D01*
X74499839Y-79472339D01*
X74472390Y-79494866D01*
X74441069Y-79511607D01*
X74407091Y-79521915D01*
X74365610Y-79526000D01*
X73764390Y-79526000D01*
X73722909Y-79521915D01*
X73688931Y-79511607D01*
X73657610Y-79494866D01*
X73630161Y-79472339D01*
X73607634Y-79444890D01*
X73590893Y-79413569D01*
X73580585Y-79379591D01*
X73576500Y-79338110D01*
X73576500Y-78661890D01*
X73580585Y-78620409D01*
X73590893Y-78586431D01*
X73607634Y-78555110D01*
X73630161Y-78527661D01*
X73657610Y-78505134D01*
X73688931Y-78488393D01*
X73722909Y-78478085D01*
X73764390Y-78474000D01*
X74365610Y-78474000D01*
X74407091Y-78478085D01*
G37*
G36*
X77584499Y-78468445D02*
G01*
X77621995Y-78479820D01*
X77656554Y-78498292D01*
X77686847Y-78523153D01*
X77711708Y-78553446D01*
X77730180Y-78588005D01*
X77741555Y-78625501D01*
X77746000Y-78670638D01*
X77746000Y-79309362D01*
X77741555Y-79354499D01*
X77730180Y-79391995D01*
X77711708Y-79426554D01*
X77686847Y-79456847D01*
X77656554Y-79481708D01*
X77621995Y-79500180D01*
X77584499Y-79511555D01*
X77539362Y-79516000D01*
X76800638Y-79516000D01*
X76755501Y-79511555D01*
X76718005Y-79500180D01*
X76683446Y-79481708D01*
X76653153Y-79456847D01*
X76628292Y-79426554D01*
X76609820Y-79391995D01*
X76598445Y-79354499D01*
X76594000Y-79309362D01*
X76594000Y-78670638D01*
X76598445Y-78625501D01*
X76609820Y-78588005D01*
X76628292Y-78553446D01*
X76653153Y-78523153D01*
X76683446Y-78498292D01*
X76718005Y-78479820D01*
X76755501Y-78468445D01*
X76800638Y-78464000D01*
X77539362Y-78464000D01*
X77584499Y-78468445D01*
G37*
G36*
X79334499Y-78468445D02*
G01*
X79371995Y-78479820D01*
X79406554Y-78498292D01*
X79436847Y-78523153D01*
X79461708Y-78553446D01*
X79480180Y-78588005D01*
X79491555Y-78625501D01*
X79496000Y-78670638D01*
X79496000Y-79309362D01*
X79491555Y-79354499D01*
X79480180Y-79391995D01*
X79461708Y-79426554D01*
X79436847Y-79456847D01*
X79406554Y-79481708D01*
X79371995Y-79500180D01*
X79334499Y-79511555D01*
X79289362Y-79516000D01*
X78550638Y-79516000D01*
X78505501Y-79511555D01*
X78468005Y-79500180D01*
X78433446Y-79481708D01*
X78403153Y-79456847D01*
X78378292Y-79426554D01*
X78359820Y-79391995D01*
X78348445Y-79354499D01*
X78344000Y-79309362D01*
X78344000Y-78670638D01*
X78348445Y-78625501D01*
X78359820Y-78588005D01*
X78378292Y-78553446D01*
X78403153Y-78523153D01*
X78433446Y-78498292D01*
X78468005Y-78479820D01*
X78505501Y-78468445D01*
X78550638Y-78464000D01*
X79289362Y-78464000D01*
X79334499Y-78468445D01*
G37*
G36*
X70194499Y-78428445D02*
G01*
X70231995Y-78439820D01*
X70266554Y-78458292D01*
X70296847Y-78483153D01*
X70321708Y-78513446D01*
X70340180Y-78548005D01*
X70351555Y-78585501D01*
X70356000Y-78630638D01*
X70356000Y-79269362D01*
X70351555Y-79314499D01*
X70340180Y-79351995D01*
X70321708Y-79386554D01*
X70296847Y-79416847D01*
X70266554Y-79441708D01*
X70231995Y-79460180D01*
X70194499Y-79471555D01*
X70149362Y-79476000D01*
X69410638Y-79476000D01*
X69365501Y-79471555D01*
X69328005Y-79460180D01*
X69293446Y-79441708D01*
X69263153Y-79416847D01*
X69238292Y-79386554D01*
X69219820Y-79351995D01*
X69208445Y-79314499D01*
X69204000Y-79269362D01*
X69204000Y-78630638D01*
X69208445Y-78585501D01*
X69219820Y-78548005D01*
X69238292Y-78513446D01*
X69263153Y-78483153D01*
X69293446Y-78458292D01*
X69328005Y-78439820D01*
X69365501Y-78428445D01*
X69410638Y-78424000D01*
X70149362Y-78424000D01*
X70194499Y-78428445D01*
G37*
G36*
X71944499Y-78428445D02*
G01*
X71981995Y-78439820D01*
X72016554Y-78458292D01*
X72046847Y-78483153D01*
X72071708Y-78513446D01*
X72090180Y-78548005D01*
X72101555Y-78585501D01*
X72106000Y-78630638D01*
X72106000Y-79269362D01*
X72101555Y-79314499D01*
X72090180Y-79351995D01*
X72071708Y-79386554D01*
X72046847Y-79416847D01*
X72016554Y-79441708D01*
X71981995Y-79460180D01*
X71944499Y-79471555D01*
X71899362Y-79476000D01*
X71160638Y-79476000D01*
X71115501Y-79471555D01*
X71078005Y-79460180D01*
X71043446Y-79441708D01*
X71013153Y-79416847D01*
X70988292Y-79386554D01*
X70969820Y-79351995D01*
X70958445Y-79314499D01*
X70954000Y-79269362D01*
X70954000Y-78630638D01*
X70958445Y-78585501D01*
X70969820Y-78548005D01*
X70988292Y-78513446D01*
X71013153Y-78483153D01*
X71043446Y-78458292D01*
X71078005Y-78439820D01*
X71115501Y-78428445D01*
X71160638Y-78424000D01*
X71899362Y-78424000D01*
X71944499Y-78428445D01*
G37*
G36*
X85669672Y-77318449D02*
G01*
X85669674Y-77318450D01*
X85669675Y-77318450D01*
X85738103Y-77346793D01*
X85799686Y-77387942D01*
X85852058Y-77440314D01*
X85893207Y-77501897D01*
X85921550Y-77570325D01*
X85921551Y-77570328D01*
X85936000Y-77642966D01*
X85936000Y-77717034D01*
X85922750Y-77783646D01*
X85921550Y-77789675D01*
X85893207Y-77858103D01*
X85852058Y-77919686D01*
X85799686Y-77972058D01*
X85738103Y-78013207D01*
X85669675Y-78041550D01*
X85669674Y-78041550D01*
X85669672Y-78041551D01*
X85597034Y-78056000D01*
X85522966Y-78056000D01*
X85450328Y-78041551D01*
X85450326Y-78041550D01*
X85450325Y-78041550D01*
X85381897Y-78013207D01*
X85320314Y-77972058D01*
X85267942Y-77919686D01*
X85226793Y-77858103D01*
X85198450Y-77789675D01*
X85197251Y-77783646D01*
X85184000Y-77717034D01*
X85184000Y-77642966D01*
X85198449Y-77570328D01*
X85198450Y-77570325D01*
X85226793Y-77501897D01*
X85267942Y-77440314D01*
X85320314Y-77387942D01*
X85381897Y-77346793D01*
X85450325Y-77318450D01*
X85450326Y-77318450D01*
X85450328Y-77318449D01*
X85522966Y-77304000D01*
X85597034Y-77304000D01*
X85669672Y-77318449D01*
G37*
G36*
X70184499Y-76898445D02*
G01*
X70221995Y-76909820D01*
X70256554Y-76928292D01*
X70286847Y-76953153D01*
X70311708Y-76983446D01*
X70330180Y-77018005D01*
X70341555Y-77055501D01*
X70346000Y-77100638D01*
X70346000Y-77739362D01*
X70341555Y-77784499D01*
X70330180Y-77821995D01*
X70311708Y-77856554D01*
X70286847Y-77886847D01*
X70256554Y-77911708D01*
X70221995Y-77930180D01*
X70184499Y-77941555D01*
X70139362Y-77946000D01*
X69400638Y-77946000D01*
X69355501Y-77941555D01*
X69318005Y-77930180D01*
X69283446Y-77911708D01*
X69253153Y-77886847D01*
X69228292Y-77856554D01*
X69209820Y-77821995D01*
X69198445Y-77784499D01*
X69194000Y-77739362D01*
X69194000Y-77100638D01*
X69198445Y-77055501D01*
X69209820Y-77018005D01*
X69228292Y-76983446D01*
X69253153Y-76953153D01*
X69283446Y-76928292D01*
X69318005Y-76909820D01*
X69355501Y-76898445D01*
X69400638Y-76894000D01*
X70139362Y-76894000D01*
X70184499Y-76898445D01*
G37*
G36*
X71934499Y-76898445D02*
G01*
X71971995Y-76909820D01*
X72006554Y-76928292D01*
X72036847Y-76953153D01*
X72061708Y-76983446D01*
X72080180Y-77018005D01*
X72091555Y-77055501D01*
X72096000Y-77100638D01*
X72096000Y-77739362D01*
X72091555Y-77784499D01*
X72080180Y-77821995D01*
X72061708Y-77856554D01*
X72036847Y-77886847D01*
X72006554Y-77911708D01*
X71971995Y-77930180D01*
X71934499Y-77941555D01*
X71889362Y-77946000D01*
X71150638Y-77946000D01*
X71105501Y-77941555D01*
X71068005Y-77930180D01*
X71033446Y-77911708D01*
X71003153Y-77886847D01*
X70978292Y-77856554D01*
X70959820Y-77821995D01*
X70948445Y-77784499D01*
X70944000Y-77739362D01*
X70944000Y-77100638D01*
X70948445Y-77055501D01*
X70959820Y-77018005D01*
X70978292Y-76983446D01*
X71003153Y-76953153D01*
X71033446Y-76928292D01*
X71068005Y-76909820D01*
X71105501Y-76898445D01*
X71150638Y-76894000D01*
X71889362Y-76894000D01*
X71934499Y-76898445D01*
G37*
G36*
X57513512Y-75293927D02*
G01*
X57662812Y-75323624D01*
X57826784Y-75391544D01*
X57974354Y-75490147D01*
X58099853Y-75615646D01*
X58198456Y-75763216D01*
X58266376Y-75927188D01*
X58301000Y-76101259D01*
X58301000Y-76278741D01*
X58266376Y-76452812D01*
X58198456Y-76616784D01*
X58099853Y-76764354D01*
X57974354Y-76889853D01*
X57826784Y-76988456D01*
X57662812Y-77056376D01*
X57513512Y-77086073D01*
X57488742Y-77091000D01*
X57311258Y-77091000D01*
X57286488Y-77086073D01*
X57137188Y-77056376D01*
X56973216Y-76988456D01*
X56825646Y-76889853D01*
X56700147Y-76764354D01*
X56601544Y-76616784D01*
X56533624Y-76452812D01*
X56499000Y-76278741D01*
X56499000Y-76101259D01*
X56533624Y-75927188D01*
X56601544Y-75763216D01*
X56700147Y-75615646D01*
X56825646Y-75490147D01*
X56973216Y-75391544D01*
X57137188Y-75323624D01*
X57286488Y-75293927D01*
X57311258Y-75289000D01*
X57488742Y-75289000D01*
X57513512Y-75293927D01*
G37*
G36*
X54973512Y-75293927D02*
G01*
X55122812Y-75323624D01*
X55286784Y-75391544D01*
X55434354Y-75490147D01*
X55559853Y-75615646D01*
X55658456Y-75763216D01*
X55726376Y-75927188D01*
X55761000Y-76101259D01*
X55761000Y-76278741D01*
X55726376Y-76452812D01*
X55658456Y-76616784D01*
X55559853Y-76764354D01*
X55434354Y-76889853D01*
X55286784Y-76988456D01*
X55122812Y-77056376D01*
X54973512Y-77086073D01*
X54948742Y-77091000D01*
X54771258Y-77091000D01*
X54746488Y-77086073D01*
X54597188Y-77056376D01*
X54433216Y-76988456D01*
X54285646Y-76889853D01*
X54160147Y-76764354D01*
X54061544Y-76616784D01*
X53993624Y-76452812D01*
X53959000Y-76278741D01*
X53959000Y-76101259D01*
X53993624Y-75927188D01*
X54061544Y-75763216D01*
X54160147Y-75615646D01*
X54285646Y-75490147D01*
X54433216Y-75391544D01*
X54597188Y-75323624D01*
X54746488Y-75293927D01*
X54771258Y-75289000D01*
X54948742Y-75289000D01*
X54973512Y-75293927D01*
G37*
G36*
X69699928Y-75376764D02*
G01*
X69721009Y-75383160D01*
X69740445Y-75393548D01*
X69757476Y-75407524D01*
X69771452Y-75424555D01*
X69781840Y-75443991D01*
X69788236Y-75465072D01*
X69791000Y-75493140D01*
X69791000Y-75956860D01*
X69788236Y-75984928D01*
X69781840Y-76006009D01*
X69771452Y-76025445D01*
X69757476Y-76042476D01*
X69740445Y-76056452D01*
X69721009Y-76066840D01*
X69699928Y-76073236D01*
X69671860Y-76076000D01*
X67858140Y-76076000D01*
X67830072Y-76073236D01*
X67808991Y-76066840D01*
X67789555Y-76056452D01*
X67772524Y-76042476D01*
X67758548Y-76025445D01*
X67748160Y-76006009D01*
X67741764Y-75984928D01*
X67739000Y-75956860D01*
X67739000Y-75493140D01*
X67741764Y-75465072D01*
X67748160Y-75443991D01*
X67758548Y-75424555D01*
X67772524Y-75407524D01*
X67789555Y-75393548D01*
X67808991Y-75383160D01*
X67830072Y-75376764D01*
X67858140Y-75374000D01*
X69671860Y-75374000D01*
X69699928Y-75376764D01*
G37*
G36*
X64749928Y-75376764D02*
G01*
X64771009Y-75383160D01*
X64790445Y-75393548D01*
X64807476Y-75407524D01*
X64821452Y-75424555D01*
X64831840Y-75443991D01*
X64838236Y-75465072D01*
X64841000Y-75493140D01*
X64841000Y-75956860D01*
X64838236Y-75984928D01*
X64831840Y-76006009D01*
X64821452Y-76025445D01*
X64807476Y-76042476D01*
X64790445Y-76056452D01*
X64771009Y-76066840D01*
X64749928Y-76073236D01*
X64721860Y-76076000D01*
X62908140Y-76076000D01*
X62880072Y-76073236D01*
X62858991Y-76066840D01*
X62839555Y-76056452D01*
X62822524Y-76042476D01*
X62808548Y-76025445D01*
X62798160Y-76006009D01*
X62791764Y-75984928D01*
X62789000Y-75956860D01*
X62789000Y-75493140D01*
X62791764Y-75465072D01*
X62798160Y-75443991D01*
X62808548Y-75424555D01*
X62822524Y-75407524D01*
X62839555Y-75393548D01*
X62858991Y-75383160D01*
X62880072Y-75376764D01*
X62908140Y-75374000D01*
X64721860Y-75374000D01*
X64749928Y-75376764D01*
G37*
G36*
X71354499Y-74358445D02*
G01*
X71391995Y-74369820D01*
X71426554Y-74388292D01*
X71456847Y-74413153D01*
X71481708Y-74443446D01*
X71500180Y-74478005D01*
X71511555Y-74515501D01*
X71516000Y-74560638D01*
X71516000Y-75299362D01*
X71511555Y-75344499D01*
X71500180Y-75381995D01*
X71481708Y-75416554D01*
X71456847Y-75446847D01*
X71426554Y-75471708D01*
X71391995Y-75490180D01*
X71354499Y-75501555D01*
X71309362Y-75506000D01*
X70670638Y-75506000D01*
X70625501Y-75501555D01*
X70588005Y-75490180D01*
X70553446Y-75471708D01*
X70523153Y-75446847D01*
X70498292Y-75416554D01*
X70479820Y-75381995D01*
X70468445Y-75344499D01*
X70464000Y-75299362D01*
X70464000Y-74560638D01*
X70468445Y-74515501D01*
X70479820Y-74478005D01*
X70498292Y-74443446D01*
X70523153Y-74413153D01*
X70553446Y-74388292D01*
X70588005Y-74369820D01*
X70625501Y-74358445D01*
X70670638Y-74354000D01*
X71309362Y-74354000D01*
X71354499Y-74358445D01*
G37*
G36*
X64749928Y-74106764D02*
G01*
X64771009Y-74113160D01*
X64790445Y-74123548D01*
X64807476Y-74137524D01*
X64821452Y-74154555D01*
X64831840Y-74173991D01*
X64838236Y-74195072D01*
X64841000Y-74223140D01*
X64841000Y-74686860D01*
X64838236Y-74714928D01*
X64831840Y-74736009D01*
X64821452Y-74755445D01*
X64807476Y-74772476D01*
X64790445Y-74786452D01*
X64771009Y-74796840D01*
X64749928Y-74803236D01*
X64721860Y-74806000D01*
X62908140Y-74806000D01*
X62880072Y-74803236D01*
X62858991Y-74796840D01*
X62839555Y-74786452D01*
X62822524Y-74772476D01*
X62808548Y-74755445D01*
X62798160Y-74736009D01*
X62791764Y-74714928D01*
X62789000Y-74686860D01*
X62789000Y-74223140D01*
X62791764Y-74195072D01*
X62798160Y-74173991D01*
X62808548Y-74154555D01*
X62822524Y-74137524D01*
X62839555Y-74123548D01*
X62858991Y-74113160D01*
X62880072Y-74106764D01*
X62908140Y-74104000D01*
X64721860Y-74104000D01*
X64749928Y-74106764D01*
G37*
G36*
X69699928Y-74106764D02*
G01*
X69721009Y-74113160D01*
X69740445Y-74123548D01*
X69757476Y-74137524D01*
X69771452Y-74154555D01*
X69781840Y-74173991D01*
X69788236Y-74195072D01*
X69791000Y-74223140D01*
X69791000Y-74686860D01*
X69788236Y-74714928D01*
X69781840Y-74736009D01*
X69771452Y-74755445D01*
X69757476Y-74772476D01*
X69740445Y-74786452D01*
X69721009Y-74796840D01*
X69699928Y-74803236D01*
X69671860Y-74806000D01*
X67858140Y-74806000D01*
X67830072Y-74803236D01*
X67808991Y-74796840D01*
X67789555Y-74786452D01*
X67772524Y-74772476D01*
X67758548Y-74755445D01*
X67748160Y-74736009D01*
X67741764Y-74714928D01*
X67739000Y-74686860D01*
X67739000Y-74223140D01*
X67741764Y-74195072D01*
X67748160Y-74173991D01*
X67758548Y-74154555D01*
X67772524Y-74137524D01*
X67789555Y-74123548D01*
X67808991Y-74113160D01*
X67830072Y-74106764D01*
X67858140Y-74104000D01*
X69671860Y-74104000D01*
X69699928Y-74106764D01*
G37*
G36*
X54973512Y-72753927D02*
G01*
X55122812Y-72783624D01*
X55286784Y-72851544D01*
X55434354Y-72950147D01*
X55559853Y-73075646D01*
X55658456Y-73223216D01*
X55726376Y-73387188D01*
X55761000Y-73561259D01*
X55761000Y-73738741D01*
X55726376Y-73912812D01*
X55658456Y-74076784D01*
X55559853Y-74224354D01*
X55434354Y-74349853D01*
X55286784Y-74448456D01*
X55122812Y-74516376D01*
X54973512Y-74546073D01*
X54948742Y-74551000D01*
X54771258Y-74551000D01*
X54746488Y-74546073D01*
X54597188Y-74516376D01*
X54433216Y-74448456D01*
X54285646Y-74349853D01*
X54160147Y-74224354D01*
X54061544Y-74076784D01*
X53993624Y-73912812D01*
X53959000Y-73738741D01*
X53959000Y-73561259D01*
X53993624Y-73387188D01*
X54061544Y-73223216D01*
X54160147Y-73075646D01*
X54285646Y-72950147D01*
X54433216Y-72851544D01*
X54597188Y-72783624D01*
X54746488Y-72753927D01*
X54771258Y-72749000D01*
X54948742Y-72749000D01*
X54973512Y-72753927D01*
G37*
G36*
X57513512Y-72753927D02*
G01*
X57662812Y-72783624D01*
X57826784Y-72851544D01*
X57974354Y-72950147D01*
X58099853Y-73075646D01*
X58198456Y-73223216D01*
X58266376Y-73387188D01*
X58301000Y-73561259D01*
X58301000Y-73738741D01*
X58266376Y-73912812D01*
X58198456Y-74076784D01*
X58099853Y-74224354D01*
X57974354Y-74349853D01*
X57826784Y-74448456D01*
X57662812Y-74516376D01*
X57513512Y-74546073D01*
X57488742Y-74551000D01*
X57311258Y-74551000D01*
X57286488Y-74546073D01*
X57137188Y-74516376D01*
X56973216Y-74448456D01*
X56825646Y-74349853D01*
X56700147Y-74224354D01*
X56601544Y-74076784D01*
X56533624Y-73912812D01*
X56499000Y-73738741D01*
X56499000Y-73561259D01*
X56533624Y-73387188D01*
X56601544Y-73223216D01*
X56700147Y-73075646D01*
X56825646Y-72950147D01*
X56973216Y-72851544D01*
X57137188Y-72783624D01*
X57286488Y-72753927D01*
X57311258Y-72749000D01*
X57488742Y-72749000D01*
X57513512Y-72753927D01*
G37*
G36*
X81237091Y-72968085D02*
G01*
X81271069Y-72978393D01*
X81302390Y-72995134D01*
X81329839Y-73017661D01*
X81352366Y-73045110D01*
X81369107Y-73076431D01*
X81379415Y-73110409D01*
X81383500Y-73151890D01*
X81383500Y-73828110D01*
X81379415Y-73869591D01*
X81369107Y-73903569D01*
X81352366Y-73934890D01*
X81329839Y-73962339D01*
X81302390Y-73984866D01*
X81271069Y-74001607D01*
X81237091Y-74011915D01*
X81195610Y-74016000D01*
X80594390Y-74016000D01*
X80552909Y-74011915D01*
X80518931Y-74001607D01*
X80487610Y-73984866D01*
X80460161Y-73962339D01*
X80437634Y-73934890D01*
X80420893Y-73903569D01*
X80410585Y-73869591D01*
X80406500Y-73828110D01*
X80406500Y-73151890D01*
X80410585Y-73110409D01*
X80420893Y-73076431D01*
X80437634Y-73045110D01*
X80460161Y-73017661D01*
X80487610Y-72995134D01*
X80518931Y-72978393D01*
X80552909Y-72968085D01*
X80594390Y-72964000D01*
X81195610Y-72964000D01*
X81237091Y-72968085D01*
G37*
G36*
X79662091Y-72968085D02*
G01*
X79696069Y-72978393D01*
X79727390Y-72995134D01*
X79754839Y-73017661D01*
X79777366Y-73045110D01*
X79794107Y-73076431D01*
X79804415Y-73110409D01*
X79808500Y-73151890D01*
X79808500Y-73828110D01*
X79804415Y-73869591D01*
X79794107Y-73903569D01*
X79777366Y-73934890D01*
X79754839Y-73962339D01*
X79727390Y-73984866D01*
X79696069Y-74001607D01*
X79662091Y-74011915D01*
X79620610Y-74016000D01*
X79019390Y-74016000D01*
X78977909Y-74011915D01*
X78943931Y-74001607D01*
X78912610Y-73984866D01*
X78885161Y-73962339D01*
X78862634Y-73934890D01*
X78845893Y-73903569D01*
X78835585Y-73869591D01*
X78831500Y-73828110D01*
X78831500Y-73151890D01*
X78835585Y-73110409D01*
X78845893Y-73076431D01*
X78862634Y-73045110D01*
X78885161Y-73017661D01*
X78912610Y-72995134D01*
X78943931Y-72978393D01*
X78977909Y-72968085D01*
X79019390Y-72964000D01*
X79620610Y-72964000D01*
X79662091Y-72968085D01*
G37*
G36*
X71354499Y-72608445D02*
G01*
X71391995Y-72619820D01*
X71426554Y-72638292D01*
X71456847Y-72663153D01*
X71481708Y-72693446D01*
X71500180Y-72728005D01*
X71511555Y-72765501D01*
X71516000Y-72810638D01*
X71516000Y-73549362D01*
X71511555Y-73594499D01*
X71500180Y-73631995D01*
X71481708Y-73666554D01*
X71456847Y-73696847D01*
X71426554Y-73721708D01*
X71391995Y-73740180D01*
X71354499Y-73751555D01*
X71309362Y-73756000D01*
X70670638Y-73756000D01*
X70625501Y-73751555D01*
X70588005Y-73740180D01*
X70553446Y-73721708D01*
X70523153Y-73696847D01*
X70498292Y-73666554D01*
X70479820Y-73631995D01*
X70468445Y-73594499D01*
X70464000Y-73549362D01*
X70464000Y-72810638D01*
X70468445Y-72765501D01*
X70479820Y-72728005D01*
X70498292Y-72693446D01*
X70523153Y-72663153D01*
X70553446Y-72638292D01*
X70588005Y-72619820D01*
X70625501Y-72608445D01*
X70670638Y-72604000D01*
X71309362Y-72604000D01*
X71354499Y-72608445D01*
G37*
G36*
X64749928Y-72836764D02*
G01*
X64771009Y-72843160D01*
X64790445Y-72853548D01*
X64807476Y-72867524D01*
X64821452Y-72884555D01*
X64831840Y-72903991D01*
X64838236Y-72925072D01*
X64841000Y-72953140D01*
X64841000Y-73416860D01*
X64838236Y-73444928D01*
X64831840Y-73466009D01*
X64821452Y-73485445D01*
X64807476Y-73502476D01*
X64790445Y-73516452D01*
X64771009Y-73526840D01*
X64749928Y-73533236D01*
X64721860Y-73536000D01*
X62908140Y-73536000D01*
X62880072Y-73533236D01*
X62858991Y-73526840D01*
X62839555Y-73516452D01*
X62822524Y-73502476D01*
X62808548Y-73485445D01*
X62798160Y-73466009D01*
X62791764Y-73444928D01*
X62789000Y-73416860D01*
X62789000Y-72953140D01*
X62791764Y-72925072D01*
X62798160Y-72903991D01*
X62808548Y-72884555D01*
X62822524Y-72867524D01*
X62839555Y-72853548D01*
X62858991Y-72843160D01*
X62880072Y-72836764D01*
X62908140Y-72834000D01*
X64721860Y-72834000D01*
X64749928Y-72836764D01*
G37*
G36*
X69699928Y-72836764D02*
G01*
X69721009Y-72843160D01*
X69740445Y-72853548D01*
X69757476Y-72867524D01*
X69771452Y-72884555D01*
X69781840Y-72903991D01*
X69788236Y-72925072D01*
X69791000Y-72953140D01*
X69791000Y-73416860D01*
X69788236Y-73444928D01*
X69781840Y-73466009D01*
X69771452Y-73485445D01*
X69757476Y-73502476D01*
X69740445Y-73516452D01*
X69721009Y-73526840D01*
X69699928Y-73533236D01*
X69671860Y-73536000D01*
X67858140Y-73536000D01*
X67830072Y-73533236D01*
X67808991Y-73526840D01*
X67789555Y-73516452D01*
X67772524Y-73502476D01*
X67758548Y-73485445D01*
X67748160Y-73466009D01*
X67741764Y-73444928D01*
X67739000Y-73416860D01*
X67739000Y-72953140D01*
X67741764Y-72925072D01*
X67748160Y-72903991D01*
X67758548Y-72884555D01*
X67772524Y-72867524D01*
X67789555Y-72853548D01*
X67808991Y-72843160D01*
X67830072Y-72836764D01*
X67858140Y-72834000D01*
X69671860Y-72834000D01*
X69699928Y-72836764D01*
G37*
G36*
X81418604Y-69708347D02*
G01*
X81455144Y-69719432D01*
X81488821Y-69737433D01*
X81518341Y-69761659D01*
X81542567Y-69791179D01*
X81560568Y-69824856D01*
X81571653Y-69861396D01*
X81576000Y-69905538D01*
X81576000Y-72254462D01*
X81571653Y-72298604D01*
X81560568Y-72335144D01*
X81542567Y-72368821D01*
X81518341Y-72398341D01*
X81488821Y-72422567D01*
X81455144Y-72440568D01*
X81418604Y-72451653D01*
X81374462Y-72456000D01*
X80425538Y-72456000D01*
X80381396Y-72451653D01*
X80344856Y-72440568D01*
X80311179Y-72422567D01*
X80281659Y-72398341D01*
X80257433Y-72368821D01*
X80239432Y-72335144D01*
X80228347Y-72298604D01*
X80224000Y-72254462D01*
X80224000Y-69905538D01*
X80228347Y-69861396D01*
X80239432Y-69824856D01*
X80257433Y-69791179D01*
X80281659Y-69761659D01*
X80311179Y-69737433D01*
X80344856Y-69719432D01*
X80381396Y-69708347D01*
X80425538Y-69704000D01*
X81374462Y-69704000D01*
X81418604Y-69708347D01*
G37*
G36*
X78618604Y-69708347D02*
G01*
X78655144Y-69719432D01*
X78688821Y-69737433D01*
X78718341Y-69761659D01*
X78742567Y-69791179D01*
X78760568Y-69824856D01*
X78771653Y-69861396D01*
X78776000Y-69905538D01*
X78776000Y-72254462D01*
X78771653Y-72298604D01*
X78760568Y-72335144D01*
X78742567Y-72368821D01*
X78718341Y-72398341D01*
X78688821Y-72422567D01*
X78655144Y-72440568D01*
X78618604Y-72451653D01*
X78574462Y-72456000D01*
X77625538Y-72456000D01*
X77581396Y-72451653D01*
X77544856Y-72440568D01*
X77511179Y-72422567D01*
X77481659Y-72398341D01*
X77457433Y-72368821D01*
X77439432Y-72335144D01*
X77428347Y-72298604D01*
X77424000Y-72254462D01*
X77424000Y-69905538D01*
X77428347Y-69861396D01*
X77439432Y-69824856D01*
X77457433Y-69791179D01*
X77481659Y-69761659D01*
X77511179Y-69737433D01*
X77544856Y-69719432D01*
X77581396Y-69708347D01*
X77625538Y-69704000D01*
X78574462Y-69704000D01*
X78618604Y-69708347D01*
G37*
G36*
X85669672Y-71538449D02*
G01*
X85669674Y-71538450D01*
X85669675Y-71538450D01*
X85738103Y-71566793D01*
X85799686Y-71607942D01*
X85852058Y-71660314D01*
X85893207Y-71721897D01*
X85921550Y-71790325D01*
X85921551Y-71790328D01*
X85925435Y-71809853D01*
X85936000Y-71862967D01*
X85936000Y-71937033D01*
X85921550Y-72009675D01*
X85893207Y-72078103D01*
X85852058Y-72139686D01*
X85799686Y-72192058D01*
X85738103Y-72233207D01*
X85669675Y-72261550D01*
X85669674Y-72261550D01*
X85669672Y-72261551D01*
X85597034Y-72276000D01*
X85522966Y-72276000D01*
X85450328Y-72261551D01*
X85450326Y-72261550D01*
X85450325Y-72261550D01*
X85381897Y-72233207D01*
X85320314Y-72192058D01*
X85267942Y-72139686D01*
X85226793Y-72078103D01*
X85198450Y-72009675D01*
X85184000Y-71937033D01*
X85184000Y-71862967D01*
X85194565Y-71809853D01*
X85198449Y-71790328D01*
X85198450Y-71790325D01*
X85226793Y-71721897D01*
X85267942Y-71660314D01*
X85320314Y-71607942D01*
X85381897Y-71566793D01*
X85450325Y-71538450D01*
X85450326Y-71538450D01*
X85450328Y-71538449D01*
X85522966Y-71524000D01*
X85597034Y-71524000D01*
X85669672Y-71538449D01*
G37*
G36*
X64749928Y-71566764D02*
G01*
X64771009Y-71573160D01*
X64790445Y-71583548D01*
X64807476Y-71597524D01*
X64821452Y-71614555D01*
X64831840Y-71633991D01*
X64838236Y-71655072D01*
X64841000Y-71683140D01*
X64841000Y-72146860D01*
X64838236Y-72174928D01*
X64831840Y-72196009D01*
X64821452Y-72215445D01*
X64807476Y-72232476D01*
X64790445Y-72246452D01*
X64771009Y-72256840D01*
X64749928Y-72263236D01*
X64721860Y-72266000D01*
X62908140Y-72266000D01*
X62880072Y-72263236D01*
X62858991Y-72256840D01*
X62839555Y-72246452D01*
X62822524Y-72232476D01*
X62808548Y-72215445D01*
X62798160Y-72196009D01*
X62791764Y-72174928D01*
X62789000Y-72146860D01*
X62789000Y-71683140D01*
X62791764Y-71655072D01*
X62798160Y-71633991D01*
X62808548Y-71614555D01*
X62822524Y-71597524D01*
X62839555Y-71583548D01*
X62858991Y-71573160D01*
X62880072Y-71566764D01*
X62908140Y-71564000D01*
X64721860Y-71564000D01*
X64749928Y-71566764D01*
G37*
G36*
X69699928Y-71566764D02*
G01*
X69721009Y-71573160D01*
X69740445Y-71583548D01*
X69757476Y-71597524D01*
X69771452Y-71614555D01*
X69781840Y-71633991D01*
X69788236Y-71655072D01*
X69791000Y-71683140D01*
X69791000Y-72146860D01*
X69788236Y-72174928D01*
X69781840Y-72196009D01*
X69771452Y-72215445D01*
X69757476Y-72232476D01*
X69740445Y-72246452D01*
X69721009Y-72256840D01*
X69699928Y-72263236D01*
X69671860Y-72266000D01*
X67858140Y-72266000D01*
X67830072Y-72263236D01*
X67808991Y-72256840D01*
X67789555Y-72246452D01*
X67772524Y-72232476D01*
X67758548Y-72215445D01*
X67748160Y-72196009D01*
X67741764Y-72174928D01*
X67739000Y-72146860D01*
X67739000Y-71683140D01*
X67741764Y-71655072D01*
X67748160Y-71633991D01*
X67758548Y-71614555D01*
X67772524Y-71597524D01*
X67789555Y-71583548D01*
X67808991Y-71573160D01*
X67830072Y-71566764D01*
X67858140Y-71564000D01*
X69671860Y-71564000D01*
X69699928Y-71566764D01*
G37*
G36*
X54973512Y-70213927D02*
G01*
X55122812Y-70243624D01*
X55286784Y-70311544D01*
X55434354Y-70410147D01*
X55559853Y-70535646D01*
X55658456Y-70683216D01*
X55726376Y-70847188D01*
X55751921Y-70975613D01*
X55760949Y-71021000D01*
X55761000Y-71021259D01*
X55761000Y-71198741D01*
X55726376Y-71372812D01*
X55658456Y-71536784D01*
X55559853Y-71684354D01*
X55434354Y-71809853D01*
X55286784Y-71908456D01*
X55122812Y-71976376D01*
X54973512Y-72006073D01*
X54948742Y-72011000D01*
X54771258Y-72011000D01*
X54746488Y-72006073D01*
X54597188Y-71976376D01*
X54433216Y-71908456D01*
X54285646Y-71809853D01*
X54160147Y-71684354D01*
X54061544Y-71536784D01*
X53993624Y-71372812D01*
X53959000Y-71198741D01*
X53959000Y-71021259D01*
X53959052Y-71021000D01*
X53968079Y-70975613D01*
X53993624Y-70847188D01*
X54061544Y-70683216D01*
X54160147Y-70535646D01*
X54285646Y-70410147D01*
X54433216Y-70311544D01*
X54597188Y-70243624D01*
X54746488Y-70213927D01*
X54771258Y-70209000D01*
X54948742Y-70209000D01*
X54973512Y-70213927D01*
G37*
G36*
X57513512Y-70213927D02*
G01*
X57662812Y-70243624D01*
X57826784Y-70311544D01*
X57974354Y-70410147D01*
X58099853Y-70535646D01*
X58198456Y-70683216D01*
X58266376Y-70847188D01*
X58291921Y-70975613D01*
X58300949Y-71021000D01*
X58301000Y-71021259D01*
X58301000Y-71198741D01*
X58266376Y-71372812D01*
X58198456Y-71536784D01*
X58099853Y-71684354D01*
X57974354Y-71809853D01*
X57826784Y-71908456D01*
X57662812Y-71976376D01*
X57513512Y-72006073D01*
X57488742Y-72011000D01*
X57311258Y-72011000D01*
X57286488Y-72006073D01*
X57137188Y-71976376D01*
X56973216Y-71908456D01*
X56825646Y-71809853D01*
X56700147Y-71684354D01*
X56601544Y-71536784D01*
X56533624Y-71372812D01*
X56499000Y-71198741D01*
X56499000Y-71021259D01*
X56499052Y-71021000D01*
X56508079Y-70975613D01*
X56533624Y-70847188D01*
X56601544Y-70683216D01*
X56700147Y-70535646D01*
X56825646Y-70410147D01*
X56973216Y-70311544D01*
X57137188Y-70243624D01*
X57286488Y-70213927D01*
X57311258Y-70209000D01*
X57488742Y-70209000D01*
X57513512Y-70213927D01*
G37*
G36*
X89618015Y-69926973D02*
G01*
X89721879Y-69958479D01*
X89749055Y-69973005D01*
X89817600Y-70009643D01*
X89901501Y-70078499D01*
X89970357Y-70162400D01*
X89995265Y-70209000D01*
X90021521Y-70258121D01*
X90053027Y-70361985D01*
X90063666Y-70470000D01*
X90053027Y-70578015D01*
X90021521Y-70681879D01*
X90021519Y-70681882D01*
X89970357Y-70777600D01*
X89901501Y-70861501D01*
X89817600Y-70930357D01*
X89762014Y-70960068D01*
X89721879Y-70981521D01*
X89618015Y-71013027D01*
X89537067Y-71021000D01*
X88882933Y-71021000D01*
X88801985Y-71013027D01*
X88698121Y-70981521D01*
X88657986Y-70960068D01*
X88602400Y-70930357D01*
X88518499Y-70861501D01*
X88449643Y-70777600D01*
X88398481Y-70681882D01*
X88398479Y-70681879D01*
X88366973Y-70578015D01*
X88356334Y-70470000D01*
X88366973Y-70361985D01*
X88398479Y-70258121D01*
X88424735Y-70209000D01*
X88449643Y-70162400D01*
X88518499Y-70078499D01*
X88602400Y-70009643D01*
X88670945Y-69973005D01*
X88698121Y-69958479D01*
X88801985Y-69926973D01*
X88882933Y-69919000D01*
X89537067Y-69919000D01*
X89618015Y-69926973D01*
G37*
G36*
X69174499Y-69748445D02*
G01*
X69211995Y-69759820D01*
X69246554Y-69778292D01*
X69276847Y-69803153D01*
X69301708Y-69833446D01*
X69320180Y-69868005D01*
X69331555Y-69905501D01*
X69336000Y-69950638D01*
X69336000Y-70589362D01*
X69331555Y-70634499D01*
X69320180Y-70671995D01*
X69301708Y-70706554D01*
X69276847Y-70736847D01*
X69246554Y-70761708D01*
X69211995Y-70780180D01*
X69174499Y-70791555D01*
X69129362Y-70796000D01*
X68390638Y-70796000D01*
X68345501Y-70791555D01*
X68308005Y-70780180D01*
X68273446Y-70761708D01*
X68243153Y-70736847D01*
X68218292Y-70706554D01*
X68199820Y-70671995D01*
X68188445Y-70634499D01*
X68184000Y-70589362D01*
X68184000Y-69950638D01*
X68188445Y-69905501D01*
X68199820Y-69868005D01*
X68218292Y-69833446D01*
X68243153Y-69803153D01*
X68273446Y-69778292D01*
X68308005Y-69759820D01*
X68345501Y-69748445D01*
X68390638Y-69744000D01*
X69129362Y-69744000D01*
X69174499Y-69748445D01*
G37*
G36*
X67424499Y-69748445D02*
G01*
X67461995Y-69759820D01*
X67496554Y-69778292D01*
X67526847Y-69803153D01*
X67551708Y-69833446D01*
X67570180Y-69868005D01*
X67581555Y-69905501D01*
X67586000Y-69950638D01*
X67586000Y-70589362D01*
X67581555Y-70634499D01*
X67570180Y-70671995D01*
X67551708Y-70706554D01*
X67526847Y-70736847D01*
X67496554Y-70761708D01*
X67461995Y-70780180D01*
X67424499Y-70791555D01*
X67379362Y-70796000D01*
X66640638Y-70796000D01*
X66595501Y-70791555D01*
X66558005Y-70780180D01*
X66523446Y-70761708D01*
X66493153Y-70736847D01*
X66468292Y-70706554D01*
X66449820Y-70671995D01*
X66438445Y-70634499D01*
X66434000Y-70589362D01*
X66434000Y-69950638D01*
X66438445Y-69905501D01*
X66449820Y-69868005D01*
X66468292Y-69833446D01*
X66493153Y-69803153D01*
X66523446Y-69778292D01*
X66558005Y-69759820D01*
X66595501Y-69748445D01*
X66640638Y-69744000D01*
X67379362Y-69744000D01*
X67424499Y-69748445D01*
G37*
G36*
X54973512Y-67673927D02*
G01*
X55122812Y-67703624D01*
X55286784Y-67771544D01*
X55434354Y-67870147D01*
X55559853Y-67995646D01*
X55658456Y-68143216D01*
X55726376Y-68307188D01*
X55761000Y-68481259D01*
X55761000Y-68658741D01*
X55726376Y-68832812D01*
X55658456Y-68996784D01*
X55559853Y-69144354D01*
X55434354Y-69269853D01*
X55286784Y-69368456D01*
X55122812Y-69436376D01*
X54973512Y-69466073D01*
X54948742Y-69471000D01*
X54771258Y-69471000D01*
X54746488Y-69466073D01*
X54597188Y-69436376D01*
X54433216Y-69368456D01*
X54285646Y-69269853D01*
X54160147Y-69144354D01*
X54061544Y-68996784D01*
X53993624Y-68832812D01*
X53959000Y-68658741D01*
X53959000Y-68481259D01*
X53993624Y-68307188D01*
X54061544Y-68143216D01*
X54160147Y-67995646D01*
X54285646Y-67870147D01*
X54433216Y-67771544D01*
X54597188Y-67703624D01*
X54746488Y-67673927D01*
X54771258Y-67669000D01*
X54948742Y-67669000D01*
X54973512Y-67673927D01*
G37*
G36*
X57513512Y-67673927D02*
G01*
X57662812Y-67703624D01*
X57826784Y-67771544D01*
X57974354Y-67870147D01*
X58099853Y-67995646D01*
X58198456Y-68143216D01*
X58266376Y-68307188D01*
X58301000Y-68481259D01*
X58301000Y-68658741D01*
X58266376Y-68832812D01*
X58198456Y-68996784D01*
X58099853Y-69144354D01*
X57974354Y-69269853D01*
X57826784Y-69368456D01*
X57662812Y-69436376D01*
X57513512Y-69466073D01*
X57488742Y-69471000D01*
X57311258Y-69471000D01*
X57286488Y-69466073D01*
X57137188Y-69436376D01*
X56973216Y-69368456D01*
X56825646Y-69269853D01*
X56700147Y-69144354D01*
X56601544Y-68996784D01*
X56533624Y-68832812D01*
X56499000Y-68658741D01*
X56499000Y-68481259D01*
X56533624Y-68307188D01*
X56601544Y-68143216D01*
X56700147Y-67995646D01*
X56825646Y-67870147D01*
X56973216Y-67771544D01*
X57137188Y-67703624D01*
X57286488Y-67673927D01*
X57311258Y-67669000D01*
X57488742Y-67669000D01*
X57513512Y-67673927D01*
G37*
G36*
X84511000Y-68421000D02*
G01*
X82409000Y-68421000D01*
X82409000Y-67419000D01*
X84511000Y-67419000D01*
X84511000Y-68421000D01*
G37*
G36*
X67511000Y-68421000D02*
G01*
X65409000Y-68421000D01*
X65409000Y-67419000D01*
X67511000Y-67419000D01*
X67511000Y-68421000D01*
G37*
G36*
X88315936Y-65181340D02*
G01*
X88414220Y-65191020D01*
X88603381Y-65248401D01*
X88777712Y-65341583D01*
X88930515Y-65466985D01*
X89055917Y-65619788D01*
X89149099Y-65794119D01*
X89206480Y-65983280D01*
X89225855Y-66180000D01*
X89206480Y-66376720D01*
X89149099Y-66565881D01*
X89055917Y-66740212D01*
X88930515Y-66893015D01*
X88777712Y-67018417D01*
X88603381Y-67111599D01*
X88414220Y-67168980D01*
X88315936Y-67178660D01*
X88266795Y-67183500D01*
X88073205Y-67183500D01*
X88024064Y-67178660D01*
X87925780Y-67168980D01*
X87736619Y-67111599D01*
X87562288Y-67018417D01*
X87409485Y-66893015D01*
X87284083Y-66740212D01*
X87190901Y-66565881D01*
X87133520Y-66376720D01*
X87114145Y-66180000D01*
X87133520Y-65983280D01*
X87190901Y-65794119D01*
X87284083Y-65619788D01*
X87409485Y-65466985D01*
X87562288Y-65341583D01*
X87736619Y-65248401D01*
X87925780Y-65191020D01*
X88024064Y-65181340D01*
X88073205Y-65176500D01*
X88266795Y-65176500D01*
X88315936Y-65181340D01*
G37*
G36*
X84511000Y-67151000D02*
G01*
X82409000Y-67151000D01*
X82409000Y-66149000D01*
X84511000Y-66149000D01*
X84511000Y-67151000D01*
G37*
G36*
X67511000Y-67151000D02*
G01*
X65409000Y-67151000D01*
X65409000Y-66149000D01*
X67511000Y-66149000D01*
X67511000Y-67151000D01*
G37*
G36*
X54973512Y-65133927D02*
G01*
X55122812Y-65163624D01*
X55286784Y-65231544D01*
X55434354Y-65330147D01*
X55559853Y-65455646D01*
X55658456Y-65603216D01*
X55726376Y-65767188D01*
X55761000Y-65941259D01*
X55761000Y-66118741D01*
X55726376Y-66292812D01*
X55658456Y-66456784D01*
X55559853Y-66604354D01*
X55434354Y-66729853D01*
X55286784Y-66828456D01*
X55122812Y-66896376D01*
X54973512Y-66926073D01*
X54948742Y-66931000D01*
X54771258Y-66931000D01*
X54746488Y-66926073D01*
X54597188Y-66896376D01*
X54433216Y-66828456D01*
X54285646Y-66729853D01*
X54160147Y-66604354D01*
X54061544Y-66456784D01*
X53993624Y-66292812D01*
X53959000Y-66118741D01*
X53959000Y-65941259D01*
X53993624Y-65767188D01*
X54061544Y-65603216D01*
X54160147Y-65455646D01*
X54285646Y-65330147D01*
X54433216Y-65231544D01*
X54597188Y-65163624D01*
X54746488Y-65133927D01*
X54771258Y-65129000D01*
X54948742Y-65129000D01*
X54973512Y-65133927D01*
G37*
G36*
X57513512Y-65133927D02*
G01*
X57662812Y-65163624D01*
X57826784Y-65231544D01*
X57974354Y-65330147D01*
X58099853Y-65455646D01*
X58198456Y-65603216D01*
X58266376Y-65767188D01*
X58301000Y-65941259D01*
X58301000Y-66118741D01*
X58266376Y-66292812D01*
X58198456Y-66456784D01*
X58099853Y-66604354D01*
X57974354Y-66729853D01*
X57826784Y-66828456D01*
X57662812Y-66896376D01*
X57513512Y-66926073D01*
X57488742Y-66931000D01*
X57311258Y-66931000D01*
X57286488Y-66926073D01*
X57137188Y-66896376D01*
X56973216Y-66828456D01*
X56825646Y-66729853D01*
X56700147Y-66604354D01*
X56601544Y-66456784D01*
X56533624Y-66292812D01*
X56499000Y-66118741D01*
X56499000Y-65941259D01*
X56533624Y-65767188D01*
X56601544Y-65603216D01*
X56700147Y-65455646D01*
X56825646Y-65330147D01*
X56973216Y-65231544D01*
X57137188Y-65163624D01*
X57286488Y-65133927D01*
X57311258Y-65129000D01*
X57488742Y-65129000D01*
X57513512Y-65133927D01*
G37*
G36*
X67511000Y-65881000D02*
G01*
X65409000Y-65881000D01*
X65409000Y-64879000D01*
X67511000Y-64879000D01*
X67511000Y-65881000D01*
G37*
G36*
X84511000Y-65881000D02*
G01*
X82409000Y-65881000D01*
X82409000Y-64879000D01*
X84511000Y-64879000D01*
X84511000Y-65881000D01*
G37*
G36*
X88315936Y-62641340D02*
G01*
X88414220Y-62651020D01*
X88603381Y-62708401D01*
X88777712Y-62801583D01*
X88930515Y-62926985D01*
X89055917Y-63079788D01*
X89149099Y-63254119D01*
X89206480Y-63443280D01*
X89225855Y-63640000D01*
X89206480Y-63836720D01*
X89149099Y-64025881D01*
X89055917Y-64200212D01*
X88930515Y-64353015D01*
X88777712Y-64478417D01*
X88603381Y-64571599D01*
X88414220Y-64628980D01*
X88315936Y-64638660D01*
X88266795Y-64643500D01*
X88073205Y-64643500D01*
X88024064Y-64638660D01*
X87925780Y-64628980D01*
X87736619Y-64571599D01*
X87562288Y-64478417D01*
X87409485Y-64353015D01*
X87284083Y-64200212D01*
X87190901Y-64025881D01*
X87133520Y-63836720D01*
X87114145Y-63640000D01*
X87133520Y-63443280D01*
X87190901Y-63254119D01*
X87284083Y-63079788D01*
X87409485Y-62926985D01*
X87562288Y-62801583D01*
X87736619Y-62708401D01*
X87925780Y-62651020D01*
X88024064Y-62641340D01*
X88073205Y-62636500D01*
X88266795Y-62636500D01*
X88315936Y-62641340D01*
G37*
G36*
X84511000Y-64611000D02*
G01*
X82409000Y-64611000D01*
X82409000Y-63609000D01*
X84511000Y-63609000D01*
X84511000Y-64611000D01*
G37*
G36*
X67511000Y-64611000D02*
G01*
X65409000Y-64611000D01*
X65409000Y-63609000D01*
X67511000Y-63609000D01*
X67511000Y-64611000D01*
G37*
G36*
X54973512Y-62593927D02*
G01*
X55122812Y-62623624D01*
X55286784Y-62691544D01*
X55434354Y-62790147D01*
X55559853Y-62915646D01*
X55658456Y-63063216D01*
X55726376Y-63227188D01*
X55761000Y-63401259D01*
X55761000Y-63578741D01*
X55726376Y-63752812D01*
X55658456Y-63916784D01*
X55559853Y-64064354D01*
X55434354Y-64189853D01*
X55286784Y-64288456D01*
X55122812Y-64356376D01*
X54973512Y-64386073D01*
X54948742Y-64391000D01*
X54771258Y-64391000D01*
X54746488Y-64386073D01*
X54597188Y-64356376D01*
X54433216Y-64288456D01*
X54285646Y-64189853D01*
X54160147Y-64064354D01*
X54061544Y-63916784D01*
X53993624Y-63752812D01*
X53959000Y-63578741D01*
X53959000Y-63401259D01*
X53993624Y-63227188D01*
X54061544Y-63063216D01*
X54160147Y-62915646D01*
X54285646Y-62790147D01*
X54433216Y-62691544D01*
X54597188Y-62623624D01*
X54746488Y-62593927D01*
X54771258Y-62589000D01*
X54948742Y-62589000D01*
X54973512Y-62593927D01*
G37*
G36*
X57513512Y-62593927D02*
G01*
X57662812Y-62623624D01*
X57826784Y-62691544D01*
X57974354Y-62790147D01*
X58099853Y-62915646D01*
X58198456Y-63063216D01*
X58266376Y-63227188D01*
X58301000Y-63401259D01*
X58301000Y-63578741D01*
X58266376Y-63752812D01*
X58198456Y-63916784D01*
X58099853Y-64064354D01*
X57974354Y-64189853D01*
X57826784Y-64288456D01*
X57662812Y-64356376D01*
X57513512Y-64386073D01*
X57488742Y-64391000D01*
X57311258Y-64391000D01*
X57286488Y-64386073D01*
X57137188Y-64356376D01*
X56973216Y-64288456D01*
X56825646Y-64189853D01*
X56700147Y-64064354D01*
X56601544Y-63916784D01*
X56533624Y-63752812D01*
X56499000Y-63578741D01*
X56499000Y-63401259D01*
X56533624Y-63227188D01*
X56601544Y-63063216D01*
X56700147Y-62915646D01*
X56825646Y-62790147D01*
X56973216Y-62691544D01*
X57137188Y-62623624D01*
X57286488Y-62593927D01*
X57311258Y-62589000D01*
X57488742Y-62589000D01*
X57513512Y-62593927D01*
G37*
G36*
X84511000Y-63341000D02*
G01*
X82409000Y-63341000D01*
X82409000Y-62339000D01*
X84511000Y-62339000D01*
X84511000Y-63341000D01*
G37*
G36*
X67511000Y-63341000D02*
G01*
X65409000Y-63341000D01*
X65409000Y-62339000D01*
X67511000Y-62339000D01*
X67511000Y-63341000D01*
G37*
G36*
X89221000Y-62103500D02*
G01*
X87119000Y-62103500D01*
X87119000Y-60096500D01*
X89221000Y-60096500D01*
X89221000Y-62103500D01*
G37*
G36*
X84511000Y-62071000D02*
G01*
X82409000Y-62071000D01*
X82409000Y-61069000D01*
X84511000Y-61069000D01*
X84511000Y-62071000D01*
G37*
G36*
X67511000Y-62071000D02*
G01*
X65409000Y-62071000D01*
X65409000Y-61069000D01*
X67511000Y-61069000D01*
X67511000Y-62071000D01*
G37*
G36*
X57513512Y-60053927D02*
G01*
X57662812Y-60083624D01*
X57826784Y-60151544D01*
X57974354Y-60250147D01*
X58099853Y-60375646D01*
X58198456Y-60523216D01*
X58266376Y-60687188D01*
X58301000Y-60861259D01*
X58301000Y-61038741D01*
X58266376Y-61212812D01*
X58198456Y-61376784D01*
X58099853Y-61524354D01*
X57974354Y-61649853D01*
X57826784Y-61748456D01*
X57662812Y-61816376D01*
X57513512Y-61846073D01*
X57488742Y-61851000D01*
X57311258Y-61851000D01*
X57286488Y-61846073D01*
X57137188Y-61816376D01*
X56973216Y-61748456D01*
X56825646Y-61649853D01*
X56700147Y-61524354D01*
X56601544Y-61376784D01*
X56533624Y-61212812D01*
X56499000Y-61038741D01*
X56499000Y-60861259D01*
X56533624Y-60687188D01*
X56601544Y-60523216D01*
X56700147Y-60375646D01*
X56825646Y-60250147D01*
X56973216Y-60151544D01*
X57137188Y-60083624D01*
X57286488Y-60053927D01*
X57311258Y-60049000D01*
X57488742Y-60049000D01*
X57513512Y-60053927D01*
G37*
G36*
X54973512Y-60053927D02*
G01*
X55122812Y-60083624D01*
X55286784Y-60151544D01*
X55434354Y-60250147D01*
X55559853Y-60375646D01*
X55658456Y-60523216D01*
X55726376Y-60687188D01*
X55761000Y-60861259D01*
X55761000Y-61038741D01*
X55726376Y-61212812D01*
X55658456Y-61376784D01*
X55559853Y-61524354D01*
X55434354Y-61649853D01*
X55286784Y-61748456D01*
X55122812Y-61816376D01*
X54973512Y-61846073D01*
X54948742Y-61851000D01*
X54771258Y-61851000D01*
X54746488Y-61846073D01*
X54597188Y-61816376D01*
X54433216Y-61748456D01*
X54285646Y-61649853D01*
X54160147Y-61524354D01*
X54061544Y-61376784D01*
X53993624Y-61212812D01*
X53959000Y-61038741D01*
X53959000Y-60861259D01*
X53993624Y-60687188D01*
X54061544Y-60523216D01*
X54160147Y-60375646D01*
X54285646Y-60250147D01*
X54433216Y-60151544D01*
X54597188Y-60083624D01*
X54746488Y-60053927D01*
X54771258Y-60049000D01*
X54948742Y-60049000D01*
X54973512Y-60053927D01*
G37*
G36*
X67511000Y-60801000D02*
G01*
X65409000Y-60801000D01*
X65409000Y-59799000D01*
X67511000Y-59799000D01*
X67511000Y-60801000D01*
G37*
G36*
X84511000Y-60801000D02*
G01*
X82409000Y-60801000D01*
X82409000Y-59799000D01*
X84511000Y-59799000D01*
X84511000Y-60801000D01*
G37*
G36*
X84511000Y-59531000D02*
G01*
X82409000Y-59531000D01*
X82409000Y-58529000D01*
X84511000Y-58529000D01*
X84511000Y-59531000D01*
G37*
G36*
X67511000Y-59531000D02*
G01*
X65409000Y-59531000D01*
X65409000Y-58529000D01*
X67511000Y-58529000D01*
X67511000Y-59531000D01*
G37*
G36*
X57513512Y-57513927D02*
G01*
X57662812Y-57543624D01*
X57826784Y-57611544D01*
X57974354Y-57710147D01*
X58099853Y-57835646D01*
X58198456Y-57983216D01*
X58266376Y-58147188D01*
X58301000Y-58321259D01*
X58301000Y-58498741D01*
X58266376Y-58672812D01*
X58198456Y-58836784D01*
X58099853Y-58984354D01*
X57974354Y-59109853D01*
X57826784Y-59208456D01*
X57662812Y-59276376D01*
X57513512Y-59306073D01*
X57488742Y-59311000D01*
X57311258Y-59311000D01*
X57286488Y-59306073D01*
X57137188Y-59276376D01*
X56973216Y-59208456D01*
X56825646Y-59109853D01*
X56700147Y-58984354D01*
X56601544Y-58836784D01*
X56533624Y-58672812D01*
X56499000Y-58498741D01*
X56499000Y-58321259D01*
X56533624Y-58147188D01*
X56601544Y-57983216D01*
X56700147Y-57835646D01*
X56825646Y-57710147D01*
X56973216Y-57611544D01*
X57137188Y-57543624D01*
X57286488Y-57513927D01*
X57311258Y-57509000D01*
X57488742Y-57509000D01*
X57513512Y-57513927D01*
G37*
G36*
X54973512Y-57513927D02*
G01*
X55122812Y-57543624D01*
X55286784Y-57611544D01*
X55434354Y-57710147D01*
X55559853Y-57835646D01*
X55658456Y-57983216D01*
X55726376Y-58147188D01*
X55761000Y-58321259D01*
X55761000Y-58498741D01*
X55726376Y-58672812D01*
X55658456Y-58836784D01*
X55559853Y-58984354D01*
X55434354Y-59109853D01*
X55286784Y-59208456D01*
X55122812Y-59276376D01*
X54973512Y-59306073D01*
X54948742Y-59311000D01*
X54771258Y-59311000D01*
X54746488Y-59306073D01*
X54597188Y-59276376D01*
X54433216Y-59208456D01*
X54285646Y-59109853D01*
X54160147Y-58984354D01*
X54061544Y-58836784D01*
X53993624Y-58672812D01*
X53959000Y-58498741D01*
X53959000Y-58321259D01*
X53993624Y-58147188D01*
X54061544Y-57983216D01*
X54160147Y-57835646D01*
X54285646Y-57710147D01*
X54433216Y-57611544D01*
X54597188Y-57543624D01*
X54746488Y-57513927D01*
X54771258Y-57509000D01*
X54948742Y-57509000D01*
X54973512Y-57513927D01*
G37*
G36*
X84511000Y-58261000D02*
G01*
X82409000Y-58261000D01*
X82409000Y-57259000D01*
X84511000Y-57259000D01*
X84511000Y-58261000D01*
G37*
G36*
X67511000Y-58261000D02*
G01*
X65409000Y-58261000D01*
X65409000Y-57259000D01*
X67511000Y-57259000D01*
X67511000Y-58261000D01*
G37*
G36*
X90701000Y-57101000D02*
G01*
X88899000Y-57101000D01*
X88899000Y-55299000D01*
X90701000Y-55299000D01*
X90701000Y-57101000D01*
G37*
G36*
X87373512Y-55303927D02*
G01*
X87522812Y-55333624D01*
X87686784Y-55401544D01*
X87834354Y-55500147D01*
X87959853Y-55625646D01*
X88058456Y-55773216D01*
X88126376Y-55937188D01*
X88161000Y-56111259D01*
X88161000Y-56288741D01*
X88126376Y-56462812D01*
X88058456Y-56626784D01*
X87959853Y-56774354D01*
X87834354Y-56899853D01*
X87686784Y-56998456D01*
X87522812Y-57066376D01*
X87373512Y-57096073D01*
X87348742Y-57101000D01*
X87171258Y-57101000D01*
X87146488Y-57096073D01*
X86997188Y-57066376D01*
X86833216Y-56998456D01*
X86685646Y-56899853D01*
X86560147Y-56774354D01*
X86461544Y-56626784D01*
X86393624Y-56462812D01*
X86359000Y-56288741D01*
X86359000Y-56111259D01*
X86393624Y-55937188D01*
X86461544Y-55773216D01*
X86560147Y-55625646D01*
X86685646Y-55500147D01*
X86833216Y-55401544D01*
X86997188Y-55333624D01*
X87146488Y-55303927D01*
X87171258Y-55299000D01*
X87348742Y-55299000D01*
X87373512Y-55303927D01*
G37*
G36*
X84511000Y-56991000D02*
G01*
X82409000Y-56991000D01*
X82409000Y-55989000D01*
X84511000Y-55989000D01*
X84511000Y-56991000D01*
G37*
G36*
X67511000Y-56991000D02*
G01*
X65409000Y-56991000D01*
X65409000Y-55989000D01*
X67511000Y-55989000D01*
X67511000Y-56991000D01*
G37*
G36*
X54973512Y-54973927D02*
G01*
X55122812Y-55003624D01*
X55286784Y-55071544D01*
X55434354Y-55170147D01*
X55559853Y-55295646D01*
X55658456Y-55443216D01*
X55726376Y-55607188D01*
X55761000Y-55781259D01*
X55761000Y-55958741D01*
X55726376Y-56132812D01*
X55658456Y-56296784D01*
X55559853Y-56444354D01*
X55434354Y-56569853D01*
X55286784Y-56668456D01*
X55122812Y-56736376D01*
X54973512Y-56766073D01*
X54948742Y-56771000D01*
X54771258Y-56771000D01*
X54746488Y-56766073D01*
X54597188Y-56736376D01*
X54433216Y-56668456D01*
X54285646Y-56569853D01*
X54160147Y-56444354D01*
X54061544Y-56296784D01*
X53993624Y-56132812D01*
X53959000Y-55958741D01*
X53959000Y-55781259D01*
X53993624Y-55607188D01*
X54061544Y-55443216D01*
X54160147Y-55295646D01*
X54285646Y-55170147D01*
X54433216Y-55071544D01*
X54597188Y-55003624D01*
X54746488Y-54973927D01*
X54771258Y-54969000D01*
X54948742Y-54969000D01*
X54973512Y-54973927D01*
G37*
G36*
X57513512Y-54973927D02*
G01*
X57662812Y-55003624D01*
X57826784Y-55071544D01*
X57974354Y-55170147D01*
X58099853Y-55295646D01*
X58198456Y-55443216D01*
X58266376Y-55607188D01*
X58301000Y-55781259D01*
X58301000Y-55958741D01*
X58266376Y-56132812D01*
X58198456Y-56296784D01*
X58099853Y-56444354D01*
X57974354Y-56569853D01*
X57826784Y-56668456D01*
X57662812Y-56736376D01*
X57513512Y-56766073D01*
X57488742Y-56771000D01*
X57311258Y-56771000D01*
X57286488Y-56766073D01*
X57137188Y-56736376D01*
X56973216Y-56668456D01*
X56825646Y-56569853D01*
X56700147Y-56444354D01*
X56601544Y-56296784D01*
X56533624Y-56132812D01*
X56499000Y-55958741D01*
X56499000Y-55781259D01*
X56533624Y-55607188D01*
X56601544Y-55443216D01*
X56700147Y-55295646D01*
X56825646Y-55170147D01*
X56973216Y-55071544D01*
X57137188Y-55003624D01*
X57286488Y-54973927D01*
X57311258Y-54969000D01*
X57488742Y-54969000D01*
X57513512Y-54973927D01*
G37*
G36*
X84511000Y-55721000D02*
G01*
X82409000Y-55721000D01*
X82409000Y-54719000D01*
X84511000Y-54719000D01*
X84511000Y-55721000D01*
G37*
G36*
X67511000Y-55721000D02*
G01*
X65409000Y-55721000D01*
X65409000Y-54719000D01*
X67511000Y-54719000D01*
X67511000Y-55721000D01*
G37*
G36*
X76511000Y-55111000D02*
G01*
X71409000Y-55111000D01*
X71409000Y-50009000D01*
X76511000Y-50009000D01*
X76511000Y-55111000D01*
G37*
G36*
X89913512Y-52763927D02*
G01*
X90062812Y-52793624D01*
X90226784Y-52861544D01*
X90374354Y-52960147D01*
X90499853Y-53085646D01*
X90598456Y-53233216D01*
X90666376Y-53397188D01*
X90701000Y-53571259D01*
X90701000Y-53748741D01*
X90666376Y-53922812D01*
X90598456Y-54086784D01*
X90499853Y-54234354D01*
X90374354Y-54359853D01*
X90226784Y-54458456D01*
X90062812Y-54526376D01*
X89913512Y-54556073D01*
X89888742Y-54561000D01*
X89711258Y-54561000D01*
X89686488Y-54556073D01*
X89537188Y-54526376D01*
X89373216Y-54458456D01*
X89225646Y-54359853D01*
X89100147Y-54234354D01*
X89001544Y-54086784D01*
X88933624Y-53922812D01*
X88899000Y-53748741D01*
X88899000Y-53571259D01*
X88933624Y-53397188D01*
X89001544Y-53233216D01*
X89100147Y-53085646D01*
X89225646Y-52960147D01*
X89373216Y-52861544D01*
X89537188Y-52793624D01*
X89686488Y-52763927D01*
X89711258Y-52759000D01*
X89888742Y-52759000D01*
X89913512Y-52763927D01*
G37*
G36*
X87373512Y-52763927D02*
G01*
X87522812Y-52793624D01*
X87686784Y-52861544D01*
X87834354Y-52960147D01*
X87959853Y-53085646D01*
X88058456Y-53233216D01*
X88126376Y-53397188D01*
X88161000Y-53571259D01*
X88161000Y-53748741D01*
X88126376Y-53922812D01*
X88058456Y-54086784D01*
X87959853Y-54234354D01*
X87834354Y-54359853D01*
X87686784Y-54458456D01*
X87522812Y-54526376D01*
X87373512Y-54556073D01*
X87348742Y-54561000D01*
X87171258Y-54561000D01*
X87146488Y-54556073D01*
X86997188Y-54526376D01*
X86833216Y-54458456D01*
X86685646Y-54359853D01*
X86560147Y-54234354D01*
X86461544Y-54086784D01*
X86393624Y-53922812D01*
X86359000Y-53748741D01*
X86359000Y-53571259D01*
X86393624Y-53397188D01*
X86461544Y-53233216D01*
X86560147Y-53085646D01*
X86685646Y-52960147D01*
X86833216Y-52861544D01*
X86997188Y-52793624D01*
X87146488Y-52763927D01*
X87171258Y-52759000D01*
X87348742Y-52759000D01*
X87373512Y-52763927D01*
G37*
G36*
X84511000Y-54451000D02*
G01*
X82409000Y-54451000D01*
X82409000Y-53449000D01*
X84511000Y-53449000D01*
X84511000Y-54451000D01*
G37*
G36*
X67511000Y-54451000D02*
G01*
X65409000Y-54451000D01*
X65409000Y-53449000D01*
X67511000Y-53449000D01*
X67511000Y-54451000D01*
G37*
G36*
X57513512Y-52433927D02*
G01*
X57662812Y-52463624D01*
X57826784Y-52531544D01*
X57974354Y-52630147D01*
X58099853Y-52755646D01*
X58198456Y-52903216D01*
X58266376Y-53067188D01*
X58301000Y-53241259D01*
X58301000Y-53418741D01*
X58266376Y-53592812D01*
X58198456Y-53756784D01*
X58099853Y-53904354D01*
X57974354Y-54029853D01*
X57826784Y-54128456D01*
X57662812Y-54196376D01*
X57513512Y-54226073D01*
X57488742Y-54231000D01*
X57311258Y-54231000D01*
X57286488Y-54226073D01*
X57137188Y-54196376D01*
X56973216Y-54128456D01*
X56825646Y-54029853D01*
X56700147Y-53904354D01*
X56601544Y-53756784D01*
X56533624Y-53592812D01*
X56499000Y-53418741D01*
X56499000Y-53241259D01*
X56533624Y-53067188D01*
X56601544Y-52903216D01*
X56700147Y-52755646D01*
X56825646Y-52630147D01*
X56973216Y-52531544D01*
X57137188Y-52463624D01*
X57286488Y-52433927D01*
X57311258Y-52429000D01*
X57488742Y-52429000D01*
X57513512Y-52433927D01*
G37*
G36*
X54973512Y-52433927D02*
G01*
X55122812Y-52463624D01*
X55286784Y-52531544D01*
X55434354Y-52630147D01*
X55559853Y-52755646D01*
X55658456Y-52903216D01*
X55726376Y-53067188D01*
X55761000Y-53241259D01*
X55761000Y-53418741D01*
X55726376Y-53592812D01*
X55658456Y-53756784D01*
X55559853Y-53904354D01*
X55434354Y-54029853D01*
X55286784Y-54128456D01*
X55122812Y-54196376D01*
X54973512Y-54226073D01*
X54948742Y-54231000D01*
X54771258Y-54231000D01*
X54746488Y-54226073D01*
X54597188Y-54196376D01*
X54433216Y-54128456D01*
X54285646Y-54029853D01*
X54160147Y-53904354D01*
X54061544Y-53756784D01*
X53993624Y-53592812D01*
X53959000Y-53418741D01*
X53959000Y-53241259D01*
X53993624Y-53067188D01*
X54061544Y-52903216D01*
X54160147Y-52755646D01*
X54285646Y-52630147D01*
X54433216Y-52531544D01*
X54597188Y-52463624D01*
X54746488Y-52433927D01*
X54771258Y-52429000D01*
X54948742Y-52429000D01*
X54973512Y-52433927D01*
G37*
G36*
X67511000Y-53181000D02*
G01*
X65409000Y-53181000D01*
X65409000Y-52179000D01*
X67511000Y-52179000D01*
X67511000Y-53181000D01*
G37*
G36*
X84511000Y-53181000D02*
G01*
X82409000Y-53181000D01*
X82409000Y-52179000D01*
X84511000Y-52179000D01*
X84511000Y-53181000D01*
G37*
G36*
X87373512Y-50223927D02*
G01*
X87522812Y-50253624D01*
X87686784Y-50321544D01*
X87834354Y-50420147D01*
X87959853Y-50545646D01*
X88058456Y-50693216D01*
X88126376Y-50857188D01*
X88161000Y-51031259D01*
X88161000Y-51208741D01*
X88126376Y-51382812D01*
X88058456Y-51546784D01*
X87959853Y-51694354D01*
X87834354Y-51819853D01*
X87686784Y-51918456D01*
X87522812Y-51986376D01*
X87373512Y-52016073D01*
X87348742Y-52021000D01*
X87171258Y-52021000D01*
X87146488Y-52016073D01*
X86997188Y-51986376D01*
X86833216Y-51918456D01*
X86685646Y-51819853D01*
X86560147Y-51694354D01*
X86461544Y-51546784D01*
X86393624Y-51382812D01*
X86359000Y-51208741D01*
X86359000Y-51031259D01*
X86393624Y-50857188D01*
X86461544Y-50693216D01*
X86560147Y-50545646D01*
X86685646Y-50420147D01*
X86833216Y-50321544D01*
X86997188Y-50253624D01*
X87146488Y-50223927D01*
X87171258Y-50219000D01*
X87348742Y-50219000D01*
X87373512Y-50223927D01*
G37*
G36*
X89913512Y-50223927D02*
G01*
X90062812Y-50253624D01*
X90226784Y-50321544D01*
X90374354Y-50420147D01*
X90499853Y-50545646D01*
X90598456Y-50693216D01*
X90666376Y-50857188D01*
X90701000Y-51031259D01*
X90701000Y-51208741D01*
X90666376Y-51382812D01*
X90598456Y-51546784D01*
X90499853Y-51694354D01*
X90374354Y-51819853D01*
X90226784Y-51918456D01*
X90062812Y-51986376D01*
X89913512Y-52016073D01*
X89888742Y-52021000D01*
X89711258Y-52021000D01*
X89686488Y-52016073D01*
X89537188Y-51986376D01*
X89373216Y-51918456D01*
X89225646Y-51819853D01*
X89100147Y-51694354D01*
X89001544Y-51546784D01*
X88933624Y-51382812D01*
X88899000Y-51208741D01*
X88899000Y-51031259D01*
X88933624Y-50857188D01*
X89001544Y-50693216D01*
X89100147Y-50545646D01*
X89225646Y-50420147D01*
X89373216Y-50321544D01*
X89537188Y-50253624D01*
X89686488Y-50223927D01*
X89711258Y-50219000D01*
X89888742Y-50219000D01*
X89913512Y-50223927D01*
G37*
G36*
X84511000Y-51911000D02*
G01*
X82409000Y-51911000D01*
X82409000Y-50909000D01*
X84511000Y-50909000D01*
X84511000Y-51911000D01*
G37*
G36*
X67511000Y-51911000D02*
G01*
X65409000Y-51911000D01*
X65409000Y-50909000D01*
X67511000Y-50909000D01*
X67511000Y-51911000D01*
G37*
G36*
X54973512Y-49893927D02*
G01*
X55122812Y-49923624D01*
X55286784Y-49991544D01*
X55434354Y-50090147D01*
X55559853Y-50215646D01*
X55658456Y-50363216D01*
X55726376Y-50527188D01*
X55761000Y-50701259D01*
X55761000Y-50878741D01*
X55726376Y-51052812D01*
X55658456Y-51216784D01*
X55559853Y-51364354D01*
X55434354Y-51489853D01*
X55286784Y-51588456D01*
X55122812Y-51656376D01*
X54973512Y-51686073D01*
X54948742Y-51691000D01*
X54771258Y-51691000D01*
X54746488Y-51686073D01*
X54597188Y-51656376D01*
X54433216Y-51588456D01*
X54285646Y-51489853D01*
X54160147Y-51364354D01*
X54061544Y-51216784D01*
X53993624Y-51052812D01*
X53959000Y-50878741D01*
X53959000Y-50701259D01*
X53993624Y-50527188D01*
X54061544Y-50363216D01*
X54160147Y-50215646D01*
X54285646Y-50090147D01*
X54433216Y-49991544D01*
X54597188Y-49923624D01*
X54746488Y-49893927D01*
X54771258Y-49889000D01*
X54948742Y-49889000D01*
X54973512Y-49893927D01*
G37*
G36*
X57513512Y-49893927D02*
G01*
X57662812Y-49923624D01*
X57826784Y-49991544D01*
X57974354Y-50090147D01*
X58099853Y-50215646D01*
X58198456Y-50363216D01*
X58266376Y-50527188D01*
X58301000Y-50701259D01*
X58301000Y-50878741D01*
X58266376Y-51052812D01*
X58198456Y-51216784D01*
X58099853Y-51364354D01*
X57974354Y-51489853D01*
X57826784Y-51588456D01*
X57662812Y-51656376D01*
X57513512Y-51686073D01*
X57488742Y-51691000D01*
X57311258Y-51691000D01*
X57286488Y-51686073D01*
X57137188Y-51656376D01*
X56973216Y-51588456D01*
X56825646Y-51489853D01*
X56700147Y-51364354D01*
X56601544Y-51216784D01*
X56533624Y-51052812D01*
X56499000Y-50878741D01*
X56499000Y-50701259D01*
X56533624Y-50527188D01*
X56601544Y-50363216D01*
X56700147Y-50215646D01*
X56825646Y-50090147D01*
X56973216Y-49991544D01*
X57137188Y-49923624D01*
X57286488Y-49893927D01*
X57311258Y-49889000D01*
X57488742Y-49889000D01*
X57513512Y-49893927D01*
G37*
G36*
X84511000Y-50641000D02*
G01*
X82409000Y-50641000D01*
X82409000Y-49639000D01*
X84511000Y-49639000D01*
X84511000Y-50641000D01*
G37*
G36*
X67511000Y-50641000D02*
G01*
X65409000Y-50641000D01*
X65409000Y-49639000D01*
X67511000Y-49639000D01*
X67511000Y-50641000D01*
G37*
G36*
X84511000Y-49371000D02*
G01*
X82409000Y-49371000D01*
X82409000Y-48369000D01*
X84511000Y-48369000D01*
X84511000Y-49371000D01*
G37*
G36*
X67511000Y-49371000D02*
G01*
X65409000Y-49371000D01*
X65409000Y-48369000D01*
X67511000Y-48369000D01*
X67511000Y-49371000D01*
G37*
G36*
X55761000Y-49151000D02*
G01*
X53959000Y-49151000D01*
X53959000Y-47349000D01*
X55761000Y-47349000D01*
X55761000Y-49151000D01*
G37*
G36*
X57500787Y-47351396D02*
G01*
X57662812Y-47383624D01*
X57826784Y-47451544D01*
X57974354Y-47550147D01*
X58099853Y-47675646D01*
X58198456Y-47823216D01*
X58266376Y-47987188D01*
X58301000Y-48161259D01*
X58301000Y-48338741D01*
X58266376Y-48512812D01*
X58198456Y-48676784D01*
X58099853Y-48824354D01*
X57974354Y-48949853D01*
X57826784Y-49048456D01*
X57662812Y-49116376D01*
X57513512Y-49146073D01*
X57488742Y-49151000D01*
X57311258Y-49151000D01*
X57286488Y-49146073D01*
X57137188Y-49116376D01*
X56973216Y-49048456D01*
X56825646Y-48949853D01*
X56700147Y-48824354D01*
X56601544Y-48676784D01*
X56533624Y-48512812D01*
X56499000Y-48338741D01*
X56499000Y-48161259D01*
X56533624Y-47987188D01*
X56601544Y-47823216D01*
X56700147Y-47675646D01*
X56825646Y-47550147D01*
X56973216Y-47451544D01*
X57137188Y-47383624D01*
X57299213Y-47351396D01*
X57311258Y-47349000D01*
X57488742Y-47349000D01*
X57500787Y-47351396D01*
G37*
G36*
X64258604Y-47198347D02*
G01*
X64295144Y-47209432D01*
X64328821Y-47227433D01*
X64358341Y-47251659D01*
X64382567Y-47281179D01*
X64400568Y-47314856D01*
X64411653Y-47351396D01*
X64416000Y-47395538D01*
X64416000Y-48344462D01*
X64411653Y-48388604D01*
X64400568Y-48425144D01*
X64382567Y-48458821D01*
X64358341Y-48488341D01*
X64328821Y-48512567D01*
X64295144Y-48530568D01*
X64258604Y-48541653D01*
X64214462Y-48546000D01*
X61865538Y-48546000D01*
X61821396Y-48541653D01*
X61784856Y-48530568D01*
X61751179Y-48512567D01*
X61721659Y-48488341D01*
X61697433Y-48458821D01*
X61679432Y-48425144D01*
X61668347Y-48388604D01*
X61664000Y-48344462D01*
X61664000Y-47395538D01*
X61668347Y-47351396D01*
X61679432Y-47314856D01*
X61697433Y-47281179D01*
X61721659Y-47251659D01*
X61751179Y-47227433D01*
X61784856Y-47209432D01*
X61821396Y-47198347D01*
X61865538Y-47194000D01*
X64214462Y-47194000D01*
X64258604Y-47198347D01*
G37*
G36*
X61019591Y-47393085D02*
G01*
X61053569Y-47403393D01*
X61084890Y-47420134D01*
X61112339Y-47442661D01*
X61134866Y-47470110D01*
X61151607Y-47501431D01*
X61161915Y-47535409D01*
X61166000Y-47576890D01*
X61166000Y-48178110D01*
X61161915Y-48219591D01*
X61151607Y-48253569D01*
X61134866Y-48284890D01*
X61112339Y-48312339D01*
X61084890Y-48334866D01*
X61053569Y-48351607D01*
X61019591Y-48361915D01*
X60978110Y-48366000D01*
X60301890Y-48366000D01*
X60260409Y-48361915D01*
X60226431Y-48351607D01*
X60195110Y-48334866D01*
X60167661Y-48312339D01*
X60145134Y-48284890D01*
X60128393Y-48253569D01*
X60118085Y-48219591D01*
X60114000Y-48178110D01*
X60114000Y-47576890D01*
X60118085Y-47535409D01*
X60128393Y-47501431D01*
X60145134Y-47470110D01*
X60167661Y-47442661D01*
X60195110Y-47420134D01*
X60226431Y-47403393D01*
X60260409Y-47393085D01*
X60301890Y-47389000D01*
X60978110Y-47389000D01*
X61019591Y-47393085D01*
G37*
G36*
X67511000Y-48101000D02*
G01*
X65409000Y-48101000D01*
X65409000Y-47099000D01*
X67511000Y-47099000D01*
X67511000Y-48101000D01*
G37*
G36*
X84511000Y-48101000D02*
G01*
X82409000Y-48101000D01*
X82409000Y-47099000D01*
X84511000Y-47099000D01*
X84511000Y-48101000D01*
G37*
G36*
X84511000Y-46831000D02*
G01*
X82409000Y-46831000D01*
X82409000Y-45829000D01*
X84511000Y-45829000D01*
X84511000Y-46831000D01*
G37*
G36*
X67511000Y-46831000D02*
G01*
X65409000Y-46831000D01*
X65409000Y-45829000D01*
X67511000Y-45829000D01*
X67511000Y-46831000D01*
G37*
G36*
X61019591Y-45818085D02*
G01*
X61053569Y-45828393D01*
X61084890Y-45845134D01*
X61112339Y-45867661D01*
X61134866Y-45895110D01*
X61151607Y-45926431D01*
X61161915Y-45960409D01*
X61166000Y-46001890D01*
X61166000Y-46603110D01*
X61161915Y-46644591D01*
X61151607Y-46678569D01*
X61134866Y-46709890D01*
X61112339Y-46737339D01*
X61084890Y-46759866D01*
X61053569Y-46776607D01*
X61019591Y-46786915D01*
X60978110Y-46791000D01*
X60301890Y-46791000D01*
X60260409Y-46786915D01*
X60226431Y-46776607D01*
X60195110Y-46759866D01*
X60167661Y-46737339D01*
X60145134Y-46709890D01*
X60128393Y-46678569D01*
X60118085Y-46644591D01*
X60114000Y-46603110D01*
X60114000Y-46001890D01*
X60118085Y-45960409D01*
X60128393Y-45926431D01*
X60145134Y-45895110D01*
X60167661Y-45867661D01*
X60195110Y-45845134D01*
X60226431Y-45828393D01*
X60260409Y-45818085D01*
X60301890Y-45814000D01*
X60978110Y-45814000D01*
X61019591Y-45818085D01*
G37*
G36*
X64258604Y-44398347D02*
G01*
X64295144Y-44409432D01*
X64328821Y-44427433D01*
X64358341Y-44451659D01*
X64382567Y-44481179D01*
X64400568Y-44514856D01*
X64411653Y-44551396D01*
X64416000Y-44595538D01*
X64416000Y-45544462D01*
X64411653Y-45588604D01*
X64400568Y-45625144D01*
X64382567Y-45658821D01*
X64358341Y-45688341D01*
X64328821Y-45712567D01*
X64295144Y-45730568D01*
X64258604Y-45741653D01*
X64214462Y-45746000D01*
X61865538Y-45746000D01*
X61821396Y-45741653D01*
X61784856Y-45730568D01*
X61751179Y-45712567D01*
X61721659Y-45688341D01*
X61697433Y-45658821D01*
X61679432Y-45625144D01*
X61668347Y-45588604D01*
X61664000Y-45544462D01*
X61664000Y-44595538D01*
X61668347Y-44551396D01*
X61679432Y-44514856D01*
X61697433Y-44481179D01*
X61721659Y-44451659D01*
X61751179Y-44427433D01*
X61784856Y-44409432D01*
X61821396Y-44398347D01*
X61865538Y-44394000D01*
X64214462Y-44394000D01*
X64258604Y-44398347D01*
G37*
G36*
X67511000Y-45561000D02*
G01*
X65409000Y-45561000D01*
X65409000Y-44559000D01*
X67511000Y-44559000D01*
X67511000Y-45561000D01*
G37*
G36*
X84511000Y-45561000D02*
G01*
X82409000Y-45561000D01*
X82409000Y-44559000D01*
X84511000Y-44559000D01*
X84511000Y-45561000D01*
G37*
M02*
