M48
; DRILL file {KiCad 5.1.5+dfsg1-2build2} date Thứ bảy, 27 Tháng 6 Năm 2020 19:38:58 +07
; FORMAT={-:-/ absolute / inch / decimal}
; #@! TF.CreationDate,2020-06-27T19:38:58+07:00
; #@! TF.GenerationSoftware,Kicad,Pcbnew,5.1.5+dfsg1-2build2
; #@! TF.FileFunction,Plated,1,2,PTH
FMAT,2
INCH
T1C0.0118
T2C0.0157
T3C0.0217
T4C0.0236
T5C0.0315
T6C0.0335
T7C0.0394
T8C0.0433
T9C0.0689
%
G90
G05
T1
X2.0193Y-1.7449
X2.0193Y-3.6701
X2.0197Y-1.7657
X2.0197Y-3.6906
X2.0201Y-1.7866
X2.0201Y-3.711
X2.0205Y-1.8087
X2.0209Y-1.8299
X2.0209Y-4.0008
X2.0213Y-1.8512
X2.0331Y-3.7311
X2.039Y-1.7449
X2.0449Y-4.0004
X2.0504Y-3.7472
X2.0587Y-1.7445
X2.0669Y-3.763
X2.0709Y-4.0004
X2.0957Y-4.0008
X2.1193Y-3.6315
X2.1201Y-3.6516
X2.1205Y-4.0008
X2.1209Y-3.6717
X2.1378Y-3.687
X2.1441Y-4.0004
X2.1547Y-3.7016
X2.1661Y-3.9996
X2.1898Y-3.9996
X2.2138Y-3.9996
X2.2374Y-3.9996
X2.2622Y-4.0
X2.2839Y-4.0
X2.2843Y-4.0217
X2.2846Y-4.0425
X2.285Y-4.0642
X2.2854Y-4.0858
X2.2862Y-4.1083
X2.2866Y-4.1295
X2.287Y-4.1508
X2.287Y-4.1728
X2.287Y-4.1941
X2.2874Y-4.2146
X2.3516Y-2.552
X2.3681Y-2.537
X2.3843Y-2.5213
X2.3992Y-2.5059
X2.4142Y-2.4909
X2.4972Y-3.1413
X2.502Y-2.4004
X2.5177Y-2.385
X2.5343Y-2.3697
X2.5484Y-2.3543
X2.5516Y-3.0795
X2.5555Y-1.8921
X2.5677Y-3.0638
X2.5799Y-3.1524
X2.5862Y-3.0476
X2.6012Y-3.1524
X2.6067Y-3.0272
X2.6264Y-3.0098
X2.6354Y-3.098
X2.6445Y-2.9898
X2.6555Y-3.0976
X2.6559Y-3.0748
X2.6717Y-3.1764
X2.6717Y-3.202
X2.6752Y-3.0972
X2.6764Y-3.0516
X2.6768Y-3.074
X2.6768Y-3.3236
X2.6787Y-3.3472
X2.6787Y-3.3681
X2.6996Y-3.3457
X2.7004Y-3.3673
X2.7224Y-2.3154
X2.7224Y-2.3386
X2.7228Y-2.365
X2.7228Y-3.3673
X2.7232Y-2.3906
X2.7232Y-2.45
X2.7232Y-2.4752
X2.7232Y-2.4996
X2.7232Y-2.524
X2.7717Y-2.9992
X2.7953Y-2.9992
X2.8197Y-2.9988
X2.8339Y-2.9059
X2.8346Y-2.926
X2.8461Y-2.9988
X2.8626Y-3.0516
X2.8724Y-2.9835
X2.8776Y-3.037
X2.8858Y-2.915
X2.8898Y-3.0224
X2.902Y-3.474
X3.024Y-1.8535
X3.0531Y-1.8535
X3.0854Y-1.8535
X3.2047Y-2.9343
X3.2224Y-2.8799
X3.2228Y-3.5224
X3.2232Y-2.9146
X3.3579Y-4.0012
X3.3579Y-4.0555
X3.3583Y-4.0295
X3.3583Y-4.0811
X3.3583Y-4.1059
X3.3583Y-4.1508
X3.3587Y-4.128
X3.3587Y-4.1744
X3.3587Y-4.1969
X3.3587Y-4.2189
X3.3724Y-1.7606
X3.3724Y-1.7815
X3.3724Y-1.8689
X3.3724Y-1.8906
X3.3728Y-1.8035
X3.3728Y-1.8256
X3.3728Y-1.8472
X3.3728Y-1.9114
X3.3787Y-3.9854
X3.3937Y-1.9409
X3.4035Y-3.985
X3.4165Y-1.9409
X3.4291Y-3.985
X3.4425Y-1.9409
X3.4543Y-3.9854
X3.4681Y-1.9406
X3.4783Y-3.9854
X3.4953Y-1.9406
X3.5016Y-3.9854
X3.5236Y-1.9406
X3.5248Y-3.9854
X3.5469Y-3.985
X3.5516Y-1.9402
X3.5697Y-3.985
X3.5787Y-1.9406
X3.5933Y-3.9843
X3.6028Y-1.9409
T2
X2.0693Y-2.963
X2.0693Y-3.0079
X2.0693Y-3.0539
X2.0693Y-3.1012
X2.0693Y-3.1508
X2.1815Y-3.9402
X2.1823Y-3.6193
X2.2299Y-3.9402
X2.2346Y-3.6185
X2.2356Y-1.7707
X2.2785Y-1.7707
X2.3185Y-1.772
X2.3201Y-2.2961
X2.3327Y-3.4886
X2.3331Y-2.2228
X2.3335Y-2.1846
X2.3335Y-2.3843
X2.3335Y-2.4213
X2.3417Y-2.1031
X2.3433Y-2.0571
X2.3488Y-1.9906
X2.374Y-2.385
X2.3744Y-2.4209
X2.376Y-3.4894
X2.378Y-2.1835
X2.378Y-2.2217
X2.3839Y-2.0571
X2.3839Y-2.1043
X2.3843Y-2.3224
X2.3886Y-1.9906
X2.4106Y-3.0972
X2.4126Y-2.3846
X2.4189Y-3.3402
X2.4193Y-3.2839
X2.4205Y-2.1839
X2.4205Y-2.2217
X2.4228Y-2.3224
X2.4236Y-2.0579
X2.4236Y-3.4913
X2.426Y-2.1055
X2.4291Y-1.9906
X2.439Y-2.6425
X2.447Y-2.8313
X2.449Y-2.9813
X2.45Y-2.8937
X2.4516Y-3.6193
X2.4579Y-3.9386
X2.4583Y-2.1835
X2.4669Y-2.0559
X2.4673Y-2.1063
X2.4685Y-1.9906
X2.4713Y-3.3394
X2.4872Y-3.4813
X2.4906Y-3.263
X2.4976Y-2.5768
X2.4976Y-2.6154
X2.5063Y-3.6193
X2.5063Y-3.9394
X2.5087Y-2.0732
X2.5094Y-1.9906
X2.515Y-2.2256
X2.5244Y-3.1201
X2.5409Y-2.5756
X2.5413Y-2.6157
X2.5453Y-2.1961
X2.5461Y-2.4941
X2.6346Y-3.1398
X2.6705Y-3.5858
X2.6713Y-3.5382
X2.689Y-1.7551
X2.6925Y-3.8795
X2.7Y-2.574
X2.7039Y-4.0969
X2.7043Y-4.0189
X2.7043Y-4.0571
X2.7043Y-4.1602
X2.7063Y-1.9713
X2.7063Y-2.0193
X2.7067Y-1.9248
X2.7067Y-2.0689
X2.7067Y-2.1173
X2.7291Y-1.7551
X2.7291Y-3.5382
X2.7291Y-3.5846
X2.7417Y-3.2102
X2.7445Y-2.574
X2.7445Y-3.8787
X2.7457Y-4.0205
X2.7469Y-4.0602
X2.7469Y-4.0972
X2.7496Y-4.1594
X2.7697Y-1.7563
X2.7819Y-3.5382
X2.7819Y-3.5858
X2.7969Y-2.6858
X2.8118Y-1.7559
X2.835Y-1.9917
X2.8358Y-2.0366
X2.8358Y-2.0764
X2.8362Y-2.1154
X2.8394Y-2.7539
X2.8394Y-2.7929
X2.8555Y-1.7563
X2.861Y-2.8811
X2.861Y-2.9492
X2.865Y-2.6685
X2.8748Y-2.6098
X2.8783Y-1.9917
X2.8984Y-1.7571
X2.9236Y-1.9921
X2.9354Y-3.0335
X2.9425Y-1.7567
X2.9453Y-2.5882
X2.9567Y-2.5287
X2.9689Y-1.9933
X2.9791Y-3.6004
X2.9807Y-3.0335
X2.9874Y-1.7571
X3.0083Y-2.6748
X3.0213Y-2.5138
X3.028Y-2.4535
X3.0291Y-3.0339
X3.0339Y-1.7563
X3.0441Y-3.6024
X3.048Y-2.6756
X3.0488Y-2.6386
X3.0772Y-3.035
X3.0811Y-1.7567
X3.0874Y-2.5988
X3.0882Y-2.637
X3.0882Y-2.676
X3.098Y-3.4717
X3.0992Y-2.4362
X3.1063Y-3.602
X3.1087Y-2.3764
X3.1276Y-1.7575
X3.1291Y-2.5587
X3.1299Y-2.5976
X3.1299Y-2.6768
X3.1303Y-2.637
X3.1449Y-3.472
X3.152Y-1.8283
X3.152Y-1.8791
X3.1551Y-3.0677
X3.1657Y-3.602
X3.1689Y-2.5173
X3.1689Y-2.5587
X3.1697Y-2.5996
X3.1697Y-3.1177
X3.1701Y-2.6382
X3.1717Y-2.6776
X3.1728Y-1.7575
X3.1776Y-2.3602
X3.1874Y-2.2941
X3.1906Y-3.472
X3.2098Y-2.024
X3.2098Y-2.124
X3.2142Y-2.5972
X3.215Y-2.5579
X3.215Y-2.6346
X3.215Y-2.6756
X3.2157Y-2.5161
X3.2173Y-1.7587
X3.2181Y-2.9646
X3.2201Y-3.0024
X3.222Y-3.6012
X3.2689Y-3.3228
X3.2689Y-3.3634
X3.2689Y-3.6024
X3.2697Y-3.5028
X3.2925Y-3.678
X3.3713Y-3.7146
X3.3713Y-3.8051
X3.3717Y-3.7587
X3.372Y-3.8484
X3.372Y-3.8933
X3.398Y-2.3402
X3.398Y-2.3858
X3.398Y-2.5787
X3.3984Y-2.4295
X3.3992Y-2.2874
X3.4331Y-2.8516
X3.4331Y-2.8949
X3.4331Y-2.939
X3.4331Y-2.9776
X3.4331Y-3.0165
X3.435Y-2.2846
X3.4378Y-2.3394
X3.4492Y-3.1591
X3.4787Y-2.2862
X3.4791Y-2.3394
X3.5835Y-3.1571
T7
X2.4303Y-4.0551
X2.4303Y-4.1551
X2.5303Y-4.0551
X2.5303Y-4.1551
X2.6303Y-4.0551
X2.6303Y-4.1551
X2.8165Y-4.0559
X2.8165Y-4.1559
X2.9165Y-4.0559
X2.9165Y-4.1559
X3.0165Y-4.0559
X3.0165Y-4.1559
X2.1598Y-1.8996
X2.1598Y-1.9996
X2.1598Y-2.0996
X2.1598Y-2.1996
X2.1598Y-2.2996
X2.1598Y-2.3996
X2.1598Y-2.4996
X2.1598Y-2.5996
X2.1598Y-2.6996
X2.1598Y-2.7996
X2.1598Y-2.8996
X2.1598Y-2.9996
X2.1598Y-3.0996
X2.2598Y-1.8996
X2.2598Y-1.9996
X2.2598Y-2.0996
X2.2598Y-2.1996
X2.2598Y-2.2996
X2.2598Y-2.3996
X2.2598Y-2.4996
X2.2598Y-2.5996
X2.2598Y-2.6996
X2.2598Y-2.7996
X2.2598Y-2.8996
X2.2598Y-2.9996
X2.2598Y-3.0996
X3.4354Y-2.0126
X3.4354Y-2.1126
X3.4354Y-2.2126
X3.5354Y-2.0126
X3.5354Y-2.1126
X3.5354Y-2.2126
T8
X3.4713Y-2.4055
X3.4713Y-2.5055
X3.4713Y-2.6055
T9
X2.2055Y-3.2717
X2.2055Y-3.4244
T3
G00X3.5065Y-3.2035
M15
G01X3.5321Y-3.2035
M16
G05
G00X3.5065Y-3.5087
M15
G01X3.5321Y-3.5087
M16
G05
T4
G00X3.326Y-2.7744
M15
G01X3.3693Y-2.7744
M16
G05
G00X3.326Y-3.1146
M15
G01X3.3693Y-3.1146
M16
G05
G00X3.5004Y-2.7744
M15
G01X3.524Y-2.7744
M16
G05
G00X3.5004Y-3.1146
M15
G01X3.524Y-3.1146
M16
G05
T5
G00X3.2925Y-3.8528
M15
G01X3.2925Y-3.7504
M16
G05
G00X3.4539Y-3.6126
M15
G01X3.3673Y-3.6126
M16
G05
G00X3.5209Y-3.8449
M15
G01X3.5209Y-3.7583
M16
G05
T6
G00X3.3589Y-3.2094
M15
G01X3.3805Y-3.2094
M16
G05
G00X3.3589Y-3.5028
M15
G01X3.3805Y-3.5028
M16
G05
T0
M30
