G04 #@! TF.GenerationSoftware,KiCad,Pcbnew,5.1.5+dfsg1-2build2*
G04 #@! TF.CreationDate,2020-06-27T19:39:02+07:00*
G04 #@! TF.ProjectId,wrover_the_thesis,77726f76-6572-45f7-9468-655f74686573,rev?*
G04 #@! TF.SameCoordinates,Original*
G04 #@! TF.FileFunction,Legend,Top*
G04 #@! TF.FilePolarity,Positive*
%FSLAX46Y46*%
G04 Gerber Fmt 4.6, Leading zero omitted, Abs format (unit mm)*
G04 Created by KiCad (PCBNEW 5.1.5+dfsg1-2build2) date 2020-06-27 19:39:02*
%MOMM*%
%LPD*%
G04 APERTURE LIST*
%ADD10C,0.150000*%
%ADD11C,0.120000*%
%ADD12C,0.200000*%
%ADD13C,0.127000*%
G04 APERTURE END LIST*
D10*
X85110000Y-48381904D02*
X85062380Y-48477142D01*
X85062380Y-48620000D01*
X85110000Y-48762857D01*
X85205238Y-48858095D01*
X85300476Y-48905714D01*
X85490952Y-48953333D01*
X85633809Y-48953333D01*
X85824285Y-48905714D01*
X85919523Y-48858095D01*
X86014761Y-48762857D01*
X86062380Y-48620000D01*
X86062380Y-48524761D01*
X86014761Y-48381904D01*
X85967142Y-48334285D01*
X85633809Y-48334285D01*
X85633809Y-48524761D01*
X86062380Y-47905714D02*
X85062380Y-47905714D01*
X86062380Y-47334285D01*
X85062380Y-47334285D01*
X86062380Y-46858095D02*
X85062380Y-46858095D01*
X85062380Y-46620000D01*
X85110000Y-46477142D01*
X85205238Y-46381904D01*
X85300476Y-46334285D01*
X85490952Y-46286666D01*
X85633809Y-46286666D01*
X85824285Y-46334285D01*
X85919523Y-46381904D01*
X86014761Y-46477142D01*
X86062380Y-46620000D01*
X86062380Y-46858095D01*
X91452380Y-48501428D02*
X91452380Y-49072857D01*
X91452380Y-48787142D02*
X90452380Y-48787142D01*
X90595238Y-48882380D01*
X90690476Y-48977619D01*
X90738095Y-49072857D01*
X90547619Y-48120476D02*
X90500000Y-48072857D01*
X90452380Y-47977619D01*
X90452380Y-47739523D01*
X90500000Y-47644285D01*
X90547619Y-47596666D01*
X90642857Y-47549047D01*
X90738095Y-47549047D01*
X90880952Y-47596666D01*
X91452380Y-48168095D01*
X91452380Y-47549047D01*
X90785714Y-47215714D02*
X91452380Y-46977619D01*
X90785714Y-46739523D01*
X78958095Y-105400000D02*
X78862857Y-105352380D01*
X78720000Y-105352380D01*
X78577142Y-105400000D01*
X78481904Y-105495238D01*
X78434285Y-105590476D01*
X78386666Y-105780952D01*
X78386666Y-105923809D01*
X78434285Y-106114285D01*
X78481904Y-106209523D01*
X78577142Y-106304761D01*
X78720000Y-106352380D01*
X78815238Y-106352380D01*
X78958095Y-106304761D01*
X79005714Y-106257142D01*
X79005714Y-105923809D01*
X78815238Y-105923809D01*
X79434285Y-106352380D02*
X79434285Y-105352380D01*
X80005714Y-106352380D01*
X80005714Y-105352380D01*
X80481904Y-106352380D02*
X80481904Y-105352380D01*
X80720000Y-105352380D01*
X80862857Y-105400000D01*
X80958095Y-105495238D01*
X81005714Y-105590476D01*
X81053333Y-105780952D01*
X81053333Y-105923809D01*
X81005714Y-106114285D01*
X80958095Y-106209523D01*
X80862857Y-106304761D01*
X80720000Y-106352380D01*
X80481904Y-106352380D01*
X79287142Y-102772380D02*
X78810952Y-102772380D01*
X78763333Y-103248571D01*
X78810952Y-103200952D01*
X78906190Y-103153333D01*
X79144285Y-103153333D01*
X79239523Y-103200952D01*
X79287142Y-103248571D01*
X79334761Y-103343809D01*
X79334761Y-103581904D01*
X79287142Y-103677142D01*
X79239523Y-103724761D01*
X79144285Y-103772380D01*
X78906190Y-103772380D01*
X78810952Y-103724761D01*
X78763333Y-103677142D01*
X79668095Y-103105714D02*
X79906190Y-103772380D01*
X80144285Y-103105714D01*
X57548095Y-105350000D02*
X57452857Y-105302380D01*
X57310000Y-105302380D01*
X57167142Y-105350000D01*
X57071904Y-105445238D01*
X57024285Y-105540476D01*
X56976666Y-105730952D01*
X56976666Y-105873809D01*
X57024285Y-106064285D01*
X57071904Y-106159523D01*
X57167142Y-106254761D01*
X57310000Y-106302380D01*
X57405238Y-106302380D01*
X57548095Y-106254761D01*
X57595714Y-106207142D01*
X57595714Y-105873809D01*
X57405238Y-105873809D01*
X58024285Y-106302380D02*
X58024285Y-105302380D01*
X58595714Y-106302380D01*
X58595714Y-105302380D01*
X59071904Y-106302380D02*
X59071904Y-105302380D01*
X59310000Y-105302380D01*
X59452857Y-105350000D01*
X59548095Y-105445238D01*
X59595714Y-105540476D01*
X59643333Y-105730952D01*
X59643333Y-105873809D01*
X59595714Y-106064285D01*
X59548095Y-106159523D01*
X59452857Y-106254761D01*
X59310000Y-106302380D01*
X59071904Y-106302380D01*
X57209523Y-102172380D02*
X57828571Y-102172380D01*
X57495238Y-102553333D01*
X57638095Y-102553333D01*
X57733333Y-102600952D01*
X57780952Y-102648571D01*
X57828571Y-102743809D01*
X57828571Y-102981904D01*
X57780952Y-103077142D01*
X57733333Y-103124761D01*
X57638095Y-103172380D01*
X57352380Y-103172380D01*
X57257142Y-103124761D01*
X57209523Y-103077142D01*
X58161904Y-102505714D02*
X58400000Y-103172380D01*
X58638095Y-102505714D01*
X58923809Y-102172380D02*
X59542857Y-102172380D01*
X59209523Y-102553333D01*
X59352380Y-102553333D01*
X59447619Y-102600952D01*
X59495238Y-102648571D01*
X59542857Y-102743809D01*
X59542857Y-102981904D01*
X59495238Y-103077142D01*
X59447619Y-103124761D01*
X59352380Y-103172380D01*
X59066666Y-103172380D01*
X58971428Y-103124761D01*
X58923809Y-103077142D01*
X56978095Y-45347619D02*
X57025714Y-45300000D01*
X57120952Y-45252380D01*
X57359047Y-45252380D01*
X57454285Y-45300000D01*
X57501904Y-45347619D01*
X57549523Y-45442857D01*
X57549523Y-45538095D01*
X57501904Y-45680952D01*
X56930476Y-46252380D01*
X57549523Y-46252380D01*
X57882857Y-45252380D02*
X58501904Y-45252380D01*
X58168571Y-45633333D01*
X58311428Y-45633333D01*
X58406666Y-45680952D01*
X58454285Y-45728571D01*
X58501904Y-45823809D01*
X58501904Y-46061904D01*
X58454285Y-46157142D01*
X58406666Y-46204761D01*
X58311428Y-46252380D01*
X58025714Y-46252380D01*
X57930476Y-46204761D01*
X57882857Y-46157142D01*
X59698095Y-50347619D02*
X59745714Y-50300000D01*
X59840952Y-50252380D01*
X60079047Y-50252380D01*
X60174285Y-50300000D01*
X60221904Y-50347619D01*
X60269523Y-50442857D01*
X60269523Y-50538095D01*
X60221904Y-50680952D01*
X59650476Y-51252380D01*
X60269523Y-51252380D01*
X60650476Y-50347619D02*
X60698095Y-50300000D01*
X60793333Y-50252380D01*
X61031428Y-50252380D01*
X61126666Y-50300000D01*
X61174285Y-50347619D01*
X61221904Y-50442857D01*
X61221904Y-50538095D01*
X61174285Y-50680952D01*
X60602857Y-51252380D01*
X61221904Y-51252380D01*
X60088095Y-53060000D02*
X59992857Y-53012380D01*
X59850000Y-53012380D01*
X59707142Y-53060000D01*
X59611904Y-53155238D01*
X59564285Y-53250476D01*
X59516666Y-53440952D01*
X59516666Y-53583809D01*
X59564285Y-53774285D01*
X59611904Y-53869523D01*
X59707142Y-53964761D01*
X59850000Y-54012380D01*
X59945238Y-54012380D01*
X60088095Y-53964761D01*
X60135714Y-53917142D01*
X60135714Y-53583809D01*
X59945238Y-53583809D01*
X60564285Y-54012380D02*
X60564285Y-53012380D01*
X61135714Y-54012380D01*
X61135714Y-53012380D01*
X61611904Y-54012380D02*
X61611904Y-53012380D01*
X61850000Y-53012380D01*
X61992857Y-53060000D01*
X62088095Y-53155238D01*
X62135714Y-53250476D01*
X62183333Y-53440952D01*
X62183333Y-53583809D01*
X62135714Y-53774285D01*
X62088095Y-53869523D01*
X61992857Y-53964761D01*
X61850000Y-54012380D01*
X61611904Y-54012380D01*
X59539523Y-55602380D02*
X60158571Y-55602380D01*
X59825238Y-55983333D01*
X59968095Y-55983333D01*
X60063333Y-56030952D01*
X60110952Y-56078571D01*
X60158571Y-56173809D01*
X60158571Y-56411904D01*
X60110952Y-56507142D01*
X60063333Y-56554761D01*
X59968095Y-56602380D01*
X59682380Y-56602380D01*
X59587142Y-56554761D01*
X59539523Y-56507142D01*
X60491904Y-55935714D02*
X60730000Y-56602380D01*
X60968095Y-55935714D01*
X61253809Y-55602380D02*
X61872857Y-55602380D01*
X61539523Y-55983333D01*
X61682380Y-55983333D01*
X61777619Y-56030952D01*
X61825238Y-56078571D01*
X61872857Y-56173809D01*
X61872857Y-56411904D01*
X61825238Y-56507142D01*
X61777619Y-56554761D01*
X61682380Y-56602380D01*
X61396666Y-56602380D01*
X61301428Y-56554761D01*
X61253809Y-56507142D01*
X59748095Y-58007619D02*
X59795714Y-57960000D01*
X59890952Y-57912380D01*
X60129047Y-57912380D01*
X60224285Y-57960000D01*
X60271904Y-58007619D01*
X60319523Y-58102857D01*
X60319523Y-58198095D01*
X60271904Y-58340952D01*
X59700476Y-58912380D01*
X60319523Y-58912380D01*
X61271904Y-58912380D02*
X60700476Y-58912380D01*
X60986190Y-58912380D02*
X60986190Y-57912380D01*
X60890952Y-58055238D01*
X60795714Y-58150476D01*
X60700476Y-58198095D01*
X60299523Y-61552380D02*
X59728095Y-61552380D01*
X60013809Y-61552380D02*
X60013809Y-60552380D01*
X59918571Y-60695238D01*
X59823333Y-60790476D01*
X59728095Y-60838095D01*
X60775714Y-61552380D02*
X60966190Y-61552380D01*
X61061428Y-61504761D01*
X61109047Y-61457142D01*
X61204285Y-61314285D01*
X61251904Y-61123809D01*
X61251904Y-60742857D01*
X61204285Y-60647619D01*
X61156666Y-60600000D01*
X61061428Y-60552380D01*
X60870952Y-60552380D01*
X60775714Y-60600000D01*
X60728095Y-60647619D01*
X60680476Y-60742857D01*
X60680476Y-60980952D01*
X60728095Y-61076190D01*
X60775714Y-61123809D01*
X60870952Y-61171428D01*
X61061428Y-61171428D01*
X61156666Y-61123809D01*
X61204285Y-61076190D01*
X61251904Y-60980952D01*
X60278095Y-63150000D02*
X60182857Y-63102380D01*
X60040000Y-63102380D01*
X59897142Y-63150000D01*
X59801904Y-63245238D01*
X59754285Y-63340476D01*
X59706666Y-63530952D01*
X59706666Y-63673809D01*
X59754285Y-63864285D01*
X59801904Y-63959523D01*
X59897142Y-64054761D01*
X60040000Y-64102380D01*
X60135238Y-64102380D01*
X60278095Y-64054761D01*
X60325714Y-64007142D01*
X60325714Y-63673809D01*
X60135238Y-63673809D01*
X60754285Y-64102380D02*
X60754285Y-63102380D01*
X61325714Y-64102380D01*
X61325714Y-63102380D01*
X61801904Y-64102380D02*
X61801904Y-63102380D01*
X62040000Y-63102380D01*
X62182857Y-63150000D01*
X62278095Y-63245238D01*
X62325714Y-63340476D01*
X62373333Y-63530952D01*
X62373333Y-63673809D01*
X62325714Y-63864285D01*
X62278095Y-63959523D01*
X62182857Y-64054761D01*
X62040000Y-64102380D01*
X61801904Y-64102380D01*
X59399523Y-65672380D02*
X60018571Y-65672380D01*
X59685238Y-66053333D01*
X59828095Y-66053333D01*
X59923333Y-66100952D01*
X59970952Y-66148571D01*
X60018571Y-66243809D01*
X60018571Y-66481904D01*
X59970952Y-66577142D01*
X59923333Y-66624761D01*
X59828095Y-66672380D01*
X59542380Y-66672380D01*
X59447142Y-66624761D01*
X59399523Y-66577142D01*
X60351904Y-66005714D02*
X60590000Y-66672380D01*
X60828095Y-66005714D01*
X61113809Y-65672380D02*
X61732857Y-65672380D01*
X61399523Y-66053333D01*
X61542380Y-66053333D01*
X61637619Y-66100952D01*
X61685238Y-66148571D01*
X61732857Y-66243809D01*
X61732857Y-66481904D01*
X61685238Y-66577142D01*
X61637619Y-66624761D01*
X61542380Y-66672380D01*
X61256666Y-66672380D01*
X61161428Y-66624761D01*
X61113809Y-66577142D01*
X60518095Y-68242380D02*
X60041904Y-68242380D01*
X59994285Y-68718571D01*
X60041904Y-68670952D01*
X60137142Y-68623333D01*
X60375238Y-68623333D01*
X60470476Y-68670952D01*
X60518095Y-68718571D01*
X60565714Y-68813809D01*
X60565714Y-69051904D01*
X60518095Y-69147142D01*
X60470476Y-69194761D01*
X60375238Y-69242380D01*
X60137142Y-69242380D01*
X60041904Y-69194761D01*
X59994285Y-69147142D01*
X60490476Y-71115714D02*
X60490476Y-71782380D01*
X60252380Y-70734761D02*
X60014285Y-71449047D01*
X60633333Y-71449047D01*
X60322380Y-73452380D02*
X60417619Y-73452380D01*
X60512857Y-73500000D01*
X60560476Y-73547619D01*
X60608095Y-73642857D01*
X60655714Y-73833333D01*
X60655714Y-74071428D01*
X60608095Y-74261904D01*
X60560476Y-74357142D01*
X60512857Y-74404761D01*
X60417619Y-74452380D01*
X60322380Y-74452380D01*
X60227142Y-74404761D01*
X60179523Y-74357142D01*
X60131904Y-74261904D01*
X60084285Y-74071428D01*
X60084285Y-73833333D01*
X60131904Y-73642857D01*
X60179523Y-73547619D01*
X60227142Y-73500000D01*
X60322380Y-73452380D01*
X60204285Y-75997619D02*
X60251904Y-75950000D01*
X60347142Y-75902380D01*
X60585238Y-75902380D01*
X60680476Y-75950000D01*
X60728095Y-75997619D01*
X60775714Y-76092857D01*
X60775714Y-76188095D01*
X60728095Y-76330952D01*
X60156666Y-76902380D01*
X60775714Y-76902380D01*
X59600476Y-78172380D02*
X60219523Y-78172380D01*
X59886190Y-78553333D01*
X60029047Y-78553333D01*
X60124285Y-78600952D01*
X60171904Y-78648571D01*
X60219523Y-78743809D01*
X60219523Y-78981904D01*
X60171904Y-79077142D01*
X60124285Y-79124761D01*
X60029047Y-79172380D01*
X59743333Y-79172380D01*
X59648095Y-79124761D01*
X59600476Y-79077142D01*
X60552857Y-78172380D02*
X61171904Y-78172380D01*
X60838571Y-78553333D01*
X60981428Y-78553333D01*
X61076666Y-78600952D01*
X61124285Y-78648571D01*
X61171904Y-78743809D01*
X61171904Y-78981904D01*
X61124285Y-79077142D01*
X61076666Y-79124761D01*
X60981428Y-79172380D01*
X60695714Y-79172380D01*
X60600476Y-79124761D01*
X60552857Y-79077142D01*
X51869523Y-79032380D02*
X51298095Y-79032380D01*
X51583809Y-79032380D02*
X51583809Y-78032380D01*
X51488571Y-78175238D01*
X51393333Y-78270476D01*
X51298095Y-78318095D01*
X52202857Y-78032380D02*
X52821904Y-78032380D01*
X52488571Y-78413333D01*
X52631428Y-78413333D01*
X52726666Y-78460952D01*
X52774285Y-78508571D01*
X52821904Y-78603809D01*
X52821904Y-78841904D01*
X52774285Y-78937142D01*
X52726666Y-78984761D01*
X52631428Y-79032380D01*
X52345714Y-79032380D01*
X52250476Y-78984761D01*
X52202857Y-78937142D01*
X51909523Y-76672380D02*
X51338095Y-76672380D01*
X51623809Y-76672380D02*
X51623809Y-75672380D01*
X51528571Y-75815238D01*
X51433333Y-75910476D01*
X51338095Y-75958095D01*
X52290476Y-75767619D02*
X52338095Y-75720000D01*
X52433333Y-75672380D01*
X52671428Y-75672380D01*
X52766666Y-75720000D01*
X52814285Y-75767619D01*
X52861904Y-75862857D01*
X52861904Y-75958095D01*
X52814285Y-76100952D01*
X52242857Y-76672380D01*
X52861904Y-76672380D01*
X51909523Y-74002380D02*
X51338095Y-74002380D01*
X51623809Y-74002380D02*
X51623809Y-73002380D01*
X51528571Y-73145238D01*
X51433333Y-73240476D01*
X51338095Y-73288095D01*
X52766666Y-73335714D02*
X52766666Y-74002380D01*
X52528571Y-72954761D02*
X52290476Y-73669047D01*
X52909523Y-73669047D01*
X51099523Y-65482380D02*
X51718571Y-65482380D01*
X51385238Y-65863333D01*
X51528095Y-65863333D01*
X51623333Y-65910952D01*
X51670952Y-65958571D01*
X51718571Y-66053809D01*
X51718571Y-66291904D01*
X51670952Y-66387142D01*
X51623333Y-66434761D01*
X51528095Y-66482380D01*
X51242380Y-66482380D01*
X51147142Y-66434761D01*
X51099523Y-66387142D01*
X52051904Y-65815714D02*
X52290000Y-66482380D01*
X52528095Y-65815714D01*
X52813809Y-65482380D02*
X53432857Y-65482380D01*
X53099523Y-65863333D01*
X53242380Y-65863333D01*
X53337619Y-65910952D01*
X53385238Y-65958571D01*
X53432857Y-66053809D01*
X53432857Y-66291904D01*
X53385238Y-66387142D01*
X53337619Y-66434761D01*
X53242380Y-66482380D01*
X52956666Y-66482380D01*
X52861428Y-66434761D01*
X52813809Y-66387142D01*
X51698095Y-68020000D02*
X51602857Y-67972380D01*
X51460000Y-67972380D01*
X51317142Y-68020000D01*
X51221904Y-68115238D01*
X51174285Y-68210476D01*
X51126666Y-68400952D01*
X51126666Y-68543809D01*
X51174285Y-68734285D01*
X51221904Y-68829523D01*
X51317142Y-68924761D01*
X51460000Y-68972380D01*
X51555238Y-68972380D01*
X51698095Y-68924761D01*
X51745714Y-68877142D01*
X51745714Y-68543809D01*
X51555238Y-68543809D01*
X52174285Y-68972380D02*
X52174285Y-67972380D01*
X52745714Y-68972380D01*
X52745714Y-67972380D01*
X53221904Y-68972380D02*
X53221904Y-67972380D01*
X53460000Y-67972380D01*
X53602857Y-68020000D01*
X53698095Y-68115238D01*
X53745714Y-68210476D01*
X53793333Y-68400952D01*
X53793333Y-68543809D01*
X53745714Y-68734285D01*
X53698095Y-68829523D01*
X53602857Y-68924761D01*
X53460000Y-68972380D01*
X53221904Y-68972380D01*
X51278095Y-70717619D02*
X51325714Y-70670000D01*
X51420952Y-70622380D01*
X51659047Y-70622380D01*
X51754285Y-70670000D01*
X51801904Y-70717619D01*
X51849523Y-70812857D01*
X51849523Y-70908095D01*
X51801904Y-71050952D01*
X51230476Y-71622380D01*
X51849523Y-71622380D01*
X52182857Y-70622380D02*
X52849523Y-70622380D01*
X52420952Y-71622380D01*
X51258095Y-63057619D02*
X51305714Y-63010000D01*
X51400952Y-62962380D01*
X51639047Y-62962380D01*
X51734285Y-63010000D01*
X51781904Y-63057619D01*
X51829523Y-63152857D01*
X51829523Y-63248095D01*
X51781904Y-63390952D01*
X51210476Y-63962380D01*
X51829523Y-63962380D01*
X52686666Y-62962380D02*
X52496190Y-62962380D01*
X52400952Y-63010000D01*
X52353333Y-63057619D01*
X52258095Y-63200476D01*
X52210476Y-63390952D01*
X52210476Y-63771904D01*
X52258095Y-63867142D01*
X52305714Y-63914761D01*
X52400952Y-63962380D01*
X52591428Y-63962380D01*
X52686666Y-63914761D01*
X52734285Y-63867142D01*
X52781904Y-63771904D01*
X52781904Y-63533809D01*
X52734285Y-63438571D01*
X52686666Y-63390952D01*
X52591428Y-63343333D01*
X52400952Y-63343333D01*
X52305714Y-63390952D01*
X52258095Y-63438571D01*
X52210476Y-63533809D01*
X51248095Y-60607619D02*
X51295714Y-60560000D01*
X51390952Y-60512380D01*
X51629047Y-60512380D01*
X51724285Y-60560000D01*
X51771904Y-60607619D01*
X51819523Y-60702857D01*
X51819523Y-60798095D01*
X51771904Y-60940952D01*
X51200476Y-61512380D01*
X51819523Y-61512380D01*
X52724285Y-60512380D02*
X52248095Y-60512380D01*
X52200476Y-60988571D01*
X52248095Y-60940952D01*
X52343333Y-60893333D01*
X52581428Y-60893333D01*
X52676666Y-60940952D01*
X52724285Y-60988571D01*
X52771904Y-61083809D01*
X52771904Y-61321904D01*
X52724285Y-61417142D01*
X52676666Y-61464761D01*
X52581428Y-61512380D01*
X52343333Y-61512380D01*
X52248095Y-61464761D01*
X52200476Y-61417142D01*
X51280476Y-57932380D02*
X51899523Y-57932380D01*
X51566190Y-58313333D01*
X51709047Y-58313333D01*
X51804285Y-58360952D01*
X51851904Y-58408571D01*
X51899523Y-58503809D01*
X51899523Y-58741904D01*
X51851904Y-58837142D01*
X51804285Y-58884761D01*
X51709047Y-58932380D01*
X51423333Y-58932380D01*
X51328095Y-58884761D01*
X51280476Y-58837142D01*
X52280476Y-58027619D02*
X52328095Y-57980000D01*
X52423333Y-57932380D01*
X52661428Y-57932380D01*
X52756666Y-57980000D01*
X52804285Y-58027619D01*
X52851904Y-58122857D01*
X52851904Y-58218095D01*
X52804285Y-58360952D01*
X52232857Y-58932380D01*
X52851904Y-58932380D01*
X51280476Y-55462380D02*
X51899523Y-55462380D01*
X51566190Y-55843333D01*
X51709047Y-55843333D01*
X51804285Y-55890952D01*
X51851904Y-55938571D01*
X51899523Y-56033809D01*
X51899523Y-56271904D01*
X51851904Y-56367142D01*
X51804285Y-56414761D01*
X51709047Y-56462380D01*
X51423333Y-56462380D01*
X51328095Y-56414761D01*
X51280476Y-56367142D01*
X52804285Y-55462380D02*
X52328095Y-55462380D01*
X52280476Y-55938571D01*
X52328095Y-55890952D01*
X52423333Y-55843333D01*
X52661428Y-55843333D01*
X52756666Y-55890952D01*
X52804285Y-55938571D01*
X52851904Y-56033809D01*
X52851904Y-56271904D01*
X52804285Y-56367142D01*
X52756666Y-56414761D01*
X52661428Y-56462380D01*
X52423333Y-56462380D01*
X52328095Y-56414761D01*
X52280476Y-56367142D01*
X51250476Y-52942380D02*
X51869523Y-52942380D01*
X51536190Y-53323333D01*
X51679047Y-53323333D01*
X51774285Y-53370952D01*
X51821904Y-53418571D01*
X51869523Y-53513809D01*
X51869523Y-53751904D01*
X51821904Y-53847142D01*
X51774285Y-53894761D01*
X51679047Y-53942380D01*
X51393333Y-53942380D01*
X51298095Y-53894761D01*
X51250476Y-53847142D01*
X52726666Y-53275714D02*
X52726666Y-53942380D01*
X52488571Y-52894761D02*
X52250476Y-53609047D01*
X52869523Y-53609047D01*
X51250476Y-50282380D02*
X51869523Y-50282380D01*
X51536190Y-50663333D01*
X51679047Y-50663333D01*
X51774285Y-50710952D01*
X51821904Y-50758571D01*
X51869523Y-50853809D01*
X51869523Y-51091904D01*
X51821904Y-51187142D01*
X51774285Y-51234761D01*
X51679047Y-51282380D01*
X51393333Y-51282380D01*
X51298095Y-51234761D01*
X51250476Y-51187142D01*
X52345714Y-51282380D02*
X52536190Y-51282380D01*
X52631428Y-51234761D01*
X52679047Y-51187142D01*
X52774285Y-51044285D01*
X52821904Y-50853809D01*
X52821904Y-50472857D01*
X52774285Y-50377619D01*
X52726666Y-50330000D01*
X52631428Y-50282380D01*
X52440952Y-50282380D01*
X52345714Y-50330000D01*
X52298095Y-50377619D01*
X52250476Y-50472857D01*
X52250476Y-50710952D01*
X52298095Y-50806190D01*
X52345714Y-50853809D01*
X52440952Y-50901428D01*
X52631428Y-50901428D01*
X52726666Y-50853809D01*
X52774285Y-50806190D01*
X52821904Y-50710952D01*
X51290476Y-47932380D02*
X51909523Y-47932380D01*
X51576190Y-48313333D01*
X51719047Y-48313333D01*
X51814285Y-48360952D01*
X51861904Y-48408571D01*
X51909523Y-48503809D01*
X51909523Y-48741904D01*
X51861904Y-48837142D01*
X51814285Y-48884761D01*
X51719047Y-48932380D01*
X51433333Y-48932380D01*
X51338095Y-48884761D01*
X51290476Y-48837142D01*
X52766666Y-47932380D02*
X52576190Y-47932380D01*
X52480952Y-47980000D01*
X52433333Y-48027619D01*
X52338095Y-48170476D01*
X52290476Y-48360952D01*
X52290476Y-48741904D01*
X52338095Y-48837142D01*
X52385714Y-48884761D01*
X52480952Y-48932380D01*
X52671428Y-48932380D01*
X52766666Y-48884761D01*
X52814285Y-48837142D01*
X52861904Y-48741904D01*
X52861904Y-48503809D01*
X52814285Y-48408571D01*
X52766666Y-48360952D01*
X52671428Y-48313333D01*
X52480952Y-48313333D01*
X52385714Y-48360952D01*
X52338095Y-48408571D01*
X52290476Y-48503809D01*
X57367142Y-87932380D02*
X56890952Y-87932380D01*
X56890952Y-86932380D01*
X57843333Y-87932380D02*
X57748095Y-87884761D01*
X57700476Y-87837142D01*
X57652857Y-87741904D01*
X57652857Y-87456190D01*
X57700476Y-87360952D01*
X57748095Y-87313333D01*
X57843333Y-87265714D01*
X57986190Y-87265714D01*
X58081428Y-87313333D01*
X58129047Y-87360952D01*
X58176666Y-87456190D01*
X58176666Y-87741904D01*
X58129047Y-87837142D01*
X58081428Y-87884761D01*
X57986190Y-87932380D01*
X57843333Y-87932380D01*
X57136190Y-83102380D02*
X57136190Y-82102380D01*
X57136190Y-82578571D02*
X57707619Y-82578571D01*
X57707619Y-83102380D02*
X57707619Y-82102380D01*
X58183809Y-83102380D02*
X58183809Y-82435714D01*
X58183809Y-82102380D02*
X58136190Y-82150000D01*
X58183809Y-82197619D01*
X58231428Y-82150000D01*
X58183809Y-82102380D01*
X58183809Y-82197619D01*
D11*
X66290000Y-71260000D02*
X62840000Y-71260000D01*
X66290000Y-71260000D02*
X68240000Y-71260000D01*
X66290000Y-76380000D02*
X64340000Y-76380000D01*
X66290000Y-76380000D02*
X68240000Y-76380000D01*
X51190000Y-89070000D02*
X56020000Y-89070000D01*
X56020000Y-80940000D02*
X51190000Y-80940000D01*
X57930000Y-80940000D02*
X57930000Y-89070000D01*
X57930000Y-82210000D02*
X59320000Y-82210000D01*
X57930000Y-87800000D02*
X59320000Y-87800000D01*
X59320000Y-82210000D02*
X59320000Y-87800000D01*
X57930000Y-80940000D02*
X56020000Y-80940000D01*
X57930000Y-89070000D02*
X56020000Y-89070000D01*
X59070000Y-82210000D02*
X59070000Y-87800000D01*
X58180000Y-82210000D02*
X58180000Y-87800000D01*
X51450000Y-85390000D02*
X51190000Y-85390000D01*
X51450000Y-84620000D02*
X51450000Y-85390000D01*
X51190000Y-84620000D02*
X51450000Y-84620000D01*
X51190000Y-84620000D02*
X51190000Y-80940000D01*
X51190000Y-85390000D02*
X51190000Y-89070000D01*
X58220000Y-81900000D02*
X58220000Y-80600000D01*
X58220000Y-80600000D02*
X56020000Y-80600000D01*
X62540000Y-80570000D02*
X64000000Y-80570000D01*
X62540000Y-83730000D02*
X65700000Y-83730000D01*
X62540000Y-83730000D02*
X62540000Y-82800000D01*
X62540000Y-80570000D02*
X62540000Y-81500000D01*
X64384721Y-90750000D02*
X64710279Y-90750000D01*
X64384721Y-89730000D02*
X64710279Y-89730000D01*
X54695279Y-89700000D02*
X54369721Y-89700000D01*
X54695279Y-90720000D02*
X54369721Y-90720000D01*
X77270000Y-93914721D02*
X77270000Y-94240279D01*
X78290000Y-93914721D02*
X78290000Y-94240279D01*
X67780000Y-95022779D02*
X67780000Y-94697221D01*
X66760000Y-95022779D02*
X66760000Y-94697221D01*
X60130000Y-46927221D02*
X60130000Y-47252779D01*
X61150000Y-46927221D02*
X61150000Y-47252779D01*
X61680000Y-45867936D02*
X61680000Y-47072064D01*
X64400000Y-45867936D02*
X64400000Y-47072064D01*
D10*
X85040000Y-83445000D02*
X85040000Y-82445000D01*
X85040000Y-87045000D02*
X85040000Y-88045000D01*
X84615000Y-87045000D02*
X85040000Y-87045000D01*
X84615000Y-86320000D02*
X84615000Y-87045000D01*
X88190000Y-81095000D02*
X86790000Y-81095000D01*
X90740000Y-81095000D02*
X90590000Y-81095000D01*
X90740000Y-81395000D02*
X90740000Y-81095000D01*
X91190000Y-81395000D02*
X90740000Y-81395000D01*
X90740000Y-89095000D02*
X91190000Y-89095000D01*
X90740000Y-89395000D02*
X90740000Y-89095000D01*
X90590000Y-89395000D02*
X90740000Y-89395000D01*
X86790000Y-89395000D02*
X88190000Y-89395000D01*
D11*
X61178733Y-90740000D02*
X61521267Y-90740000D01*
X61178733Y-89720000D02*
X61521267Y-89720000D01*
X57911267Y-89700000D02*
X57568733Y-89700000D01*
X57911267Y-90720000D02*
X57568733Y-90720000D01*
X68056267Y-69760000D02*
X67713733Y-69760000D01*
X68056267Y-70780000D02*
X67713733Y-70780000D01*
X70480000Y-73883733D02*
X70480000Y-74226267D01*
X71500000Y-73883733D02*
X71500000Y-74226267D01*
D12*
X64660000Y-45020000D02*
G75*
G03X64660000Y-45020000I-100000J0D01*
G01*
D13*
X83960000Y-69020000D02*
X83960000Y-68680000D01*
X65960000Y-69020000D02*
X83960000Y-69020000D01*
X65960000Y-68680000D02*
X65960000Y-69020000D01*
X83960000Y-37620000D02*
X83960000Y-44290000D01*
X65960000Y-37620000D02*
X83960000Y-37620000D01*
X65960000Y-44290000D02*
X65960000Y-37620000D01*
D11*
X70040000Y-86575000D02*
X70040000Y-87300000D01*
X75260000Y-82080000D02*
X74535000Y-82080000D01*
X75260000Y-82805000D02*
X75260000Y-82080000D01*
X75260000Y-87300000D02*
X74535000Y-87300000D01*
X75260000Y-86575000D02*
X75260000Y-87300000D01*
X70040000Y-82080000D02*
X70765000Y-82080000D01*
X70040000Y-82805000D02*
X70040000Y-82080000D01*
X76570000Y-99010000D02*
X70560000Y-99010000D01*
X74320000Y-92190000D02*
X70560000Y-92190000D01*
X70560000Y-99010000D02*
X70560000Y-97750000D01*
X70560000Y-92190000D02*
X70560000Y-93450000D01*
X73372500Y-81345000D02*
X75657500Y-81345000D01*
X73372500Y-79875000D02*
X73372500Y-81345000D01*
X75657500Y-79875000D02*
X73372500Y-79875000D01*
X73367500Y-79735000D02*
X75652500Y-79735000D01*
X73367500Y-78265000D02*
X73367500Y-79735000D01*
X75652500Y-78265000D02*
X73367500Y-78265000D01*
X62510000Y-84470000D02*
X63970000Y-84470000D01*
X62510000Y-87630000D02*
X65670000Y-87630000D01*
X62510000Y-87630000D02*
X62510000Y-86700000D01*
X62510000Y-84470000D02*
X62510000Y-85400000D01*
X78216267Y-80100000D02*
X77873733Y-80100000D01*
X78216267Y-81120000D02*
X77873733Y-81120000D01*
X78216267Y-78480000D02*
X77873733Y-78480000D01*
X78216267Y-79500000D02*
X77873733Y-79500000D01*
X70826267Y-78440000D02*
X70483733Y-78440000D01*
X70826267Y-79460000D02*
X70483733Y-79460000D01*
X70816267Y-76910000D02*
X70473733Y-76910000D01*
X70816267Y-77930000D02*
X70473733Y-77930000D01*
X66280000Y-82073733D02*
X66280000Y-82416267D01*
X67300000Y-82073733D02*
X67300000Y-82416267D01*
X77781267Y-86020000D02*
X77438733Y-86020000D01*
X77781267Y-87040000D02*
X77438733Y-87040000D01*
X77423733Y-85230000D02*
X77766267Y-85230000D01*
X77423733Y-84210000D02*
X77766267Y-84210000D01*
X66290000Y-85948733D02*
X66290000Y-86291267D01*
X67310000Y-85948733D02*
X67310000Y-86291267D01*
X76805000Y-83215000D02*
X79090000Y-83215000D01*
X76805000Y-81745000D02*
X76805000Y-83215000D01*
X79090000Y-81745000D02*
X76805000Y-81745000D01*
X81040000Y-81696267D02*
X81040000Y-81353733D01*
X80020000Y-81696267D02*
X80020000Y-81353733D01*
X78790000Y-94267936D02*
X78790000Y-95472064D01*
X81510000Y-94267936D02*
X81510000Y-95472064D01*
X53530000Y-46920000D02*
X54860000Y-46920000D01*
X53530000Y-48250000D02*
X53530000Y-46920000D01*
X56130000Y-46920000D02*
X58730000Y-46920000D01*
X56130000Y-49520000D02*
X56130000Y-46920000D01*
X53530000Y-49520000D02*
X56130000Y-49520000D01*
X58730000Y-46920000D02*
X58730000Y-80060000D01*
X53530000Y-49520000D02*
X53530000Y-80060000D01*
X53530000Y-80060000D02*
X58730000Y-80060000D01*
X59660000Y-92810000D02*
X59660000Y-99270000D01*
X64190000Y-92810000D02*
X61590000Y-92810000D01*
X66120000Y-92810000D02*
X66120000Y-99270000D01*
X64190000Y-99270000D02*
X61590000Y-99270000D01*
X66090000Y-92810000D02*
X66120000Y-92810000D01*
X59660000Y-92810000D02*
X59690000Y-92810000D01*
X59660000Y-99270000D02*
X59690000Y-99270000D01*
X66120000Y-99270000D02*
X66090000Y-99270000D01*
X52930000Y-92820000D02*
X52930000Y-99280000D01*
X57460000Y-92820000D02*
X54860000Y-92820000D01*
X59390000Y-92820000D02*
X59390000Y-99280000D01*
X57460000Y-99280000D02*
X54860000Y-99280000D01*
X59360000Y-92820000D02*
X59390000Y-92820000D01*
X52930000Y-92820000D02*
X52960000Y-92820000D01*
X52930000Y-99280000D02*
X52960000Y-99280000D01*
X59390000Y-99280000D02*
X59360000Y-99280000D01*
X82630000Y-101160000D02*
X82630000Y-99060000D01*
X82330000Y-101460000D02*
X83930000Y-101460000D01*
X82330000Y-99760000D02*
X82330000Y-101460000D01*
X82630000Y-91960000D02*
X84430000Y-91960000D01*
X82630000Y-94060000D02*
X82630000Y-91960000D01*
X97330000Y-101160000D02*
X82630000Y-101160000D01*
X97330000Y-91960000D02*
X97330000Y-101160000D01*
X88830000Y-91960000D02*
X97330000Y-91960000D01*
X80102064Y-69720000D02*
X78897936Y-69720000D01*
X80102064Y-72440000D02*
X78897936Y-72440000D01*
X80270279Y-72980000D02*
X79944721Y-72980000D01*
X80270279Y-74000000D02*
X79944721Y-74000000D01*
X78880000Y-100792064D02*
X78880000Y-99587936D01*
X81600000Y-100792064D02*
X81600000Y-99587936D01*
X78330000Y-99550279D02*
X78330000Y-99224721D01*
X77310000Y-99550279D02*
X77310000Y-99224721D01*
X91130000Y-57530000D02*
X89800000Y-57530000D01*
X91130000Y-56200000D02*
X91130000Y-57530000D01*
X88530000Y-57530000D02*
X85930000Y-57530000D01*
X88530000Y-54930000D02*
X88530000Y-57530000D01*
X91130000Y-54930000D02*
X88530000Y-54930000D01*
X85930000Y-57530000D02*
X85930000Y-49790000D01*
X91130000Y-54930000D02*
X91130000Y-49790000D01*
X91130000Y-49790000D02*
X85930000Y-49790000D01*
X70210000Y-101690000D02*
X70210000Y-106890000D01*
X75350000Y-101690000D02*
X70210000Y-101690000D01*
X77950000Y-106890000D02*
X70210000Y-106890000D01*
X75350000Y-101690000D02*
X75350000Y-104290000D01*
X75350000Y-104290000D02*
X77950000Y-104290000D01*
X77950000Y-104290000D02*
X77950000Y-106890000D01*
X76620000Y-101690000D02*
X77950000Y-101690000D01*
X77950000Y-101690000D02*
X77950000Y-103020000D01*
X68140000Y-101670000D02*
X68140000Y-103000000D01*
X66810000Y-101670000D02*
X68140000Y-101670000D01*
X68140000Y-104270000D02*
X68140000Y-106870000D01*
X65540000Y-104270000D02*
X68140000Y-104270000D01*
X65540000Y-101670000D02*
X65540000Y-104270000D01*
X68140000Y-106870000D02*
X60400000Y-106870000D01*
X65540000Y-101670000D02*
X60400000Y-101670000D01*
X60400000Y-101670000D02*
X60400000Y-106870000D01*
X92060000Y-79490000D02*
X92060000Y-70090000D01*
X86260000Y-70090000D02*
X88260000Y-70090000D01*
X90160000Y-70090000D02*
X92060000Y-70090000D01*
X86260000Y-79490000D02*
X88260000Y-79490000D01*
X90160000Y-79490000D02*
X92060000Y-79490000D01*
X91440000Y-65491000D02*
X89930000Y-65491000D01*
X91440000Y-61790000D02*
X89930000Y-61790000D01*
X89930000Y-58520000D02*
X89930000Y-68760000D01*
X91440000Y-68760000D02*
X86799000Y-68760000D01*
X91440000Y-58520000D02*
X86799000Y-58520000D01*
X86799000Y-58520000D02*
X86799000Y-68760000D01*
X91440000Y-58520000D02*
X91440000Y-68760000D01*
D10*
X63637142Y-70322857D02*
X63684761Y-70370476D01*
X63732380Y-70513333D01*
X63732380Y-70608571D01*
X63684761Y-70751428D01*
X63589523Y-70846666D01*
X63494285Y-70894285D01*
X63303809Y-70941904D01*
X63160952Y-70941904D01*
X62970476Y-70894285D01*
X62875238Y-70846666D01*
X62780000Y-70751428D01*
X62732380Y-70608571D01*
X62732380Y-70513333D01*
X62780000Y-70370476D01*
X62827619Y-70322857D01*
X63446666Y-69941904D02*
X63446666Y-69465714D01*
X63732380Y-70037142D02*
X62732380Y-69703809D01*
X63732380Y-69370476D01*
X63732380Y-69037142D02*
X62732380Y-69037142D01*
X63732380Y-68465714D01*
X62732380Y-68465714D01*
X52912380Y-85283333D02*
X53626666Y-85283333D01*
X53769523Y-85330952D01*
X53864761Y-85426190D01*
X53912380Y-85569047D01*
X53912380Y-85664285D01*
X53245714Y-84378571D02*
X53912380Y-84378571D01*
X52864761Y-84616666D02*
X53579047Y-84854761D01*
X53579047Y-84235714D01*
X62922857Y-80118571D02*
X62865714Y-80090000D01*
X62808571Y-80032857D01*
X62722857Y-79947142D01*
X62665714Y-79918571D01*
X62608571Y-79918571D01*
X62637142Y-80061428D02*
X62580000Y-80032857D01*
X62522857Y-79975714D01*
X62494285Y-79861428D01*
X62494285Y-79661428D01*
X62522857Y-79547142D01*
X62580000Y-79490000D01*
X62637142Y-79461428D01*
X62751428Y-79461428D01*
X62808571Y-79490000D01*
X62865714Y-79547142D01*
X62894285Y-79661428D01*
X62894285Y-79861428D01*
X62865714Y-79975714D01*
X62808571Y-80032857D01*
X62751428Y-80061428D01*
X62637142Y-80061428D01*
X63094285Y-79461428D02*
X63465714Y-79461428D01*
X63265714Y-79690000D01*
X63351428Y-79690000D01*
X63408571Y-79718571D01*
X63437142Y-79747142D01*
X63465714Y-79804285D01*
X63465714Y-79947142D01*
X63437142Y-80004285D01*
X63408571Y-80032857D01*
X63351428Y-80061428D01*
X63180000Y-80061428D01*
X63122857Y-80032857D01*
X63094285Y-80004285D01*
X64293333Y-89287142D02*
X64245714Y-89334761D01*
X64102857Y-89382380D01*
X64007619Y-89382380D01*
X63864761Y-89334761D01*
X63769523Y-89239523D01*
X63721904Y-89144285D01*
X63674285Y-88953809D01*
X63674285Y-88810952D01*
X63721904Y-88620476D01*
X63769523Y-88525238D01*
X63864761Y-88430000D01*
X64007619Y-88382380D01*
X64102857Y-88382380D01*
X64245714Y-88430000D01*
X64293333Y-88477619D01*
X65245714Y-89382380D02*
X64674285Y-89382380D01*
X64960000Y-89382380D02*
X64960000Y-88382380D01*
X64864761Y-88525238D01*
X64769523Y-88620476D01*
X64674285Y-88668095D01*
X51793333Y-90637142D02*
X51745714Y-90684761D01*
X51602857Y-90732380D01*
X51507619Y-90732380D01*
X51364761Y-90684761D01*
X51269523Y-90589523D01*
X51221904Y-90494285D01*
X51174285Y-90303809D01*
X51174285Y-90160952D01*
X51221904Y-89970476D01*
X51269523Y-89875238D01*
X51364761Y-89780000D01*
X51507619Y-89732380D01*
X51602857Y-89732380D01*
X51745714Y-89780000D01*
X51793333Y-89827619D01*
X52174285Y-89827619D02*
X52221904Y-89780000D01*
X52317142Y-89732380D01*
X52555238Y-89732380D01*
X52650476Y-89780000D01*
X52698095Y-89827619D01*
X52745714Y-89922857D01*
X52745714Y-90018095D01*
X52698095Y-90160952D01*
X52126666Y-90732380D01*
X52745714Y-90732380D01*
X77493333Y-92177142D02*
X77445714Y-92224761D01*
X77302857Y-92272380D01*
X77207619Y-92272380D01*
X77064761Y-92224761D01*
X76969523Y-92129523D01*
X76921904Y-92034285D01*
X76874285Y-91843809D01*
X76874285Y-91700952D01*
X76921904Y-91510476D01*
X76969523Y-91415238D01*
X77064761Y-91320000D01*
X77207619Y-91272380D01*
X77302857Y-91272380D01*
X77445714Y-91320000D01*
X77493333Y-91367619D01*
X78350476Y-91605714D02*
X78350476Y-92272380D01*
X78112380Y-91224761D02*
X77874285Y-91939047D01*
X78493333Y-91939047D01*
X67003333Y-92917142D02*
X66955714Y-92964761D01*
X66812857Y-93012380D01*
X66717619Y-93012380D01*
X66574761Y-92964761D01*
X66479523Y-92869523D01*
X66431904Y-92774285D01*
X66384285Y-92583809D01*
X66384285Y-92440952D01*
X66431904Y-92250476D01*
X66479523Y-92155238D01*
X66574761Y-92060000D01*
X66717619Y-92012380D01*
X66812857Y-92012380D01*
X66955714Y-92060000D01*
X67003333Y-92107619D01*
X67908095Y-92012380D02*
X67431904Y-92012380D01*
X67384285Y-92488571D01*
X67431904Y-92440952D01*
X67527142Y-92393333D01*
X67765238Y-92393333D01*
X67860476Y-92440952D01*
X67908095Y-92488571D01*
X67955714Y-92583809D01*
X67955714Y-92821904D01*
X67908095Y-92917142D01*
X67860476Y-92964761D01*
X67765238Y-93012380D01*
X67527142Y-93012380D01*
X67431904Y-92964761D01*
X67384285Y-92917142D01*
X60143333Y-45297142D02*
X60095714Y-45344761D01*
X59952857Y-45392380D01*
X59857619Y-45392380D01*
X59714761Y-45344761D01*
X59619523Y-45249523D01*
X59571904Y-45154285D01*
X59524285Y-44963809D01*
X59524285Y-44820952D01*
X59571904Y-44630476D01*
X59619523Y-44535238D01*
X59714761Y-44440000D01*
X59857619Y-44392380D01*
X59952857Y-44392380D01*
X60095714Y-44440000D01*
X60143333Y-44487619D01*
X61000476Y-44392380D02*
X60810000Y-44392380D01*
X60714761Y-44440000D01*
X60667142Y-44487619D01*
X60571904Y-44630476D01*
X60524285Y-44820952D01*
X60524285Y-45201904D01*
X60571904Y-45297142D01*
X60619523Y-45344761D01*
X60714761Y-45392380D01*
X60905238Y-45392380D01*
X61000476Y-45344761D01*
X61048095Y-45297142D01*
X61095714Y-45201904D01*
X61095714Y-44963809D01*
X61048095Y-44868571D01*
X61000476Y-44820952D01*
X60905238Y-44773333D01*
X60714761Y-44773333D01*
X60619523Y-44820952D01*
X60571904Y-44868571D01*
X60524285Y-44963809D01*
X62783333Y-49777142D02*
X62735714Y-49824761D01*
X62592857Y-49872380D01*
X62497619Y-49872380D01*
X62354761Y-49824761D01*
X62259523Y-49729523D01*
X62211904Y-49634285D01*
X62164285Y-49443809D01*
X62164285Y-49300952D01*
X62211904Y-49110476D01*
X62259523Y-49015238D01*
X62354761Y-48920000D01*
X62497619Y-48872380D01*
X62592857Y-48872380D01*
X62735714Y-48920000D01*
X62783333Y-48967619D01*
X63116666Y-48872380D02*
X63783333Y-48872380D01*
X63354761Y-49872380D01*
X88628571Y-86838571D02*
X88628571Y-87171904D01*
X89152380Y-87171904D02*
X88152380Y-87171904D01*
X88152380Y-86695714D01*
X89152380Y-86171904D02*
X89104761Y-86267142D01*
X89009523Y-86314761D01*
X88152380Y-86314761D01*
X89152380Y-85362380D02*
X88628571Y-85362380D01*
X88533333Y-85410000D01*
X88485714Y-85505238D01*
X88485714Y-85695714D01*
X88533333Y-85790952D01*
X89104761Y-85362380D02*
X89152380Y-85457619D01*
X89152380Y-85695714D01*
X89104761Y-85790952D01*
X89009523Y-85838571D01*
X88914285Y-85838571D01*
X88819047Y-85790952D01*
X88771428Y-85695714D01*
X88771428Y-85457619D01*
X88723809Y-85362380D01*
X89104761Y-84933809D02*
X89152380Y-84838571D01*
X89152380Y-84648095D01*
X89104761Y-84552857D01*
X89009523Y-84505238D01*
X88961904Y-84505238D01*
X88866666Y-84552857D01*
X88819047Y-84648095D01*
X88819047Y-84790952D01*
X88771428Y-84886190D01*
X88676190Y-84933809D01*
X88628571Y-84933809D01*
X88533333Y-84886190D01*
X88485714Y-84790952D01*
X88485714Y-84648095D01*
X88533333Y-84552857D01*
X89152380Y-84076666D02*
X88152380Y-84076666D01*
X89152380Y-83648095D02*
X88628571Y-83648095D01*
X88533333Y-83695714D01*
X88485714Y-83790952D01*
X88485714Y-83933809D01*
X88533333Y-84029047D01*
X88580952Y-84076666D01*
X61163333Y-89282380D02*
X60830000Y-88806190D01*
X60591904Y-89282380D02*
X60591904Y-88282380D01*
X60972857Y-88282380D01*
X61068095Y-88330000D01*
X61115714Y-88377619D01*
X61163333Y-88472857D01*
X61163333Y-88615714D01*
X61115714Y-88710952D01*
X61068095Y-88758571D01*
X60972857Y-88806190D01*
X60591904Y-88806190D01*
X62115714Y-89282380D02*
X61544285Y-89282380D01*
X61830000Y-89282380D02*
X61830000Y-88282380D01*
X61734761Y-88425238D01*
X61639523Y-88520476D01*
X61544285Y-88568095D01*
X58913333Y-89192380D02*
X58580000Y-88716190D01*
X58341904Y-89192380D02*
X58341904Y-88192380D01*
X58722857Y-88192380D01*
X58818095Y-88240000D01*
X58865714Y-88287619D01*
X58913333Y-88382857D01*
X58913333Y-88525714D01*
X58865714Y-88620952D01*
X58818095Y-88668571D01*
X58722857Y-88716190D01*
X58341904Y-88716190D01*
X59294285Y-88287619D02*
X59341904Y-88240000D01*
X59437142Y-88192380D01*
X59675238Y-88192380D01*
X59770476Y-88240000D01*
X59818095Y-88287619D01*
X59865714Y-88382857D01*
X59865714Y-88478095D01*
X59818095Y-88620952D01*
X59246666Y-89192380D01*
X59865714Y-89192380D01*
X65033333Y-70762380D02*
X64700000Y-70286190D01*
X64461904Y-70762380D02*
X64461904Y-69762380D01*
X64842857Y-69762380D01*
X64938095Y-69810000D01*
X64985714Y-69857619D01*
X65033333Y-69952857D01*
X65033333Y-70095714D01*
X64985714Y-70190952D01*
X64938095Y-70238571D01*
X64842857Y-70286190D01*
X64461904Y-70286190D01*
X65366666Y-69762380D02*
X65985714Y-69762380D01*
X65652380Y-70143333D01*
X65795238Y-70143333D01*
X65890476Y-70190952D01*
X65938095Y-70238571D01*
X65985714Y-70333809D01*
X65985714Y-70571904D01*
X65938095Y-70667142D01*
X65890476Y-70714761D01*
X65795238Y-70762380D01*
X65509523Y-70762380D01*
X65414285Y-70714761D01*
X65366666Y-70667142D01*
X70803333Y-72202380D02*
X70470000Y-71726190D01*
X70231904Y-72202380D02*
X70231904Y-71202380D01*
X70612857Y-71202380D01*
X70708095Y-71250000D01*
X70755714Y-71297619D01*
X70803333Y-71392857D01*
X70803333Y-71535714D01*
X70755714Y-71630952D01*
X70708095Y-71678571D01*
X70612857Y-71726190D01*
X70231904Y-71726190D01*
X71660476Y-71535714D02*
X71660476Y-72202380D01*
X71422380Y-71154761D02*
X71184285Y-71869047D01*
X71803333Y-71869047D01*
D12*
X72648095Y-47222380D02*
X72648095Y-48031904D01*
X72695714Y-48127142D01*
X72743333Y-48174761D01*
X72838571Y-48222380D01*
X73029047Y-48222380D01*
X73124285Y-48174761D01*
X73171904Y-48127142D01*
X73219523Y-48031904D01*
X73219523Y-47222380D01*
X74219523Y-48222380D02*
X73648095Y-48222380D01*
X73933809Y-48222380D02*
X73933809Y-47222380D01*
X73838571Y-47365238D01*
X73743333Y-47460476D01*
X73648095Y-47508095D01*
D10*
X70198095Y-88042380D02*
X70198095Y-88851904D01*
X70245714Y-88947142D01*
X70293333Y-88994761D01*
X70388571Y-89042380D01*
X70579047Y-89042380D01*
X70674285Y-88994761D01*
X70721904Y-88947142D01*
X70769523Y-88851904D01*
X70769523Y-88042380D01*
X71198095Y-88137619D02*
X71245714Y-88090000D01*
X71340952Y-88042380D01*
X71579047Y-88042380D01*
X71674285Y-88090000D01*
X71721904Y-88137619D01*
X71769523Y-88232857D01*
X71769523Y-88328095D01*
X71721904Y-88470952D01*
X71150476Y-89042380D01*
X71769523Y-89042380D01*
X71074285Y-91496666D02*
X71550476Y-91496666D01*
X70979047Y-91782380D02*
X71312380Y-90782380D01*
X71645714Y-91782380D01*
X71979047Y-91782380D02*
X71979047Y-90782380D01*
X72312380Y-91496666D01*
X72645714Y-90782380D01*
X72645714Y-91782380D01*
X73074285Y-91734761D02*
X73217142Y-91782380D01*
X73455238Y-91782380D01*
X73550476Y-91734761D01*
X73598095Y-91687142D01*
X73645714Y-91591904D01*
X73645714Y-91496666D01*
X73598095Y-91401428D01*
X73550476Y-91353809D01*
X73455238Y-91306190D01*
X73264761Y-91258571D01*
X73169523Y-91210952D01*
X73121904Y-91163333D01*
X73074285Y-91068095D01*
X73074285Y-90972857D01*
X73121904Y-90877619D01*
X73169523Y-90830000D01*
X73264761Y-90782380D01*
X73502857Y-90782380D01*
X73645714Y-90830000D01*
X71511904Y-81132380D02*
X71511904Y-80132380D01*
X71750000Y-80132380D01*
X71892857Y-80180000D01*
X71988095Y-80275238D01*
X72035714Y-80370476D01*
X72083333Y-80560952D01*
X72083333Y-80703809D01*
X72035714Y-80894285D01*
X71988095Y-80989523D01*
X71892857Y-81084761D01*
X71750000Y-81132380D01*
X71511904Y-81132380D01*
X72416666Y-80132380D02*
X73035714Y-80132380D01*
X72702380Y-80513333D01*
X72845238Y-80513333D01*
X72940476Y-80560952D01*
X72988095Y-80608571D01*
X73035714Y-80703809D01*
X73035714Y-80941904D01*
X72988095Y-81037142D01*
X72940476Y-81084761D01*
X72845238Y-81132380D01*
X72559523Y-81132380D01*
X72464285Y-81084761D01*
X72416666Y-81037142D01*
X73851904Y-78092380D02*
X73851904Y-77092380D01*
X74090000Y-77092380D01*
X74232857Y-77140000D01*
X74328095Y-77235238D01*
X74375714Y-77330476D01*
X74423333Y-77520952D01*
X74423333Y-77663809D01*
X74375714Y-77854285D01*
X74328095Y-77949523D01*
X74232857Y-78044761D01*
X74090000Y-78092380D01*
X73851904Y-78092380D01*
X75280476Y-77425714D02*
X75280476Y-78092380D01*
X75042380Y-77044761D02*
X74804285Y-77759047D01*
X75423333Y-77759047D01*
X61262857Y-87548571D02*
X61205714Y-87520000D01*
X61148571Y-87462857D01*
X61062857Y-87377142D01*
X61005714Y-87348571D01*
X60948571Y-87348571D01*
X60977142Y-87491428D02*
X60920000Y-87462857D01*
X60862857Y-87405714D01*
X60834285Y-87291428D01*
X60834285Y-87091428D01*
X60862857Y-86977142D01*
X60920000Y-86920000D01*
X60977142Y-86891428D01*
X61091428Y-86891428D01*
X61148571Y-86920000D01*
X61205714Y-86977142D01*
X61234285Y-87091428D01*
X61234285Y-87291428D01*
X61205714Y-87405714D01*
X61148571Y-87462857D01*
X61091428Y-87491428D01*
X60977142Y-87491428D01*
X61748571Y-87091428D02*
X61748571Y-87491428D01*
X61605714Y-86862857D02*
X61462857Y-87291428D01*
X61834285Y-87291428D01*
X80553333Y-79732380D02*
X80220000Y-79256190D01*
X79981904Y-79732380D02*
X79981904Y-78732380D01*
X80362857Y-78732380D01*
X80458095Y-78780000D01*
X80505714Y-78827619D01*
X80553333Y-78922857D01*
X80553333Y-79065714D01*
X80505714Y-79160952D01*
X80458095Y-79208571D01*
X80362857Y-79256190D01*
X79981904Y-79256190D01*
X81029523Y-79732380D02*
X81220000Y-79732380D01*
X81315238Y-79684761D01*
X81362857Y-79637142D01*
X81458095Y-79494285D01*
X81505714Y-79303809D01*
X81505714Y-78922857D01*
X81458095Y-78827619D01*
X81410476Y-78780000D01*
X81315238Y-78732380D01*
X81124761Y-78732380D01*
X81029523Y-78780000D01*
X80981904Y-78827619D01*
X80934285Y-78922857D01*
X80934285Y-79160952D01*
X80981904Y-79256190D01*
X81029523Y-79303809D01*
X81124761Y-79351428D01*
X81315238Y-79351428D01*
X81410476Y-79303809D01*
X81458095Y-79256190D01*
X81505714Y-79160952D01*
X77597142Y-78022380D02*
X77263809Y-77546190D01*
X77025714Y-78022380D02*
X77025714Y-77022380D01*
X77406666Y-77022380D01*
X77501904Y-77070000D01*
X77549523Y-77117619D01*
X77597142Y-77212857D01*
X77597142Y-77355714D01*
X77549523Y-77450952D01*
X77501904Y-77498571D01*
X77406666Y-77546190D01*
X77025714Y-77546190D01*
X78549523Y-78022380D02*
X77978095Y-78022380D01*
X78263809Y-78022380D02*
X78263809Y-77022380D01*
X78168571Y-77165238D01*
X78073333Y-77260476D01*
X77978095Y-77308095D01*
X79168571Y-77022380D02*
X79263809Y-77022380D01*
X79359047Y-77070000D01*
X79406666Y-77117619D01*
X79454285Y-77212857D01*
X79501904Y-77403333D01*
X79501904Y-77641428D01*
X79454285Y-77831904D01*
X79406666Y-77927142D01*
X79359047Y-77974761D01*
X79263809Y-78022380D01*
X79168571Y-78022380D01*
X79073333Y-77974761D01*
X79025714Y-77927142D01*
X78978095Y-77831904D01*
X78930476Y-77641428D01*
X78930476Y-77403333D01*
X78978095Y-77212857D01*
X79025714Y-77117619D01*
X79073333Y-77070000D01*
X79168571Y-77022380D01*
X66907142Y-79402380D02*
X66573809Y-78926190D01*
X66335714Y-79402380D02*
X66335714Y-78402380D01*
X66716666Y-78402380D01*
X66811904Y-78450000D01*
X66859523Y-78497619D01*
X66907142Y-78592857D01*
X66907142Y-78735714D01*
X66859523Y-78830952D01*
X66811904Y-78878571D01*
X66716666Y-78926190D01*
X66335714Y-78926190D01*
X67859523Y-79402380D02*
X67288095Y-79402380D01*
X67573809Y-79402380D02*
X67573809Y-78402380D01*
X67478571Y-78545238D01*
X67383333Y-78640476D01*
X67288095Y-78688095D01*
X68811904Y-79402380D02*
X68240476Y-79402380D01*
X68526190Y-79402380D02*
X68526190Y-78402380D01*
X68430952Y-78545238D01*
X68335714Y-78640476D01*
X68240476Y-78688095D01*
X66777142Y-77912380D02*
X66443809Y-77436190D01*
X66205714Y-77912380D02*
X66205714Y-76912380D01*
X66586666Y-76912380D01*
X66681904Y-76960000D01*
X66729523Y-77007619D01*
X66777142Y-77102857D01*
X66777142Y-77245714D01*
X66729523Y-77340952D01*
X66681904Y-77388571D01*
X66586666Y-77436190D01*
X66205714Y-77436190D01*
X67729523Y-77912380D02*
X67158095Y-77912380D01*
X67443809Y-77912380D02*
X67443809Y-76912380D01*
X67348571Y-77055238D01*
X67253333Y-77150476D01*
X67158095Y-77198095D01*
X68110476Y-77007619D02*
X68158095Y-76960000D01*
X68253333Y-76912380D01*
X68491428Y-76912380D01*
X68586666Y-76960000D01*
X68634285Y-77007619D01*
X68681904Y-77102857D01*
X68681904Y-77198095D01*
X68634285Y-77340952D01*
X68062857Y-77912380D01*
X68681904Y-77912380D01*
X68237142Y-81142380D02*
X67903809Y-80666190D01*
X67665714Y-81142380D02*
X67665714Y-80142380D01*
X68046666Y-80142380D01*
X68141904Y-80190000D01*
X68189523Y-80237619D01*
X68237142Y-80332857D01*
X68237142Y-80475714D01*
X68189523Y-80570952D01*
X68141904Y-80618571D01*
X68046666Y-80666190D01*
X67665714Y-80666190D01*
X69189523Y-81142380D02*
X68618095Y-81142380D01*
X68903809Y-81142380D02*
X68903809Y-80142380D01*
X68808571Y-80285238D01*
X68713333Y-80380476D01*
X68618095Y-80428095D01*
X69522857Y-80142380D02*
X70141904Y-80142380D01*
X69808571Y-80523333D01*
X69951428Y-80523333D01*
X70046666Y-80570952D01*
X70094285Y-80618571D01*
X70141904Y-80713809D01*
X70141904Y-80951904D01*
X70094285Y-81047142D01*
X70046666Y-81094761D01*
X69951428Y-81142380D01*
X69665714Y-81142380D01*
X69570476Y-81094761D01*
X69522857Y-81047142D01*
X76997142Y-88492380D02*
X76663809Y-88016190D01*
X76425714Y-88492380D02*
X76425714Y-87492380D01*
X76806666Y-87492380D01*
X76901904Y-87540000D01*
X76949523Y-87587619D01*
X76997142Y-87682857D01*
X76997142Y-87825714D01*
X76949523Y-87920952D01*
X76901904Y-87968571D01*
X76806666Y-88016190D01*
X76425714Y-88016190D01*
X77949523Y-88492380D02*
X77378095Y-88492380D01*
X77663809Y-88492380D02*
X77663809Y-87492380D01*
X77568571Y-87635238D01*
X77473333Y-87730476D01*
X77378095Y-87778095D01*
X78806666Y-87825714D02*
X78806666Y-88492380D01*
X78568571Y-87444761D02*
X78330476Y-88159047D01*
X78949523Y-88159047D01*
X80157142Y-85492380D02*
X79823809Y-85016190D01*
X79585714Y-85492380D02*
X79585714Y-84492380D01*
X79966666Y-84492380D01*
X80061904Y-84540000D01*
X80109523Y-84587619D01*
X80157142Y-84682857D01*
X80157142Y-84825714D01*
X80109523Y-84920952D01*
X80061904Y-84968571D01*
X79966666Y-85016190D01*
X79585714Y-85016190D01*
X81109523Y-85492380D02*
X80538095Y-85492380D01*
X80823809Y-85492380D02*
X80823809Y-84492380D01*
X80728571Y-84635238D01*
X80633333Y-84730476D01*
X80538095Y-84778095D01*
X82014285Y-84492380D02*
X81538095Y-84492380D01*
X81490476Y-84968571D01*
X81538095Y-84920952D01*
X81633333Y-84873333D01*
X81871428Y-84873333D01*
X81966666Y-84920952D01*
X82014285Y-84968571D01*
X82061904Y-85063809D01*
X82061904Y-85301904D01*
X82014285Y-85397142D01*
X81966666Y-85444761D01*
X81871428Y-85492380D01*
X81633333Y-85492380D01*
X81538095Y-85444761D01*
X81490476Y-85397142D01*
X66857142Y-89092380D02*
X66523809Y-88616190D01*
X66285714Y-89092380D02*
X66285714Y-88092380D01*
X66666666Y-88092380D01*
X66761904Y-88140000D01*
X66809523Y-88187619D01*
X66857142Y-88282857D01*
X66857142Y-88425714D01*
X66809523Y-88520952D01*
X66761904Y-88568571D01*
X66666666Y-88616190D01*
X66285714Y-88616190D01*
X67809523Y-89092380D02*
X67238095Y-89092380D01*
X67523809Y-89092380D02*
X67523809Y-88092380D01*
X67428571Y-88235238D01*
X67333333Y-88330476D01*
X67238095Y-88378095D01*
X68666666Y-88092380D02*
X68476190Y-88092380D01*
X68380952Y-88140000D01*
X68333333Y-88187619D01*
X68238095Y-88330476D01*
X68190476Y-88520952D01*
X68190476Y-88901904D01*
X68238095Y-88997142D01*
X68285714Y-89044761D01*
X68380952Y-89092380D01*
X68571428Y-89092380D01*
X68666666Y-89044761D01*
X68714285Y-88997142D01*
X68761904Y-88901904D01*
X68761904Y-88663809D01*
X68714285Y-88568571D01*
X68666666Y-88520952D01*
X68571428Y-88473333D01*
X68380952Y-88473333D01*
X68285714Y-88520952D01*
X68238095Y-88568571D01*
X68190476Y-88663809D01*
X75141904Y-82692380D02*
X75141904Y-81692380D01*
X75380000Y-81692380D01*
X75522857Y-81740000D01*
X75618095Y-81835238D01*
X75665714Y-81930476D01*
X75713333Y-82120952D01*
X75713333Y-82263809D01*
X75665714Y-82454285D01*
X75618095Y-82549523D01*
X75522857Y-82644761D01*
X75380000Y-82692380D01*
X75141904Y-82692380D01*
X76618095Y-81692380D02*
X76141904Y-81692380D01*
X76094285Y-82168571D01*
X76141904Y-82120952D01*
X76237142Y-82073333D01*
X76475238Y-82073333D01*
X76570476Y-82120952D01*
X76618095Y-82168571D01*
X76665714Y-82263809D01*
X76665714Y-82501904D01*
X76618095Y-82597142D01*
X76570476Y-82644761D01*
X76475238Y-82692380D01*
X76237142Y-82692380D01*
X76141904Y-82644761D01*
X76094285Y-82597142D01*
X81997142Y-83132380D02*
X81663809Y-82656190D01*
X81425714Y-83132380D02*
X81425714Y-82132380D01*
X81806666Y-82132380D01*
X81901904Y-82180000D01*
X81949523Y-82227619D01*
X81997142Y-82322857D01*
X81997142Y-82465714D01*
X81949523Y-82560952D01*
X81901904Y-82608571D01*
X81806666Y-82656190D01*
X81425714Y-82656190D01*
X82949523Y-83132380D02*
X82378095Y-83132380D01*
X82663809Y-83132380D02*
X82663809Y-82132380D01*
X82568571Y-82275238D01*
X82473333Y-82370476D01*
X82378095Y-82418095D01*
X83282857Y-82132380D02*
X83949523Y-82132380D01*
X83520952Y-83132380D01*
X79903333Y-92327142D02*
X79855714Y-92374761D01*
X79712857Y-92422380D01*
X79617619Y-92422380D01*
X79474761Y-92374761D01*
X79379523Y-92279523D01*
X79331904Y-92184285D01*
X79284285Y-91993809D01*
X79284285Y-91850952D01*
X79331904Y-91660476D01*
X79379523Y-91565238D01*
X79474761Y-91470000D01*
X79617619Y-91422380D01*
X79712857Y-91422380D01*
X79855714Y-91470000D01*
X79903333Y-91517619D01*
X80236666Y-91422380D02*
X80855714Y-91422380D01*
X80522380Y-91803333D01*
X80665238Y-91803333D01*
X80760476Y-91850952D01*
X80808095Y-91898571D01*
X80855714Y-91993809D01*
X80855714Y-92231904D01*
X80808095Y-92327142D01*
X80760476Y-92374761D01*
X80665238Y-92422380D01*
X80379523Y-92422380D01*
X80284285Y-92374761D01*
X80236666Y-92327142D01*
X52140952Y-45737142D02*
X52093333Y-45784761D01*
X51950476Y-45832380D01*
X51855238Y-45832380D01*
X51712380Y-45784761D01*
X51617142Y-45689523D01*
X51569523Y-45594285D01*
X51521904Y-45403809D01*
X51521904Y-45260952D01*
X51569523Y-45070476D01*
X51617142Y-44975238D01*
X51712380Y-44880000D01*
X51855238Y-44832380D01*
X51950476Y-44832380D01*
X52093333Y-44880000D01*
X52140952Y-44927619D01*
X52760000Y-44832380D02*
X52950476Y-44832380D01*
X53045714Y-44880000D01*
X53140952Y-44975238D01*
X53188571Y-45165714D01*
X53188571Y-45499047D01*
X53140952Y-45689523D01*
X53045714Y-45784761D01*
X52950476Y-45832380D01*
X52760000Y-45832380D01*
X52664761Y-45784761D01*
X52569523Y-45689523D01*
X52521904Y-45499047D01*
X52521904Y-45165714D01*
X52569523Y-44975238D01*
X52664761Y-44880000D01*
X52760000Y-44832380D01*
X53617142Y-45165714D02*
X53617142Y-45832380D01*
X53617142Y-45260952D02*
X53664761Y-45213333D01*
X53760000Y-45165714D01*
X53902857Y-45165714D01*
X53998095Y-45213333D01*
X54045714Y-45308571D01*
X54045714Y-45832380D01*
X54521904Y-45165714D02*
X54521904Y-45832380D01*
X54521904Y-45260952D02*
X54569523Y-45213333D01*
X54664761Y-45165714D01*
X54807619Y-45165714D01*
X54902857Y-45213333D01*
X54950476Y-45308571D01*
X54950476Y-45832380D01*
X65544761Y-97603333D02*
X65592380Y-97460476D01*
X65592380Y-97222380D01*
X65544761Y-97127142D01*
X65497142Y-97079523D01*
X65401904Y-97031904D01*
X65306666Y-97031904D01*
X65211428Y-97079523D01*
X65163809Y-97127142D01*
X65116190Y-97222380D01*
X65068571Y-97412857D01*
X65020952Y-97508095D01*
X64973333Y-97555714D01*
X64878095Y-97603333D01*
X64782857Y-97603333D01*
X64687619Y-97555714D01*
X64640000Y-97508095D01*
X64592380Y-97412857D01*
X64592380Y-97174761D01*
X64640000Y-97031904D01*
X64592380Y-96698571D02*
X65592380Y-96460476D01*
X64878095Y-96270000D01*
X65592380Y-96079523D01*
X64592380Y-95841428D01*
X65592380Y-94936666D02*
X65592380Y-95508095D01*
X65592380Y-95222380D02*
X64592380Y-95222380D01*
X64735238Y-95317619D01*
X64830476Y-95412857D01*
X64878095Y-95508095D01*
X52544761Y-98263333D02*
X52592380Y-98120476D01*
X52592380Y-97882380D01*
X52544761Y-97787142D01*
X52497142Y-97739523D01*
X52401904Y-97691904D01*
X52306666Y-97691904D01*
X52211428Y-97739523D01*
X52163809Y-97787142D01*
X52116190Y-97882380D01*
X52068571Y-98072857D01*
X52020952Y-98168095D01*
X51973333Y-98215714D01*
X51878095Y-98263333D01*
X51782857Y-98263333D01*
X51687619Y-98215714D01*
X51640000Y-98168095D01*
X51592380Y-98072857D01*
X51592380Y-97834761D01*
X51640000Y-97691904D01*
X51592380Y-97358571D02*
X52592380Y-97120476D01*
X51878095Y-96930000D01*
X52592380Y-96739523D01*
X51592380Y-96501428D01*
X51687619Y-96168095D02*
X51640000Y-96120476D01*
X51592380Y-96025238D01*
X51592380Y-95787142D01*
X51640000Y-95691904D01*
X51687619Y-95644285D01*
X51782857Y-95596666D01*
X51878095Y-95596666D01*
X52020952Y-95644285D01*
X52592380Y-96215714D01*
X52592380Y-95596666D01*
X86942380Y-99406190D02*
X85942380Y-99406190D01*
X85942380Y-99025238D01*
X85990000Y-98930000D01*
X86037619Y-98882380D01*
X86132857Y-98834761D01*
X86275714Y-98834761D01*
X86370952Y-98882380D01*
X86418571Y-98930000D01*
X86466190Y-99025238D01*
X86466190Y-99406190D01*
X86942380Y-98263333D02*
X86894761Y-98358571D01*
X86847142Y-98406190D01*
X86751904Y-98453809D01*
X86466190Y-98453809D01*
X86370952Y-98406190D01*
X86323333Y-98358571D01*
X86275714Y-98263333D01*
X86275714Y-98120476D01*
X86323333Y-98025238D01*
X86370952Y-97977619D01*
X86466190Y-97930000D01*
X86751904Y-97930000D01*
X86847142Y-97977619D01*
X86894761Y-98025238D01*
X86942380Y-98120476D01*
X86942380Y-98263333D01*
X86275714Y-97596666D02*
X86942380Y-97406190D01*
X86466190Y-97215714D01*
X86942380Y-97025238D01*
X86275714Y-96834761D01*
X86894761Y-96072857D02*
X86942380Y-96168095D01*
X86942380Y-96358571D01*
X86894761Y-96453809D01*
X86799523Y-96501428D01*
X86418571Y-96501428D01*
X86323333Y-96453809D01*
X86275714Y-96358571D01*
X86275714Y-96168095D01*
X86323333Y-96072857D01*
X86418571Y-96025238D01*
X86513809Y-96025238D01*
X86609047Y-96501428D01*
X86942380Y-95596666D02*
X86275714Y-95596666D01*
X86466190Y-95596666D02*
X86370952Y-95549047D01*
X86323333Y-95501428D01*
X86275714Y-95406190D01*
X86275714Y-95310952D01*
X76113333Y-71577142D02*
X76065714Y-71624761D01*
X75922857Y-71672380D01*
X75827619Y-71672380D01*
X75684761Y-71624761D01*
X75589523Y-71529523D01*
X75541904Y-71434285D01*
X75494285Y-71243809D01*
X75494285Y-71100952D01*
X75541904Y-70910476D01*
X75589523Y-70815238D01*
X75684761Y-70720000D01*
X75827619Y-70672380D01*
X75922857Y-70672380D01*
X76065714Y-70720000D01*
X76113333Y-70767619D01*
X76684761Y-71100952D02*
X76589523Y-71053333D01*
X76541904Y-71005714D01*
X76494285Y-70910476D01*
X76494285Y-70862857D01*
X76541904Y-70767619D01*
X76589523Y-70720000D01*
X76684761Y-70672380D01*
X76875238Y-70672380D01*
X76970476Y-70720000D01*
X77018095Y-70767619D01*
X77065714Y-70862857D01*
X77065714Y-70910476D01*
X77018095Y-71005714D01*
X76970476Y-71053333D01*
X76875238Y-71100952D01*
X76684761Y-71100952D01*
X76589523Y-71148571D01*
X76541904Y-71196190D01*
X76494285Y-71291428D01*
X76494285Y-71481904D01*
X76541904Y-71577142D01*
X76589523Y-71624761D01*
X76684761Y-71672380D01*
X76875238Y-71672380D01*
X76970476Y-71624761D01*
X77018095Y-71577142D01*
X77065714Y-71481904D01*
X77065714Y-71291428D01*
X77018095Y-71196190D01*
X76970476Y-71148571D01*
X76875238Y-71100952D01*
X77413333Y-73937142D02*
X77365714Y-73984761D01*
X77222857Y-74032380D01*
X77127619Y-74032380D01*
X76984761Y-73984761D01*
X76889523Y-73889523D01*
X76841904Y-73794285D01*
X76794285Y-73603809D01*
X76794285Y-73460952D01*
X76841904Y-73270476D01*
X76889523Y-73175238D01*
X76984761Y-73080000D01*
X77127619Y-73032380D01*
X77222857Y-73032380D01*
X77365714Y-73080000D01*
X77413333Y-73127619D01*
X77889523Y-74032380D02*
X78080000Y-74032380D01*
X78175238Y-73984761D01*
X78222857Y-73937142D01*
X78318095Y-73794285D01*
X78365714Y-73603809D01*
X78365714Y-73222857D01*
X78318095Y-73127619D01*
X78270476Y-73080000D01*
X78175238Y-73032380D01*
X77984761Y-73032380D01*
X77889523Y-73080000D01*
X77841904Y-73127619D01*
X77794285Y-73222857D01*
X77794285Y-73460952D01*
X77841904Y-73556190D01*
X77889523Y-73603809D01*
X77984761Y-73651428D01*
X78175238Y-73651428D01*
X78270476Y-73603809D01*
X78318095Y-73556190D01*
X78365714Y-73460952D01*
X82717142Y-102897142D02*
X82669523Y-102944761D01*
X82526666Y-102992380D01*
X82431428Y-102992380D01*
X82288571Y-102944761D01*
X82193333Y-102849523D01*
X82145714Y-102754285D01*
X82098095Y-102563809D01*
X82098095Y-102420952D01*
X82145714Y-102230476D01*
X82193333Y-102135238D01*
X82288571Y-102040000D01*
X82431428Y-101992380D01*
X82526666Y-101992380D01*
X82669523Y-102040000D01*
X82717142Y-102087619D01*
X83669523Y-102992380D02*
X83098095Y-102992380D01*
X83383809Y-102992380D02*
X83383809Y-101992380D01*
X83288571Y-102135238D01*
X83193333Y-102230476D01*
X83098095Y-102278095D01*
X84288571Y-101992380D02*
X84383809Y-101992380D01*
X84479047Y-102040000D01*
X84526666Y-102087619D01*
X84574285Y-102182857D01*
X84621904Y-102373333D01*
X84621904Y-102611428D01*
X84574285Y-102801904D01*
X84526666Y-102897142D01*
X84479047Y-102944761D01*
X84383809Y-102992380D01*
X84288571Y-102992380D01*
X84193333Y-102944761D01*
X84145714Y-102897142D01*
X84098095Y-102801904D01*
X84050476Y-102611428D01*
X84050476Y-102373333D01*
X84098095Y-102182857D01*
X84145714Y-102087619D01*
X84193333Y-102040000D01*
X84288571Y-101992380D01*
X75137142Y-100487142D02*
X75089523Y-100534761D01*
X74946666Y-100582380D01*
X74851428Y-100582380D01*
X74708571Y-100534761D01*
X74613333Y-100439523D01*
X74565714Y-100344285D01*
X74518095Y-100153809D01*
X74518095Y-100010952D01*
X74565714Y-99820476D01*
X74613333Y-99725238D01*
X74708571Y-99630000D01*
X74851428Y-99582380D01*
X74946666Y-99582380D01*
X75089523Y-99630000D01*
X75137142Y-99677619D01*
X76089523Y-100582380D02*
X75518095Y-100582380D01*
X75803809Y-100582380D02*
X75803809Y-99582380D01*
X75708571Y-99725238D01*
X75613333Y-99820476D01*
X75518095Y-99868095D01*
X77041904Y-100582380D02*
X76470476Y-100582380D01*
X76756190Y-100582380D02*
X76756190Y-99582380D01*
X76660952Y-99725238D01*
X76565714Y-99820476D01*
X76470476Y-99868095D01*
X85386666Y-58682380D02*
X85386666Y-59396666D01*
X85339047Y-59539523D01*
X85243809Y-59634761D01*
X85100952Y-59682380D01*
X85005714Y-59682380D01*
X86339047Y-58682380D02*
X85862857Y-58682380D01*
X85815238Y-59158571D01*
X85862857Y-59110952D01*
X85958095Y-59063333D01*
X86196190Y-59063333D01*
X86291428Y-59110952D01*
X86339047Y-59158571D01*
X86386666Y-59253809D01*
X86386666Y-59491904D01*
X86339047Y-59587142D01*
X86291428Y-59634761D01*
X86196190Y-59682380D01*
X85958095Y-59682380D01*
X85862857Y-59634761D01*
X85815238Y-59587142D01*
X71746666Y-99842380D02*
X71746666Y-100556666D01*
X71699047Y-100699523D01*
X71603809Y-100794761D01*
X71460952Y-100842380D01*
X71365714Y-100842380D01*
X72651428Y-99842380D02*
X72460952Y-99842380D01*
X72365714Y-99890000D01*
X72318095Y-99937619D01*
X72222857Y-100080476D01*
X72175238Y-100270952D01*
X72175238Y-100651904D01*
X72222857Y-100747142D01*
X72270476Y-100794761D01*
X72365714Y-100842380D01*
X72556190Y-100842380D01*
X72651428Y-100794761D01*
X72699047Y-100747142D01*
X72746666Y-100651904D01*
X72746666Y-100413809D01*
X72699047Y-100318571D01*
X72651428Y-100270952D01*
X72556190Y-100223333D01*
X72365714Y-100223333D01*
X72270476Y-100270952D01*
X72222857Y-100318571D01*
X72175238Y-100413809D01*
X67226666Y-99882380D02*
X67226666Y-100596666D01*
X67179047Y-100739523D01*
X67083809Y-100834761D01*
X66940952Y-100882380D01*
X66845714Y-100882380D01*
X67607619Y-99882380D02*
X68274285Y-99882380D01*
X67845714Y-100882380D01*
X87727142Y-77343809D02*
X87774761Y-77391428D01*
X87822380Y-77534285D01*
X87822380Y-77629523D01*
X87774761Y-77772380D01*
X87679523Y-77867619D01*
X87584285Y-77915238D01*
X87393809Y-77962857D01*
X87250952Y-77962857D01*
X87060476Y-77915238D01*
X86965238Y-77867619D01*
X86870000Y-77772380D01*
X86822380Y-77629523D01*
X86822380Y-77534285D01*
X86870000Y-77391428D01*
X86917619Y-77343809D01*
X87536666Y-76962857D02*
X87536666Y-76486666D01*
X87822380Y-77058095D02*
X86822380Y-76724761D01*
X87822380Y-76391428D01*
X87822380Y-76058095D02*
X86822380Y-76058095D01*
X87822380Y-75486666D01*
X86822380Y-75486666D01*
X87917619Y-75248571D02*
X87917619Y-74486666D01*
X86822380Y-74248571D02*
X87631904Y-74248571D01*
X87727142Y-74200952D01*
X87774761Y-74153333D01*
X87822380Y-74058095D01*
X87822380Y-73867619D01*
X87774761Y-73772380D01*
X87727142Y-73724761D01*
X87631904Y-73677142D01*
X86822380Y-73677142D01*
X87774761Y-73248571D02*
X87822380Y-73105714D01*
X87822380Y-72867619D01*
X87774761Y-72772380D01*
X87727142Y-72724761D01*
X87631904Y-72677142D01*
X87536666Y-72677142D01*
X87441428Y-72724761D01*
X87393809Y-72772380D01*
X87346190Y-72867619D01*
X87298571Y-73058095D01*
X87250952Y-73153333D01*
X87203333Y-73200952D01*
X87108095Y-73248571D01*
X87012857Y-73248571D01*
X86917619Y-73200952D01*
X86870000Y-73153333D01*
X86822380Y-73058095D01*
X86822380Y-72820000D01*
X86870000Y-72677142D01*
X87298571Y-71915238D02*
X87346190Y-71772380D01*
X87393809Y-71724761D01*
X87489047Y-71677142D01*
X87631904Y-71677142D01*
X87727142Y-71724761D01*
X87774761Y-71772380D01*
X87822380Y-71867619D01*
X87822380Y-72248571D01*
X86822380Y-72248571D01*
X86822380Y-71915238D01*
X86870000Y-71820000D01*
X86917619Y-71772380D01*
X87012857Y-71724761D01*
X87108095Y-71724761D01*
X87203333Y-71772380D01*
X87250952Y-71820000D01*
X87298571Y-71915238D01*
X87298571Y-72248571D01*
X90242380Y-64401904D02*
X91051904Y-64401904D01*
X91147142Y-64354285D01*
X91194761Y-64306666D01*
X91242380Y-64211428D01*
X91242380Y-64020952D01*
X91194761Y-63925714D01*
X91147142Y-63878095D01*
X91051904Y-63830476D01*
X90242380Y-63830476D01*
X90242380Y-62878095D02*
X90242380Y-63354285D01*
X90718571Y-63401904D01*
X90670952Y-63354285D01*
X90623333Y-63259047D01*
X90623333Y-63020952D01*
X90670952Y-62925714D01*
X90718571Y-62878095D01*
X90813809Y-62830476D01*
X91051904Y-62830476D01*
X91147142Y-62878095D01*
X91194761Y-62925714D01*
X91242380Y-63020952D01*
X91242380Y-63259047D01*
X91194761Y-63354285D01*
X91147142Y-63401904D01*
M02*
